<svg xmlns="http://www.w3.org/2000/svg" width="105" height="105" viewBox="0 0 105 105"><g transform="translate(7201 10569)"><circle cx="52.5" cy="52.5" r="52.5" transform="translate(-7201 -10569)" fill="#adc46c"/><g transform="translate(-7176 -10589.106)"><path d="M30.219,104.06,11.055,84.9l8.132-8.132L30.219,87.8,56.855,61.161l8.132,8.132Z" transform="translate(-9.838 -9.838)" fill="#fcc062"/><path d="M26.091,99.932,11.055,84.9l8.132-8.132L30.219,87.8,56.855,61.161l4,4Z" transform="translate(-9.838 -9.838)" fill="#fbb03b"/><path d="M20.381,95.44,0,75.058l9.349-9.349L20.381,76.741,47.017,50.106l9.349,9.349ZM2.434,75.058,20.382,93.005l33.55-33.55L47.017,52.54,20.381,79.175,9.349,68.143Z"/><g transform="translate(17.96 81.944)"><path d="M165.487,370.091l-2.35-2.351,1.217-1.217,1.133,1.133,4.617-4.617,1.217,1.217Z" transform="translate(-163.137 -360.427)" fill="#fff"/><rect width="1.721" height="2.463" transform="translate(9.056 2.959) rotate(-135)" fill="#fff"/></g></g></g></svg>