<svg xmlns="http://www.w3.org/2000/svg" width="82" height="82" viewBox="0 0 82 82"><path d="M0,82V0C0,5.967,82,5.967,82,0V82" transform="translate(0)" fill="#4d5961"/><circle cx="21.518" cy="21.518" r="21.518" transform="translate(19.482 24.047)" fill="#5e6b75"/><path d="M36.723,394.693h69.448v14.836H36.561Z" transform="translate(-30.706 -331.48)" fill="#f1d333"/><path d="M36.723,418.607h69.448v12.3H36.561Z" transform="translate(-30.706 -351.564)" fill="#e7a52e"/><path d="M391.779,46.765l-6.09,32.213,9.533,2.514,1.929.508V0L395.47.37,376.621,4.516a47.321,47.321,0,0,0-1.361,10.611C375.061,24.813,377.568,38.8,391.779,46.765Z" transform="translate(-315.151)" fill="#da4a54"/><path d="M481.294,0V82l-1.929-.508-3.927-3.927L478.844,48l.142-1.237a10.931,10.931,0,0,1-.528-1.237c-3.4-9.423-2.394-37.167-2.394-37.167L479.613.37Z" transform="translate(-399.294)" fill="#c32430"/><path d="M375.316,15.126C388.334,12.264,397.207,6.563,397.207,0l-20.53,4.516A47.321,47.321,0,0,0,375.316,15.126Z" transform="translate(-315.207)" fill="#c32430"/><path d="M468.688,284.268v2.475h-7.022a1.237,1.237,0,1,1,0-2.475h7.022Z" transform="translate(-386.688 -238.741)" fill="#b9a0d3"/><path d="M416.095,100.3a1.232,1.232,0,0,1-.795-.289c-4.8-4.031-7.85-10.541-8.807-18.826a49.047,49.047,0,0,1-.009-11.32,1.237,1.237,0,1,1,2.451.344c-.031.226-2.517,19.119,7.955,27.906a1.237,1.237,0,0,1-.8,2.185Z" transform="translate(-341.117 -57.777)" fill="#c32430"/><path d="M450.974,96.581a1.238,1.238,0,0,1-1.165-.822c-3.316-9.284-.167-21.5-.031-22.017a1.237,1.237,0,0,1,2.394.629c-.031.119-3.087,12-.031,20.555a1.238,1.238,0,0,1-1.165,1.654Z" transform="translate(-376.499 -61.157)" fill="#c32430"/><path d="M5.372,46.765l6.09,32.213L1.929,81.492,0,82V0L1.681.37,20.53,4.516a47.323,47.323,0,0,1,1.361,10.611c.2,9.687-2.308,23.676-16.519,31.638Z" transform="translate(0)" fill="#da4a54"/><path d="M5.855,77.565,1.929,81.492,0,82V0L1.681.37,5.23,8.36S6.238,36.1,2.836,45.527a10.856,10.856,0,0,1-.528,1.237L2.45,48Z" transform="translate(0)" fill="#c32430"/><path d="M21.891,15.126C8.873,12.264,0,6.563,0,0L20.53,4.516a47.323,47.323,0,0,1,1.361,10.611Z" transform="translate(0)" fill="#c32430"/><path d="M82,0c0,5.967-18.356,10.8-41,10.8S0,5.967,0,0Z" transform="translate(0)" fill="#da4a54"/><path d="M20.386,437.405H6.947A6.947,6.947,0,0,0,0,444.352v5H27.333v-5a6.947,6.947,0,0,0-6.947-6.947Z" transform="translate(0 -367.352)" fill="#be694f"/><path d="M11.14,437.4a6.947,6.947,0,0,0-6.948,6.948v5H0v-5A6.947,6.947,0,0,1,6.946,437.4Z" transform="translate(0 -367.349)" fill="#934d36"/><path d="M191.053,437.405H177.614a6.947,6.947,0,0,0-6.947,6.947v5H198v-5A6.947,6.947,0,0,0,191.053,437.405Z" transform="translate(-143.334 -367.352)" fill="#be694f"/><path d="M181.807,437.4a6.947,6.947,0,0,0-6.948,6.948v5h-4.192v-5a6.947,6.947,0,0,1,6.946-6.948Z" transform="translate(-143.334 -367.349)" fill="#934d36"/><path d="M361.719,437.405H348.28a6.947,6.947,0,0,0-6.947,6.947v5h27.333v-5A6.947,6.947,0,0,0,361.719,437.405Z" transform="translate(-286.666 -367.352)" fill="#be694f"/><path d="M352.473,437.4a6.947,6.947,0,0,0-6.948,6.948v5h-4.192v-5a6.947,6.947,0,0,1,6.946-6.948Z" transform="translate(-286.666 -367.349)" fill="#934d36"/><path d="M99.948,0c2.608,3,12.808,5.242,24.993,5.242S147.325,3,149.933,0" transform="translate(-83.941)" fill="#c32430"/><path d="M8.259,285.5a1.238,1.238,0,0,1-1.237,1.237H0v-2.475H7.022A1.237,1.237,0,0,1,8.259,285.5Z" transform="translate(0 -238.74)" fill="#b9a0d3"/><g transform="translate(5.784 11.018)"><path d="M37.355,100.3a1.237,1.237,0,0,1-.8-2.185c10.5-8.81,7.982-27.716,7.955-27.906a1.237,1.237,0,1,1,2.451-.344,49.057,49.057,0,0,1-.009,11.32c-.957,8.285-4,14.8-8.807,18.826A1.232,1.232,0,0,1,37.355,100.3Z" transform="translate(-36.117 -68.795)" fill="#c32430"/><path d="M40.491,96.582a1.238,1.238,0,0,1-1.165-1.654c3.055-8.555,0-20.436-.031-20.555a1.237,1.237,0,0,1,2.394-.629c.136.516,3.284,12.733-.031,22.017A1.238,1.238,0,0,1,40.491,96.582Z" transform="translate(-38.751 -72.176)" fill="#c32430"/></g></svg>