<svg xmlns="http://www.w3.org/2000/svg" width="113" height="113" viewBox="0 0 113 113"><g transform="translate(-180 -7331)"><g transform="translate(180 7331)"><circle cx="56.5" cy="56.5" r="56.5" fill="#bfe85f"/><path d="M159.532,82.093,147.442,70l-4.736,4.736L116.7,150.471l14.8,14.8a56.534,56.534,0,0,0,71.212-66.009L178.187,74.739Z" transform="translate(-90.942 -54.553)" fill="#ade232"/><g transform="translate(25.756 13.109)"><g transform="translate(22.697)"><path d="M227.584,64.079l-5.707,5.707-2.341-2.341,8.048-8.047.883,2.429Z" transform="translate(-219.536 -59.397)" fill="#424c52"/><g transform="translate(8.048 0)"><path d="M261.707,69.786,256,64.079V59.4l8.048,8.047Z" transform="translate(-256 -59.397)" fill="#373c41"/></g></g><g transform="translate(0 14.996)"><path d="M147.442,195.157H116.7V127.345h30.744l19.918,33.906Z" transform="translate(-116.698 -127.345)" fill="#f7f9fa"/><path d="M256,127.345h30.744v67.812H256Z" transform="translate(-225.256 -127.345)" fill="#e5e5e8"/></g><g transform="translate(0 7.077)"><path d="M147.442,102.185H116.7V91.461h30.744l13.3,5.362Z" transform="translate(-116.698 -91.461)" fill="#885140"/><path d="M256,91.461h30.744v10.724H256Z" transform="translate(-225.256 -91.461)" fill="#724435"/></g><g transform="translate(5.044 56.828)"><path d="M143.644,337.74a6.068,6.068,0,0,1-4.094-1.773l2.635-2.618-.014-.014c.045.043,1.112,1.052,2.068.521a1.612,1.612,0,0,0,.807-1.42v-15.55h3.714v15.55a5.326,5.326,0,0,1-2.718,4.668,4.882,4.882,0,0,1-2.4.637Z" transform="translate(-139.55 -316.884)" fill="#424edd"/><g transform="translate(35.262)"><path d="M303.033,337.731h-3.714V316.916h3.635L311.4,330.36V316.884h3.714v20.584h-3.635l-8.447-13.444Z" transform="translate(-299.319 -316.884)" fill="#2633d7"/></g></g><g transform="translate(11.431 21.929)"><path d="M186.705,188.017l-16.915-.052.015-3.906.608-.638a117,117,0,0,0,8.52-11.234,13.977,13.977,0,0,0,2.227-4.427l.086-.671a4.03,4.03,0,0,0-7.982-.658l-.427,2.173-4.347-.854.427-2.173a8.46,8.46,0,0,1,16.76,1.637v.141l-.153,1.194-.025.109a18,18,0,0,1-2.938,6.068c-2.915,4.165-5.048,6.992-6.5,8.828l10.654.033Z" transform="translate(-168.491 -158.755)" fill="#ff4c04"/></g><path d="M267.012,168.868a9.246,9.246,0,0,0-2.434.326,18.39,18.39,0,0,1,5.357-6.292l1.846-1.212-2.432-3.7L267.5,159.2a24.037,24.037,0,0,0-9.645,17.495,9.272,9.272,0,1,0,9.16-7.831Zm0,14.114a4.847,4.847,0,0,1-4.84-4.787l.076-.909a4.841,4.841,0,1,1,4.765,5.7Z" transform="translate(-226.612 -136.229)" fill="#cf3b00"/><path d="M213.7,320.464l-1.148-3.042-3.283,0-7.549,19.822,3.471,1.322L207,333.824h6.7l.907-5.218Zm-2.8,3.109,2.467,6.536h-4.956Z" transform="translate(-182.954 -260.475)" fill="#424edd"/><path d="M256,344.564h1.072l1.79,4.743L262.337,348,256,331.2Z" transform="translate(-225.256 -271.215)" fill="#2633d7"/></g></g></g></svg>