<svg xmlns="http://www.w3.org/2000/svg" width="113" height="113" viewBox="0 0 113 113"><g transform="translate(-180 -7476)"><g transform="translate(180 7476)"><circle cx="56.5" cy="56.5" r="56.5" fill="#c3efff"/><circle cx="49.5" cy="49.5" r="49.5" transform="translate(7 7)" fill="#86e0ff"/><path d="M304.31,91.108A39.4,39.4,0,0,0,285.843,80.4h-1.695V146.13h20.163a39.609,39.609,0,0,0,5.323-6.821Z" transform="translate(-219.543 -62.119)" fill="#16a5d9"/><path d="M122.552,80.4h-17.9a39.311,39.311,0,0,0-14.695,7.3L75.147,115.209c-.1,1.124-.148,2.261-.148,3.41a39.638,39.638,0,0,0,.712,7.481l46.841,30.739c14.1-4.357,24.522-19.817,24.522-38.22S136.65,84.756,122.552,80.4Z" transform="translate(-57.947 -62.119)" fill="#30bbec"/><path d="M367.6,148.19a39.345,39.345,0,0,0-10.592-20.69h-2.689a6.825,6.825,0,0,0-1.966.289v27.222Z" transform="translate(-272.242 -98.511)" fill="#73d093"/><path d="M301.087,128.77a6.823,6.823,0,0,0-4.855,6.532v5.343H286v5.116a3.411,3.411,0,0,0,3.41,3.41h8.526v6.821h6.821v3.41a3.411,3.411,0,0,0,3.41,3.41h1.445a47.8,47.8,0,0,0,.487-6.821A44,44,0,0,0,301.087,128.77Z" transform="translate(-220.974 -99.492)" fill="#96e192"/><path d="M233.5,255.321a6.821,6.821,0,0,0,6.821,6.821l3.7,10.461a5.116,5.116,0,0,0,9.645,0l3.7-10.461V248.5H240.321A6.821,6.821,0,0,0,233.5,255.321Z" transform="translate(-180.41 -192)" fill="#96e192"/><path d="M252.258,75.059l8.773,1.733c.061-.171.12-.344.172-.519A39.489,39.489,0,0,0,252.258,75.059Z" transform="translate(-194.904 -57.993)" fill="#c3efff"/><path d="M215.2,75a39.521,39.521,0,0,0-9.8,1.228,10.227,10.227,0,0,0,19.427.519,27.488,27.488,0,0,0-8.773-1.733C215.769,75.007,215.484,75,215.2,75Z" transform="translate(-158.699 -57.948)" fill="#fff"/><path d="M89.374,143.422a3.411,3.411,0,0,0,3.41-3.41v-17.28a5.116,5.116,0,0,0,0-10.231H90.458a39.384,39.384,0,0,0-14.805,27.511h10.31A3.411,3.411,0,0,0,89.374,143.422Z" transform="translate(-58.452 -86.922)" fill="#96e192"/><path d="M72.784,27.784V48.247a10.231,10.231,0,0,0,0-20.463Z" transform="translate(-56.236 -21.467)" fill="#f9bb69"/><path d="M41.426,38.015c0-5.651-1.527-10.231-3.41-10.231a10.231,10.231,0,0,0,0,20.463C39.9,48.247,41.426,43.666,41.426,38.015Z" transform="translate(-21.467 -21.467)" fill="#f6d76f"/><path d="M271.88,369.5,248.5,381.437A39.327,39.327,0,0,0,276.767,369.5Z" transform="translate(-192 -285.489)" fill="#c3efff"/><path d="M381.767,218.5h-6.719l-4.357,27.511H376.5a39.261,39.261,0,0,0,5.858-20.69A39.689,39.689,0,0,0,381.767,218.5Z" transform="translate(-286.409 -168.821)" fill="#c3efff"/><path d="M113.04,249.422a3.411,3.411,0,0,1,3.41-3.41h27.782a45.535,45.535,0,0,0,4.845-20.69,47.8,47.8,0,0,0-.487-6.821H104.514a3.41,3.41,0,0,0,0,6.821h25.578a3.41,3.41,0,0,1,0,6.821h-52.5a39.458,39.458,0,0,0,38.858,32.627c9.169,0,17.452-4.575,23.38-11.937H116.45A3.411,3.411,0,0,1,113.04,249.422Z" transform="translate(-59.95 -168.821)" fill="#fff"/><path d="M287.705,135.321A1.705,1.705,0,0,1,286,133.616v-3.41a1.705,1.705,0,1,1,3.41,0v3.41A1.705,1.705,0,0,1,287.705,135.321Z" transform="translate(-220.974 -99.284)" fill="#96e192"/></g></g></svg>