<svg xmlns="http://www.w3.org/2000/svg" width="113" height="113" viewBox="0 0 113 113"><g transform="translate(-180 -7187)"><g transform="translate(180 7187)"><path d="M113,56.5a56.524,56.524,0,0,1-42.368,54.718c-4.517,1.163-9.252-5.692-14.132-5.692s-9.615,6.855-14.132,5.692A56.506,56.506,0,1,1,113,56.5Z" fill="#90d8f9"/><g transform="translate(47.188 0)"><path d="M259.047,29.762l-2.225-1.284a3.31,3.31,0,0,1-1.645-3.012q.017-.38.017-.764t-.017-.764a3.31,3.31,0,0,1,1.645-3.012l2.225-1.284a3.3,3.3,0,0,0,1.207-4.5l-3.217-5.573a3.3,3.3,0,0,0-4.505-1.207l-2.224,1.284a3.312,3.312,0,0,1-3.434-.085q-.644-.412-1.325-.766a3.306,3.306,0,0,1-1.782-2.929V3.3a3.3,3.3,0,0,0-3.3-3.3h-6.433a3.3,3.3,0,0,0-3.3,3.3V5.863a3.307,3.307,0,0,1-1.782,2.929q-.68.355-1.325.766a3.312,3.312,0,0,1-3.434.085l-2.223-1.284a3.3,3.3,0,0,0-4.5,1.207l-3.217,5.573a3.3,3.3,0,0,0,1.207,4.5l2.225,1.284a3.31,3.31,0,0,1,1.645,3.012q-.017.38-.017.764t.017.764a3.31,3.31,0,0,1-1.645,3.012l-2.225,1.284a3.3,3.3,0,0,0-1.207,4.5l3.217,5.573a3.3,3.3,0,0,0,4.5,1.207l2.224-1.284a3.312,3.312,0,0,1,3.434.085q.644.412,1.325.767a3.306,3.306,0,0,1,1.782,2.929v2.566a3.3,3.3,0,0,0,3.3,3.3h6.433a3.3,3.3,0,0,0,3.3-3.3V43.54a3.307,3.307,0,0,1,1.782-2.929q.68-.355,1.325-.767a3.312,3.312,0,0,1,3.434-.085l2.224,1.284a3.3,3.3,0,0,0,4.5-1.207l3.217-5.573a3.3,3.3,0,0,0-1.207-4.5ZM237.253,33.1a8.4,8.4,0,1,1,8.4-8.4A8.4,8.4,0,0,1,237.253,33.1Z" transform="translate(-213.809 0)" fill="#e7e4df"/><g transform="translate(0)"><path d="M276.973,9.557q.644-.41,1.324-.766a3.306,3.306,0,0,0,1.782-2.928V3.3a3.3,3.3,0,0,1,3.3-3.3H280.9a3.3,3.3,0,0,0-3.3,3.3V5.863a3.306,3.306,0,0,1-1.782,2.928q-.68.355-1.324.766a3.382,3.382,0,0,1-.551.282A3.317,3.317,0,0,0,276.973,9.557Z" transform="translate(-260.67 0)" fill="#cbcac8"/><path d="M219.95,67.79l-3.217-5.572a3.3,3.3,0,0,1,1.207-4.5l2.224-1.284a3.309,3.309,0,0,0,1.644-3.011q-.016-.38-.016-.765t.016-.765a3.309,3.309,0,0,0-1.644-3.011l-2.224-1.284a3.3,3.3,0,0,1-1.207-4.5l3.217-5.572a3.283,3.283,0,0,1,1.616-1.406,3.3,3.3,0,0,0-4.1,1.406l-3.217,5.572a3.3,3.3,0,0,0,1.207,4.5l2.224,1.284a3.309,3.309,0,0,1,1.644,3.011q-.016.38-.016.765t.016.765a3.309,3.309,0,0,1-1.644,3.011l-2.224,1.284a3.3,3.3,0,0,0-1.207,4.5l3.217,5.572a3.3,3.3,0,0,0,4.1,1.406A3.283,3.283,0,0,1,219.95,67.79Z" transform="translate(-213.811 -27.952)" fill="#cbcac8"/><path d="M280.079,184.951v-2.566a3.306,3.306,0,0,0-1.782-2.928q-.68-.355-1.324-.766a3.317,3.317,0,0,0-3.032-.282,3.331,3.331,0,0,1,.551.282q.644.41,1.324.766a3.306,3.306,0,0,1,1.782,2.928v2.566a3.3,3.3,0,0,0,3.3,3.3h2.48A3.3,3.3,0,0,1,280.079,184.951Z" transform="translate(-260.669 -138.846)" fill="#cbcac8"/></g><path d="M276.635,56.24a12.289,12.289,0,1,0,12.289,12.289A12.289,12.289,0,0,0,276.635,56.24Z" transform="translate(-253.192 -43.828)" fill="#cbcac8"/><path d="M298.394,84.161a6.127,6.127,0,1,0,6.127,6.127A6.127,6.127,0,0,0,298.394,84.161Z" transform="translate(-274.951 -65.586)" fill="#59575e"/></g><g transform="translate(23.983 17.463)"><path d="M154.479,122.341l-1.433-2.483a3.694,3.694,0,0,1,.091-3.829q.228-.358.443-.729t.41-.748a3.7,3.7,0,0,1,3.271-1.993h2.867a3.68,3.68,0,0,0,3.68-3.68V101.7a3.682,3.682,0,0,0-3.681-3.68h-2.866a3.7,3.7,0,0,1-3.272-2q-.393-.757-.853-1.48a3.69,3.69,0,0,1-.089-3.825l1.432-2.48a3.68,3.68,0,0,0-1.347-5.027l-6.218-3.59a3.68,3.68,0,0,0-5.027,1.347l-1.432,2.48A3.69,3.69,0,0,1,137.1,85.28q-.855-.036-1.708,0a3.7,3.7,0,0,1-3.367-1.835l-1.433-2.482a3.681,3.681,0,0,0-5.028-1.348l-6.219,3.591A3.68,3.68,0,0,0,118,88.234l1.433,2.483a3.694,3.694,0,0,1-.091,3.829c-.3.476-.592.976-.853,1.478a3.7,3.7,0,0,1-3.271,1.993h-2.867a3.68,3.68,0,0,0-3.68,3.68v7.181a3.681,3.681,0,0,0,3.681,3.68h2.866a3.7,3.7,0,0,1,3.272,2q.393.757.853,1.48a3.69,3.69,0,0,1,.089,3.825L118,122.341a3.68,3.68,0,0,0,1.347,5.027l6.218,3.59a3.68,3.68,0,0,0,5.027-1.347l1.432-2.48a3.69,3.69,0,0,1,3.357-1.836q.855.036,1.708,0a3.7,3.7,0,0,1,3.367,1.835l1.433,2.482a3.681,3.681,0,0,0,5.028,1.348l6.219-3.591a3.68,3.68,0,0,0,1.347-5.027ZM131.552,113.4a9.371,9.371,0,1,1,12.8-3.43A9.372,9.372,0,0,1,131.552,113.4Z" transform="translate(-108.668 -79.123)" fill="#faf7f1"/><g transform="translate(0.001 0)"><path d="M229.7,86.667q.851-.037,1.708,0a3.69,3.69,0,0,0,3.356-1.835l1.432-2.48A3.68,3.68,0,0,1,241.228,81l-2.4-1.384a3.68,3.68,0,0,0-5.027,1.347l-1.432,2.48a3.69,3.69,0,0,1-3.356,1.835q-.855-.036-1.708,0a3.756,3.756,0,0,1-.69-.035,3.7,3.7,0,0,0,3.088,1.42Z" transform="translate(-200.586 -79.125)" fill="#e7e4df"/><path d="M111.069,110.266v-7.18a3.68,3.68,0,0,1,3.68-3.68h2.867a3.693,3.693,0,0,0,3.27-1.993c.262-.5.55-1,.854-1.479a3.693,3.693,0,0,0,.091-3.828L120.4,89.622a3.68,3.68,0,0,1,1.347-5.027L127.963,81a3.665,3.665,0,0,1,2.346-.457,3.68,3.68,0,0,0-4.744-.927l-6.218,3.59A3.68,3.68,0,0,0,118,88.238l1.433,2.483a3.694,3.694,0,0,1-.091,3.829c-.3.478-.592.977-.854,1.479a3.693,3.693,0,0,1-3.27,1.993h-2.867a3.68,3.68,0,0,0-3.68,3.68v7.18a3.68,3.68,0,0,0,3.175,3.645,3.663,3.663,0,0,1-.778-2.261Z" transform="translate(-108.672 -79.127)" fill="#e7e4df"/><path d="M151.591,246.794l1.432-2.48a3.69,3.69,0,0,0-.089-3.825q-.459-.723-.853-1.479a3.7,3.7,0,0,0-2.773-1.964,3.733,3.733,0,0,1,.376.58q.394.756.853,1.479a3.69,3.69,0,0,1,.089,3.825l-1.432,2.48a3.68,3.68,0,0,0,1.347,5.027l2.4,1.384a3.68,3.68,0,0,1-1.347-5.027Z" transform="translate(-139.866 -202.192)" fill="#e7e4df"/></g><path d="M192,137.359a13.716,13.716,0,1,0,5.02,18.736A13.716,13.716,0,0,0,192,137.359Z" transform="translate(-157.576 -123.072)" fill="#e7e4df"/><path d="M212.853,167.6a6.838,6.838,0,1,0,2.5,9.341A6.838,6.838,0,0,0,212.853,167.6Z" transform="translate(-181.865 -147.36)" fill="#cbcac8"/></g><g transform="translate(4.06 50.751)"><path d="M220.233,444.27v13.165a56.493,56.493,0,0,1-14.132,1.783,57.114,57.114,0,0,1-6.683-.391,56.01,56.01,0,0,1-7.449-1.393V444.27Z" transform="translate(-153.662 -396.969)" fill="#ffddce"/><path d="M199.419,444.27v14.558a56.01,56.01,0,0,1-7.449-1.393V444.27Z" transform="translate(-153.662 -396.969)" fill="#ffcbbe"/><g transform="translate(0 2.074)"><ellipse cx="8.851" cy="14.133" rx="8.851" ry="14.133" transform="matrix(0.941, -0.338, 0.338, 0.941, 0, 5.983)" fill="#ffcbbe"/><ellipse cx="14.133" cy="8.851" rx="14.133" ry="8.851" transform="matrix(0.338, -0.941, 0.941, 0.338, 78.706, 26.677)" fill="#ffddce"/></g><path d="M172.547,229.952l3.638,31.422a16.84,16.84,0,0,1-6.576,13.35l-13.283,10.207a19.162,19.162,0,0,1-23.352,0L119.69,274.724a16.84,16.84,0,0,1-6.576-13.35l3.638-31.422Z" transform="translate(-92.21 -229.952)" fill="#ffddce"/><path d="M144.649,288.9a19.143,19.143,0,0,1-11.676-3.968L119.69,274.724a16.84,16.84,0,0,1-6.576-13.35l3.638-31.422h8.362v31.422c0,5.229,1.507,10.162,4.075,13.35l8.228,10.207C139.552,287.576,142.1,288.9,144.649,288.9Z" transform="translate(-92.21 -229.952)" fill="#ffcbbe"/><g transform="translate(6.356 10.916)"><path d="M411.4,290.807a1.727,1.727,0,0,1-1.7-2,12.087,12.087,0,0,1,5.883-8.549,6.262,6.262,0,0,1,5.067-.541A1.725,1.725,0,0,1,419.586,283a2.807,2.807,0,0,0-2.272.242,8.65,8.65,0,0,0-4.21,6.117A1.725,1.725,0,0,1,411.4,290.807Z" transform="translate(-329.676 -279.412)" fill="#ffcbbe"/><path d="M57.636,290.807a1.726,1.726,0,0,1-1.7-1.449,8.649,8.649,0,0,0-4.21-6.117A2.807,2.807,0,0,0,49.454,283a1.725,1.725,0,0,1-1.063-3.283,6.262,6.262,0,0,1,5.067.541,12.088,12.088,0,0,1,5.883,8.549,1.725,1.725,0,0,1-1.427,1.979A1.754,1.754,0,0,1,57.636,290.807Z" transform="translate(-47.197 -279.413)" fill="#eaac9d"/></g><path d="M173.5,229.952V262.43a17.405,17.405,0,0,1-6.8,13.8l-13.729,10.55a19.806,19.806,0,0,1-24.137,0l-13.729-10.55a17.406,17.406,0,0,1-6.8-13.8V229.952h4.7v27.881a7.53,7.53,0,0,0,3.65,6.454l.722.434a7.531,7.531,0,0,0,10.311-2.534,7.531,7.531,0,0,1,6.43-3.611h13.569a7.531,7.531,0,0,1,6.43,3.611,7.531,7.531,0,0,0,10.311,2.534l.722-.434a7.531,7.531,0,0,0,3.65-6.454V229.952Z" transform="translate(-88.47 -229.952)" fill="#59575e"/><path d="M226.869,400.506h-8.345a5.259,5.259,0,0,0,0,10.518h8.345a5.259,5.259,0,1,0,0-10.518Z" transform="translate(-170.257 -362.864)" fill="#ffddce"/><path d="M236.9,337.885h-8.223a2.463,2.463,0,1,0,0,4.925H236.9a2.463,2.463,0,1,0,0-4.925Z" transform="translate(-180.347 -314.063)" fill="#ffcbbe"/><g transform="translate(30.681 2.476)"><path d="M236.9,405.178h-8.223a2.463,2.463,0,1,0,0,4.925H236.9a2.463,2.463,0,1,0,0-4.925Z" transform="translate(-211.028 -368.98)" fill="#eaac9d"/><path d="M168.1,241.168h-8.223a2.463,2.463,0,0,0,0,4.925H168.1a2.463,2.463,0,0,0,0-4.925Z" transform="translate(-157.411 -241.168)" fill="#eaac9d"/><path d="M305.7,241.168h-8.223a2.463,2.463,0,1,0,0,4.925H305.7a2.463,2.463,0,1,0,0-4.925Z" transform="translate(-264.646 -241.168)" fill="#eaac9d"/><g transform="translate(0.217 9.289)"><path d="M284.833,290.843a7.589,7.589,0,0,1,15.179,0" transform="translate(-256.928 -283.254)" fill="#eaac9d"/><path d="M158.394,290.843a7.589,7.589,0,1,1,15.179,0" transform="translate(-158.394 -283.254)" fill="#eaac9d"/></g></g><path d="M138.514,290.734a19.762,19.762,0,0,1-9.669-3.957l-13.73-10.55a17.406,17.406,0,0,1-6.8-13.8V229.95h4.7v27.881a7.527,7.527,0,0,0,3.65,6.453l.722.435a7.479,7.479,0,0,0,4.008,1.075,21.153,21.153,0,0,0,4.07,10.795l8.572,10.633A11.418,11.418,0,0,0,138.514,290.734Z" transform="translate(-88.474 -229.95)" fill="#423f46"/></g></g></g></svg>