<svg xmlns="http://www.w3.org/2000/svg" width="111.062" height="113.501" viewBox="0 0 111.062 113.501"><g transform="translate(-180 -7601)"><g transform="translate(174.5 7601.001)"><path d="M114.124,76.312a54.111,54.111,0,0,1-4.936,22.654c-.409.889-4.364-.123-4.818.74-9.1,17.261-23.691,28.526-44.558,28.526-20.849,0-36.9-12.055-46-29.292-.463-.877-2.959.931-3.375.026A54.318,54.318,0,1,1,114.124,76.312Z" transform="translate(0 -17.124)" fill="#003c79"/><path d="M111.986,102.046V147.63a54.518,54.518,0,0,1-4.433,3.343c-.511.346-1.027,3.745-1.55,4.074a54.358,54.358,0,0,1-57.721,0c-.263-.165.363-1.21.1-1.38a54.536,54.536,0,0,1-4.472-3.254c-.245-.2-1.374.48-1.615.279a54.5,54.5,0,0,1-14.532-19.008V66.253a2.217,2.217,0,0,1,2.217-2.217h82Z" transform="translate(-17.33 -49.841)" fill="#2dd2e3"/><path d="M122.19,0h73.878a2.217,2.217,0,0,1,2.217,2.217V81.843a54.541,54.541,0,0,1-20.516,23.363H122.113l-2.14-1.742V2.217A2.217,2.217,0,0,1,122.19,0Z" transform="translate(-89.097 -0.001)" fill="#d5f3f7"/><path d="M102.91,105.207H99.3a54.51,54.51,0,0,1-5.984-4.355V2.217A2.217,2.217,0,0,1,95.536,0h7.374a2.217,2.217,0,0,0-2.217,2.217V102.99a2.217,2.217,0,0,0,2.217,2.217Z" transform="translate(-68.351 -0.001)" fill="#afeaf2"/><path d="M197.048,209.461H179.186a2.217,2.217,0,0,1-2.217-2.217V191.85a2.217,2.217,0,0,1,2.217-2.217h17.862a2.217,2.217,0,0,1,2.217,2.217v15.395A2.217,2.217,0,0,1,197.048,209.461Z" transform="translate(-133.458 -147.596)" fill="#87e0ec"/><path d="M280.292,209.461H254.228a2.217,2.217,0,0,1-2.217-2.217V191.85a2.217,2.217,0,0,1,2.217-2.217h26.064a2.217,2.217,0,0,1,2.217,2.217v15.395A2.217,2.217,0,0,1,280.292,209.461Z" transform="translate(-191.864 -147.596)" fill="#afeaf2"/><path d="M221.884,184.93h-42.7a2.217,2.217,0,1,1,0-4.434h42.7a2.217,2.217,0,1,1,0,4.434Zm2.217-11.084a2.217,2.217,0,0,0-2.217-2.217h-42.7a2.217,2.217,0,1,0,0,4.434h42.7A2.217,2.217,0,0,0,224.1,173.845Zm-37.306-42a2.217,2.217,0,0,0-2.217-2.217h-5.394a2.217,2.217,0,1,0,0,4.434h5.394A2.217,2.217,0,0,0,186.8,131.849Z" transform="translate(-133.457 -100.896)" fill="#87e0ec"/><path d="M194.405,94.066H179.185a2.217,2.217,0,0,1,0-4.434h15.221a2.217,2.217,0,0,1,0,4.434Z" transform="translate(-133.457 -69.763)" fill="#2dd2e3"/><path d="M244.57,403.512H219.94a2.217,2.217,0,0,1,0-4.434h24.63a2.217,2.217,0,1,1,0,4.434Z" transform="translate(-165.177 -310.611)" fill="#4bcd5c"/><path d="M186.632,39.659h-7.448a2.217,2.217,0,0,1-2.217-2.217V33.39a2.217,2.217,0,0,1,2.217-2.217h7.448a2.217,2.217,0,0,1,2.217,2.217v4.052A2.217,2.217,0,0,1,186.632,39.659Z" transform="translate(-133.457 -24.263)" fill="#4bcd5c"/><path d="M218.8,39.659h-8.271a2.217,2.217,0,0,1-2.217-2.217V33.39a2.217,2.217,0,0,1,2.217-2.217H218.8a2.217,2.217,0,0,1,2.217,2.217v4.052A2.217,2.217,0,0,1,218.8,39.659Z" transform="translate(-157.856 -24.263)" fill="#74d579"/><path d="M329.693,78.875l-7.131.529a.738.738,0,0,0-.387.145l-5.728,4.282a.738.738,0,0,1-1.133-.332L305.3,56.718,295.277,83.5a.738.738,0,0,1-1.133.332l-5.728-4.282a.737.737,0,0,0-.387-.145l-7.131-.529a.738.738,0,0,1-.636-.994l17.294-46.227a.738.738,0,0,1,.949-.433l6.791,2.54,6.791-2.54a.738.738,0,0,1,.949.433l17.294,46.227A.738.738,0,0,1,329.693,78.875Z" transform="translate(-213.815 -24.264)" fill="#baed6a"/><path d="M321.39,80.136l-4.942,3.694a.738.738,0,0,1-1.133-.332L300.615,44.2,287.462,79.361l-6.563-.487a.738.738,0,0,1-.636-.994l17.294-46.227a.738.738,0,0,1,.949-.433l6.111,2.286-.335.9Z" transform="translate(-213.816 -24.263)" fill="#a3e72d"/><path d="M339.783,24.817,337.5,27.965a3.848,3.848,0,0,0-.735,2.262v3.891a3.848,3.848,0,0,1-2.659,3.66l-3.7,1.2a3.847,3.847,0,0,0-1.924,1.4l-2.287,3.148a3.848,3.848,0,0,1-4.3,1.4l-3.7-1.2a3.848,3.848,0,0,0-2.378,0l-3.7,1.2a3.848,3.848,0,0,1-4.3-1.4l-2.287-3.148a3.848,3.848,0,0,0-1.924-1.4l-3.7-1.2a3.848,3.848,0,0,1-2.659-3.66V30.227a3.847,3.847,0,0,0-.735-2.262l-2.287-3.148a3.849,3.849,0,0,1,0-4.524l2.287-3.148a3.848,3.848,0,0,0,.735-2.262V10.993a3.849,3.849,0,0,1,2.659-3.66l3.7-1.2a3.848,3.848,0,0,0,1.924-1.4l2.287-3.148a3.848,3.848,0,0,1,4.3-1.4l3.7,1.2a3.848,3.848,0,0,0,2.378,0l3.7-1.2a3.848,3.848,0,0,1,4.3,1.4l2.287,3.148a3.848,3.848,0,0,0,1.924,1.4l3.7,1.2a3.848,3.848,0,0,1,2.659,3.66v3.891a3.85,3.85,0,0,0,.735,2.262l2.287,3.148a3.848,3.848,0,0,1,0,4.524Z" transform="translate(-224.141)" fill="#00a86d"/><path d="M317.1,43.534a3.847,3.847,0,0,0-1.293.187l-3.7,1.2a3.848,3.848,0,0,1-4.3-1.4l-2.287-3.148a3.848,3.848,0,0,0-1.924-1.4l-3.7-1.2a3.848,3.848,0,0,1-2.659-3.66V30.227a3.847,3.847,0,0,0-.735-2.262l-2.287-3.148a3.848,3.848,0,0,1,0-4.524l2.287-3.148a3.848,3.848,0,0,0,.735-2.262V10.993a3.849,3.849,0,0,1,2.659-3.66l3.7-1.2a3.848,3.848,0,0,0,1.924-1.4l2.287-3.148a3.848,3.848,0,0,1,4.3-1.4l3.7,1.2a3.853,3.853,0,0,0,1.293.187l-.007.009-2.287,3.148a3.848,3.848,0,0,1-1.924,1.4l-3.7,1.2a3.848,3.848,0,0,0-2.659,3.66v3.891a3.848,3.848,0,0,1-.735,2.262L303.5,20.294a3.849,3.849,0,0,0,0,4.524l2.287,3.148a3.848,3.848,0,0,1,.735,2.262v3.891a3.848,3.848,0,0,0,2.659,3.66l3.7,1.2a3.849,3.849,0,0,1,1.924,1.4l2.287,3.148Z" transform="translate(-224.141)" fill="#00915d"/><path d="M362.7,50.2A14.683,14.683,0,1,1,348.02,35.515,14.683,14.683,0,0,1,362.7,50.2Z" transform="translate(-255.162 -27.643)" fill="#4bcd5c"/><path d="M371.156,90.458l-4.107,4.107a1.663,1.663,0,0,1-2.352,0l-7.217-7.217A1.663,1.663,0,0,1,359.832,85l6.041,6.041,2.931-2.931a1.663,1.663,0,0,1,2.352,2.351Z" transform="translate(-273.574 -65.776)" fill="#dff6bc"/><path d="M396.47,54.79,382.036,69.224a1.663,1.663,0,0,1-2.352,0l-2.949-2.949a1.663,1.663,0,1,1,2.351-2.351L380.86,65.7l13.259-13.259a1.663,1.663,0,0,1,2.352,2.351Z" transform="translate(-288.56 -40.435)" fill="#fff"/></g></g></svg>