<svg xmlns="http://www.w3.org/2000/svg" xmlns:xlink="http://www.w3.org/1999/xlink" width="399.09" height="667" viewBox="0 0 399.09 667"><defs><clipPath id="a"><rect width="399.09" height="667" fill="none"/></clipPath><clipPath id="b"><rect width="399.09" height="667.196" fill="none"/></clipPath><clipPath id="c"><rect width="24.668" height="24.771" fill="none"/></clipPath><clipPath id="d"><rect width="25.264" height="31.071" fill="none"/></clipPath><clipPath id="e"><rect width="109.335" height="134.622" fill="none"/></clipPath><clipPath id="f"><rect width="34.199" height="108.644" fill="none"/></clipPath><clipPath id="g"><rect width="10.379" height="65.539" fill="none"/></clipPath><clipPath id="h"><rect width="15.902" height="63.736" fill="none"/></clipPath><clipPath id="i"><rect width="20.518" height="23.39" fill="none"/></clipPath><clipPath id="j"><rect width="101.474" height="71.449" fill="none"/></clipPath><clipPath id="k"><rect width="233.195" height="348.885" fill="none"/></clipPath><clipPath id="l"><rect width="93.972" height="348.885" fill="none"/></clipPath><clipPath id="m"><rect width="118.233" height="15.563" fill="none"/></clipPath><clipPath id="n"><rect width="198.887" height="30.772" fill="none"/></clipPath></defs><g clip-path="url(#a)"><rect width="47.703" height="0.62" transform="translate(245.778 689.996)" fill="#ebebeb"/><g clip-path="url(#b)"><path d="M209.646,133.658c-.608,1.675-1.069,2.89-1.635,4.315s-1.111,2.681-1.7,4c-1.132,2.66-2.411,5.257-3.69,7.833a149.445,149.445,0,0,1-8.765,15.185,111.346,111.346,0,0,1-11.2,14.494,72.972,72.972,0,0,1-7.065,6.807c-1.28,1.089-2.685,2.1-4.089,3.162l-2.243,1.508-1.468.9c-.545.335-1.09.607-1.635.9a34.128,34.128,0,0,1-12.391,3.372,52.933,52.933,0,0,1-10.484-.167,88.851,88.851,0,0,1-17.926-4.189,142.661,142.661,0,0,1-30.737-15.039l6.478-13.761a273.673,273.673,0,0,0,29.753,6.534,78.494,78.494,0,0,0,13.775.964,25.828,25.828,0,0,0,5.535-.671,7.362,7.362,0,0,0,2.935-1.277v-.126l.21-.188,1.007-.88c.671-.649,1.363-1.278,2.1-2.094,1.363-1.446,2.725-3.058,4.067-4.776a114.757,114.757,0,0,0,7.611-11.562c2.37-4.189,4.675-8.482,6.814-12.923,1.091-2.094,2.1-4.461,3.145-6.7l1.51-3.352,3.989-9.2Z" transform="translate(1.198 1.356)" fill="#407bff"/><path d="M100.168,174.116,86.86,175.8V157.9s13.194,1.528,18.741,8.14Z" transform="translate(1.1 1.834)" fill="#ffb573"/><path d="M70.742,174.732l1.826-12.246L87.11,157.9l-.046,17.9Z" transform="translate(0.896 1.834)" fill="#ffb573"/><path d="M347.909,629.412a29.772,29.772,0,0,1,4.971-8.616s8.351-16.039,0-42.856l11.979-11.6c3.253-.512,6.679,1.331,9.3,3.318,1.814,2.307,3.146,2.905,4.643,5.428,4.97,7.647,15.882,25.177,15.882,25.177l-1.814,1.142a157.487,157.487,0,0,0-11.558-14.9c-4.325-4.394-3.853,3.8-1.989,10.7s-2.112,18.1-13.67,25.9c-13.4,9.138-19.388,12.143-17.747,6.307" transform="translate(4.403 6.578)" fill="#263238"/><path d="M368.976,591.087c.224,4.618,3.729,12.589-.1,18.871a22.4,22.4,0,0,1-16.057,10.825s6.538-12.489,2.288-33.867a86.891,86.891,0,0,0-2.288-8.988s10.465-8.542,15.41-9.908l2.983,7.027a64.779,64.779,0,0,1-2.063,14.1,5.256,5.256,0,0,0-.174,1.936" transform="translate(4.469 6.598)" fill="#ffb573"/><path d="M371.355,575.3a64.83,64.83,0,0,1-2.063,14.1,5.238,5.238,0,0,0-.174,1.937l-10.042,4.842-3.828-9.013-13.6-32.1,17.548-8.466,9.171,21.676Z" transform="translate(4.327 6.349)" fill="#ffb573"/><g transform="translate(345.979 552.963)" opacity="0.2" style="isolation:isolate"><g clip-path="url(#c)"><path d="M359.2,546.613l-17.551,8.448,6.92,16.323h.228a23.213,23.213,0,0,0,17.52-7.982Z" transform="translate(-341.651 -546.613)"/></g></g><path d="M212.536,625.592a30.019,30.019,0,0,1,8.849-4.544s15.683-9.012,23.115-36.1l16.653-4.2a12,12,0,0,1,6.511,6.9,64.979,64.979,0,0,1,.273,8.79c.15,9.162-.2,32.9-.2,32.9h-2.162a212.969,212.969,0,0,0-1.741-21.776c-1.267-6.033-5.293,1.093-7.456,7.921s-11.532,14.1-25.5,14.451c-16.33.347-22.966-.373-18.343-4.346" transform="translate(2.674 6.746)" fill="#263238"/><path d="M258.943,594.563a32.251,32.251,0,0,1-6.835,9.038c-3.23,2.706-3.827,13.632-11.483,17.381a22.6,22.6,0,0,1-19.362.471s11.822-6.8,19.8-26.354a23.053,23.053,0,0,0,1-14.263l-7.626-30.594,20.257-3.65,6.935,36.823c.3,5.289-.7,8.789-2.685,11.148" transform="translate(2.803 6.349)" fill="#ffb573"/><g transform="translate(235.044 541.536)" opacity="0.2" style="isolation:isolate"><g clip-path="url(#d)"><path d="M232.1,538.676l6.027,27.062,1.8.318a21.741,21.741,0,0,0,17.44-4.486l-4.739-26.252Z" transform="translate(-232.104 -535.317)"/></g></g><path d="M280.109,114.956q-.084-1.17-.274-2.329a25.408,25.408,0,0,0-29.205-20.92h-.441c-1.719.293-3.459.607-5.179.963a253.871,253.871,0,0,0-34.679,8.8c-1.93.607-3.9,1.34-5.83,2.1-2.621,1.026-5.22,2.073-7.694,3.121a25.377,25.377,0,0,0-14.677,29.972c3.529,13.1,8.256,34.074,24.011,61.8,3.626,6.381,4.773,19.6,7.963,27.531l76.362-19.332.127.146c-4.99-23.919-8.555-65.014-10.484-91.845" transform="translate(2.296 1.061)" fill="#407bff"/><g transform="translate(183.554 92.426)" opacity="0.8"><g clip-path="url(#e)"><path d="M280.109,114.956q-.084-1.17-.274-2.329a25.408,25.408,0,0,0-29.205-20.92h-.441c-1.719.293-3.459.607-5.179.963a253.871,253.871,0,0,0-34.679,8.8c-1.93.607-3.9,1.34-5.83,2.1-2.621,1.026-5.22,2.073-7.694,3.121a25.377,25.377,0,0,0-14.677,29.972c3.594,13.339,11.187,28.831,24.534,63.141,2.456,6.311,4.538,18.976,7.44,26.191l76.362-19.332.127.146c-4.99-23.919-8.555-65.014-10.484-91.845" transform="translate(-181.258 -91.365)" fill="#fff"/></g></g><path d="M213.784,224.623s-7,93.625-7.163,169.363C206.494,454.2,230.652,561.2,230.652,561.2a42.1,42.1,0,0,0,31.213-5.856c.641,4.463.14-81.361-5.911-139.228A81.54,81.54,0,0,1,257.4,390.1c17.528-79.636,41.309-153.366,17.712-181.439Z" transform="translate(2.617 2.424)" fill="#263238"/><g transform="translate(252.61 263.346)" opacity="0.3" style="isolation:isolate"><g clip-path="url(#f)"><path d="M252.722,279.99l30.927-19.668c-2.852,30.036-12.707,68.073-22.121,108.644-10.379-31.335-16.082-64.3-8.806-88.976" transform="translate(-249.45 -260.322)"/></g></g><path d="M227.456,226.351s24.789,75.211,41.914,147.595c8.453,52.218,71.931,193.014,71.931,193.014l9.647-2.341a25.462,25.462,0,0,0,12.075-6.811l3.14-3.164S351.132,483.476,335.615,436.6a219.357,219.357,0,0,1-10.935-58.585c-3.488-73.93-9.437-145.777-38.267-169.1Z" transform="translate(2.881 2.427)" fill="#263238"/><path d="M245.83,91.957s-3.711,90.484,22.392,206.562C301.77,294.9,322,284.591,322,284.591s-9.975-63.163-32.226-94.519c-4.654-22.538-3.816-71.1-6.793-88.668a14.167,14.167,0,0,0-12.748-11.687c-6.458-.545-15.368.691-24.405,2.241" transform="translate(3.111 1.041)" fill="#407bff"/><path d="M209.94,100.129s-2.348,42.917,32.876,201.746c-10.588,6.283-33.946,5.446-33.946,5.446s-2.2-53.379-.613-96.154c.77-20.8-14.408-23.137-24-45.612-5.452-26.307-3.985-47.99-.356-51.2,5.808-5.195,15.452-12.358,26.041-14.222" transform="translate(2.288 1.163)" fill="#407bff"/><g transform="translate(248.543 91.133)" opacity="0.7" style="isolation:isolate"><g clip-path="url(#g)"><path d="M245.434,91.721s.217,36.94,2.1,63.9c1.888-19.228,7.737-37.827,7.276-43.838a45.288,45.288,0,0,1-5.786-3.246,35.2,35.2,0,0,1,6.793-4.859c0-2.745,0-12.777-.462-13.594-5.347.733-9.917,1.634-9.917,1.634" transform="translate(-245.434 -90.087)"/></g></g><g transform="translate(202.595 100.957)" opacity="0.7" style="isolation:isolate"><g clip-path="url(#h)"><path d="M210.03,99.8s-.149,23.186,5.933,63.736c-6.772-16.755-15.264-32.653-14.865-39.083,2.977-2.745,5.577-5.74,5.577-5.74a19.874,19.874,0,0,0-6.562-2.262,127.258,127.258,0,0,1,.4-14.305c5.137-1.424,9.519-2.346,9.519-2.346" transform="translate(-200.061 -99.798)"/></g></g><path d="M280.308,95.114c4.215,4.587,8.659,9.425,13.084,14.138s8.869,9.383,13.376,13.8,9.08,8.734,13.587,12.567a78.316,78.316,0,0,0,6.583,5.048c1.028.712,1.992,1.3,2.769,1.738s1.32.608.985.608h-3.9a11.6,11.6,0,0,0,6.6-2.723,57.24,57.24,0,0,0,8.954-8.253,131.534,131.534,0,0,0,8.617-10.66c2.789-3.729,5.535-7.813,8.093-11.562l14.09,5.655a109.939,109.939,0,0,1-4.906,15.332,107.78,107.78,0,0,1-7.171,14.661A69.155,69.155,0,0,1,350.3,159.583a46.426,46.426,0,0,1-8.2,6.41,32.986,32.986,0,0,1-11.469,4.4l-1.677.293-2.223-.293a33.832,33.832,0,0,1-8.533-2.367,56.219,56.219,0,0,1-6.06-2.953,92.378,92.378,0,0,1-9.813-6.41,193.153,193.153,0,0,1-16.543-13.677c-5.179-4.692-10.085-9.593-14.866-14.515s-9.33-9.928-13.88-15.395Z" transform="translate(3.256 1.105)" fill="#407bff"/><path d="M360.053,119.23a26.747,26.747,0,0,1-3.082-18.446l22.321,2.832-7.275,12.613Z" transform="translate(4.515 1.171)" fill="#ffb573"/><path d="M379.286,103.764l-22.32-2.831,9.645-12.917,16.248,6.128Z" transform="translate(4.521 1.022)" fill="#ffb573"/><path d="M207.845,106.247c-1.406,5.107-3.34,14.243-.947,17.724.166-1.995,3.824-8.745,6.929-5.942a18.013,18.013,0,0,1,2.728,2.889l5.979,8.427c.869,1.224,1.963,2.574,3.464,2.6,1.785.032,2.966-1.782,3.784-3.368q2.535-4.913,5.071-9.825c1.172-2.271,2.434-4.644,4.58-6.035s10.269.844,11.692,2.967c-.08-5.847.658-18.3,0-21.679s-7.721-7.652-11.13-8.15c-2.267-.331-4.508.607-6.593,1.555-9.228,4.192-22.553,7.921-25.558,18.836" transform="translate(2.606 0.997)" fill="#fff"/><path d="M233.823,70.392c1.614,9.53,4.781,19.081,10.714,22.517,0,0,6.489,7.289-12.86,23.012-3.18,2.828-7.987,5.891-11.167,3.062-6.655-6.12-7.023-12.049-6.252-15.815a11.159,11.159,0,0,1,3.158-5.383c4.226-4.369,1.143-9.045-3.847-23.519l9.037-6.283a6.292,6.292,0,0,1,11.217,2.409" transform="translate(2.705 0.76)" fill="#ffb573"/><g transform="translate(215.802 66.11)" opacity="0.2" style="isolation:isolate"><g clip-path="url(#i)"><path d="M222.633,67.9a6.291,6.291,0,0,1,10.986,1.634,40.534,40.534,0,0,1-15.054,19.207c-.562-3.84-3.756-7.576-5.35-11.1-.525-1.162.992-2.3.361-3.414Z" transform="translate(-213.103 -65.351)"/></g></g><path d="M219.726,3.878c-4.7-3.81-11.537-4.184-17.226-2.131s-10.387,6.2-14.378,10.745a62.641,62.641,0,0,0-14.516,27.814c-2.224,10.334-1.235,21.469,3.548,30.9,2.3,4.525,5.554,8.724,9.991,11.192,6.967,3.874,15.963,2.808,22.8-1.282s11.769-10.795,15.325-17.925c4.64-9.31,11.946-32.149,2.683-48.612-4.411-7.839-8.23-10.7-8.23-10.7" transform="translate(2.185 0.006)" fill="#263238"/><path d="M236.787,68.844c-8.218,3.892-12.6,7.23-14.66,5.683-2.639-1.984,4.162-12.686,4.558-15.961a24.489,24.489,0,0,1,10.367-17.408c5.817-3.846,13.709-4.6,19.906-1.4a14.4,14.4,0,0,1,7.537,9.141c.94,4.071-2.463,6.9-5.278,9.483-6.171,5.662-14.848,6.875-22.43,10.465" transform="translate(2.806 0.439)" fill="#263238"/><path d="M238.93,35.486c.685,19.372,1.4,27.551-7.2,38.59-12.94,16.585-36.4,13.7-42.841-4.982-5.744-16.8-5.924-45.65,11.849-55.58s37.49,2.576,38.192,21.972" transform="translate(2.349 0.116)" fill="#ffb573"/><path d="M231.367,36.1c-3.8,2.194-2.124,20.357,7.16,19.083s5.311-26.27-7.16-19.083" transform="translate(2.907 0.404)" fill="#263238"/><path d="M244.361,52.457a14.517,14.517,0,0,1-5.43,9.417c-3.945,3.02-7.628-.058-7.966-4.77-.3-4.3,1.364-10.881,6.013-12.058s8,2.842,7.382,7.411" transform="translate(2.925 0.521)" fill="#ffb573"/><path d="M217.105,2c-26.1,6.268-23.053,23.667.421,33.376,13.036,5.343,30.744,18.454,21.527,41.845C236.12,84.666,277.483,55,264.336,39.981,239.049,11.085,237.007-6.083,217.105,2" transform="translate(2.517 0)" fill="#263238"/><path d="M207.5,44.8c.157,1.557-.505,2.931-1.546,3.05s-1.945-1.057-2.1-2.614.509-2.953,1.547-3.05,1.948,1.036,2.1,2.614" transform="translate(2.582 0.49)" fill="#263238"/><path d="M190.3,46.859c.157,1.557-.505,2.931-1.546,3.05s-1.949-1.037-2.1-2.614.505-2.932,1.547-3.05,1.948,1.036,2.1,2.614" transform="translate(2.364 0.514)" fill="#263238"/><path d="M188.677,44.289l-3.8-.653s2.192,2.714,3.8.653" transform="translate(2.342 0.507)" fill="#263238"/><path d="M196.275,48.381a48.03,48.03,0,0,1-4.217,12.133,7.262,7.262,0,0,0,6.215-.015Z" transform="translate(2.433 0.562)" fill="#ed893e"/><path d="M212.492,37.813a.707.707,0,0,1-.405-.24,7.07,7.07,0,0,0-5.976-2.366.9.9,0,0,1-1.059-.708l-.005-.027a.942.942,0,0,1,.761-1.08,8.745,8.745,0,0,1,7.73,2.923.942.942,0,0,1-.055,1.308.9.9,0,0,1-.99.191" transform="translate(2.597 0.387)" fill="#263238"/><path d="M182.711,39.411l-.1-.145a.922.922,0,0,1,.22-1.281,8.9,8.9,0,0,1,8.231-1.22.964.964,0,0,1,.47,1.229.945.945,0,0,1-1.192.5,7.094,7.094,0,0,0-6.555,1,.9.9,0,0,1-1.071-.079" transform="translate(2.311 0.421)" fill="#263238"/><path d="M205.864,42.2l-3.8-.654s2.188,2.735,3.8.654" transform="translate(2.559 0.483)" fill="#263238"/><path d="M198.138,64.912s4.841-2.164,19.053-4.536c-.771,5.108-3.171,9.55-10.475,10.707s-8.578-6.171-8.578-6.171" transform="translate(2.51 0.701)" fill="#263238"/><path d="M209.358,66.656a12.055,12.055,0,0,0-7.517,3.653,7.23,7.23,0,0,0,4.821.682,11.957,11.957,0,0,0,7.5-3.648,7.179,7.179,0,0,0-4.8-.687" transform="translate(2.557 0.773)" fill="#ff5652"/><path d="M198.762,64.662a3.206,3.206,0,0,0,2.655,2.027,66.959,66.959,0,0,0,12.357-3.31,3.939,3.939,0,0,0,2.775-2.9,106.032,106.032,0,0,0-17.786,4.183" transform="translate(2.518 0.703)" fill="#fff"/><path d="M115.872,277.033H41.886a12.891,12.891,0,0,1-12.6-11.572l-4.231-48.306a10.44,10.44,0,0,1,10.571-11.572h73.986a12.892,12.892,0,0,1,12.6,11.572l4.23,48.306a10.438,10.438,0,0,1-10.57,11.572" transform="translate(0.317 2.388)" fill="#407bff"/><path d="M113.269,277.033H39.283a12.891,12.891,0,0,1-12.6-11.572l-4.231-48.306a10.44,10.44,0,0,1,10.571-11.572h73.986a12.892,12.892,0,0,1,12.6,11.572l4.23,48.306a10.438,10.438,0,0,1-10.57,11.572" transform="translate(0.284 2.388)" fill="#263238"/><g transform="translate(22.694 207.972)" opacity="0.7" style="isolation:isolate"><g clip-path="url(#j)"><path d="M113.269,277.033H39.283a12.891,12.891,0,0,1-12.6-11.572l-4.231-48.306a10.44,10.44,0,0,1,10.571-11.572h73.986a12.892,12.892,0,0,1,12.6,11.572l4.23,48.306a10.438,10.438,0,0,1-10.57,11.572" transform="translate(-22.41 -205.584)" fill="#fff"/></g></g><path d="M77.91,244.295a6.959,6.959,0,0,1-7.047,7.715,8.594,8.594,0,0,1-8.4-7.715,6.959,6.959,0,0,1,7.047-7.715,8.593,8.593,0,0,1,8.4,7.715" transform="translate(0.791 2.748)" fill="#fff"/><path d="M131.482,278.363h-4.193v-72.4A141.607,141.607,0,0,1,160,115.556l20.33-24.428,3.224,2.677-20.33,24.429a137.416,137.416,0,0,0-31.741,87.732Z" transform="translate(1.612 1.059)" fill="#263238"/><path d="M185.077,95.89a8.089,8.089,0,1,1-8.088-8.08,8.085,8.085,0,0,1,8.088,8.08" transform="translate(2.139 1.02)" fill="#263238"/><path d="M14,283.9h233.2L229.046,632.79H32.141Z" transform="translate(0.177 3.298)" fill="#407bff"/><g transform="translate(14.174 287.203)" opacity="0.5"><g clip-path="url(#k)"><path d="M14,283.9h233.2L229.046,632.79H32.141Z" transform="translate(-13.996 -283.905)" fill="#fff"/></g></g><g transform="translate(153.397 287.203)" opacity="0.1" style="isolation:isolate"><g clip-path="url(#l)"><path d="M155.649,283.9h89.8L227.3,632.79H151.478Z" transform="translate(-151.478 -283.905)"/></g></g><path d="M51.555,610.345h80.8l.321-296.446H39.391Z" transform="translate(0.499 3.646)" fill="#407bff"/><path d="M253.764,284.084H7.779a7.781,7.781,0,0,1,0-15.563H253.764a7.781,7.781,0,1,1,0,15.563" transform="translate(0 3.119)" fill="#407bff"/><g transform="translate(143.331 271.64)" opacity="0.3" style="isolation:isolate"><g clip-path="url(#m)"><path d="M251.971,284.084H149.338a7.781,7.781,0,1,1,0-15.563H251.971a7.781,7.781,0,1,1,0,15.563" transform="translate(-141.538 -268.521)"/></g></g><rect width="383.64" height="31.107" transform="translate(0 636.088)" fill="#407bff"/><g transform="translate(184.753 636.424)" opacity="0.3" style="isolation:isolate"><g clip-path="url(#n)"><rect width="198.887" height="30.772" transform="translate(0 0)"/></g></g></g></g></svg>