<svg xmlns="http://www.w3.org/2000/svg" xmlns:xlink="http://www.w3.org/1999/xlink" width="400" height="355.361" viewBox="0 0 400 355.361"><defs><clipPath id="a"><rect width="400" height="355.361" fill="none"/></clipPath><clipPath id="c"><rect width="117.898" height="117.576" fill="none"/></clipPath></defs><g clip-path="url(#a)"><g clip-path="url(#a)"><path d="M129.793,311.379c23.928,18.407,60.2,17.57,87.249.105,11.172-7.213,21.966-15.509,34.666-19.457,19.872-6.176,38.688,3.027,57.956-.275,16.362-2.805,31.127-13.557,39.472-27.806,10.858-18.542,12.507-41.638,8.3-62.414-2.457-12.119-13.07-27.671-8.717-62.441,1.356-10.829,4.54-19.269,7.393-29.564,6.092-21.978-3.26-46.991-15.726-65.118C326.3,23.934,304.107,13.337,279.2,16.592c-19.977,2.612-38.193,12.829-54.409,24.784-12.132,8.943-24.079,19.472-38.734,24.035-15.936,4.962-30.168-3.53-44.429-9.793C102.152,38.28,56.6,59.183,37.84,96.7c-7.869,15.737-9.292,47.635.654,62.792C53.867,182.914,83.117,194.013,94.18,220.8c8.187,19.822,7.989,41.836,15.158,61.958a61.515,61.515,0,0,0,20.455,28.625" transform="translate(-3.638 -1.85)" fill="#fcf6e6"/><path d="M216.194,11.019a8.711,8.711,0,0,0-4.973,1.551,13.125,13.125,0,0,0-26.087-1.431A8.749,8.749,0,0,0,186.6,28.515l29.6,0a8.75,8.75,0,1,0,0-17.5" transform="translate(-20.552 0)" fill="#fcf6e6"/><path d="M437.362,152.859a8.711,8.711,0,0,0-4.973,1.551A13.125,13.125,0,0,0,406.3,152.98a8.749,8.749,0,0,0,1.462,17.376l29.6,0a8.75,8.75,0,1,0,0-17.5" transform="translate(-46.11 -16.391)" fill="#fcf6e6"/><path d="M55.895,251.063a12.7,12.7,0,0,0-7.25,2.262,19.13,19.13,0,0,0-38.023-2.086,12.753,12.753,0,0,0,2.131,25.327l43.139,0a12.754,12.754,0,1,0,0-25.507" transform="translate(0 -27.157)" fill="#fcf6e6"/><path d="M173.28,94.469c2.1,5.36,10.27,14.078,16.528,11.085a15.379,15.379,0,0,0,7.394-8.234c.367-1.159.851-3.882.045-4.972-.935-1.266-2.88.042-4.136.388a14.715,14.715,0,0,1-6.617.346c-2.015-.379-5.69-1.559-6.606-3.609.811-.849,2.177-.049,3.125.176,1.074.254,2.154.22,3.247.384a16.192,16.192,0,0,0,5.875.047,9.555,9.555,0,0,0,7.062-8.065c.228-1.818.18-4.848-1.035-6.335-2.406,1.07-4.666,2.317-7.106,3.272-1.891.74-6.053,2.323-7.976.8-2.431-1.923,5.332-3.342,6.472-3.749,2.7-.965,6.671-2.591,7.144-5.748.394-2.64-1.421-6.168-2.474-8.52a15.9,15.9,0,0,0-1.937-3.5c-1.162-1.42-1.952-.5-2.751.907-1.575,2.778-1.718,7.173-5.258,8.572-2.369.937-2.236-1.413-1.212-2.9a27.666,27.666,0,0,1,2.94-3.3c2.629-2.756,2.568-6.161.61-9.28a42.921,42.921,0,0,0-6.415-7.747c1.934,3.683-3.387,5.619-5.163,7.708-2.135,2.513-1.845,5.293-1.244,8.282a14.434,14.434,0,0,1-2.2-8.221c-1.481,1.839-2.911,3.769-4.4,5.625s-4.057,3.967-3.37,6.676c.625,2.462,2.975,4.386,5.2,5.253.731.284,2.886.317,3.142.838.808,1.642-1.773,1.731-2.63,1.613a6.349,6.349,0,0,1-3.772-1.952c-.463-.484-1.368-2.5-2-2.51-1.312-.018-3.329,7.477-3.5,8.407-.408,2.17-.764,5.553,1.845,6.316,2.039.6,5.01-.44,6.854.389,3.048,1.37-2.9,3.173-4.2,3.134-2.765-.083-4.262-1.2-5.925-3.24-1.165,1.182-1.129,4.658-1.294,6.242a28.435,28.435,0,0,0-.372,5.64c.563,5.127,7.941,4.534,11.286,3.005,1.673-.764,3.687-1.556,4.514-3.218" transform="translate(-18.157 -5.14)" fill="#a6d2ac"/><path d="M150.161,132.4c5.513-1.4,15.167-8.119,13.163-14.271a13.906,13.906,0,0,0-6.933-7.759c-1.074-.463-3.65-1.2-4.826-.56-1.366.741-.377,2.692-.221,3.9a13.358,13.358,0,0,1-.621,6.212c-.659,1.841-2.338,5.148-4.463,5.79-.708-.846.268-2.037.623-2.9.4-.975.526-1.986.843-2.989a14.824,14.824,0,0,0,.9-5.479c-.261-3.591-3.257-6.6-6.817-7.431-1.735-.4-4.687-.673-6.307.306.692,2.356,1.577,4.6,2.152,6.973.446,1.842,1.382,5.892-.373,7.528-2.22,2.069-2.476-5.325-2.708-6.432-.547-2.618-1.552-6.5-4.553-7.266-2.509-.644-6.2.684-8.637,1.421a16.627,16.627,0,0,0-3.685,1.443c-1.548.937-.77,1.77.483,2.662,2.472,1.759,6.723,2.351,7.571,5.8.568,2.308-1.7,1.94-3,.828a24.955,24.955,0,0,1-2.781-3.087c-2.3-2.741-5.617-3.039-8.931-1.537a44.611,44.611,0,0,0-8.457,5.181c3.86-1.421,4.971,3.746,6.745,5.621,2.132,2.255,4.878,2.274,7.869,2.024a14.979,14.979,0,0,1-8.308,1.2c1.574,1.573,3.243,3.109,4.831,4.693s3.269,4.2,6,3.84a8.708,8.708,0,0,0,5.858-4.31c.382-.653.725-2.66,1.27-2.844,1.713-.584,1.425,1.834,1.188,2.623a6.277,6.277,0,0,1-2.444,3.317c-.537.382-2.629,1.016-2.729,1.608-.207,1.221,6.785,3.886,7.665,4.145,2.05.607,5.286,1.291,6.405-1.064.874-1.841.3-4.722,1.369-6.357,1.772-2.7,2.665,3.037,2.439,4.244-.48,2.573-1.786,3.854-4,5.193.979,1.21,4.364,1.538,5.88,1.857a28.438,28.438,0,0,0,5.428.935c5.063.008,5.553-6.939,4.553-10.221-.5-1.642-.98-3.6-2.476-4.548" transform="translate(-11.854 -12.313)" fill="#a6d2ac"/><path d="M163.277,107.548c3.447,1.046,7.842,2.415,11.212,3.647,4.39,1.606,6.644.1,7.546-4.415,1.114-5.573-1.032-12.732-3.373-17.814-.828-1.8-1.143-2.027-3.009-.826-1.378.887-2.52,1.913-3.975,2.709-2.811,1.537-5.368,2.634-8.6,2.539-5.093-.149-.954-3.237,1.5-3.86a27.225,27.225,0,0,0,8.244-3.505c4.324-2.842-11.518-12.573-15.36-12.988-.148,2.425-3.939,7.683-6.752,7.757-2.476.066-.884-1.682.111-2.693a10.872,10.872,0,0,0,2.888-3.656c2.345-6.241-14.048-5.005-17.342-4.631-4.333.492-6.088-1.111-8.463-4.368-1.535,4.472-3.726,10.956-1.082,15.257,1.282,2.085,3.885,2.851,6.006,3.745,1.461.616,5.709,3.008,1.679,2.907-2.813-.07-5.178-2.231-8.059-2.229-.629,1.986-.6,7.385,1.009,8.923,1.931,1.841,6.617-.338,9,.046-1.58,3.274-6.143,2.068-8.957,2.476-.149,4.225,1.19,11.693,4.677,14.743,5.085,4.445,8.726-5.3,9.2-7.1.353-1.329,1.107-3.561,1.791-1.081.6,2.176-1.8,7.1-3,8.974-.585.914-2.9,2.552-2.909,3.657-.009,1.26,16.053,11.384,21.911,9.818,6.086-1.627,6.287-13.4,4.1-18.028" transform="translate(-14.513 -7.563)" fill="#004f56"/><path d="M189.686,54.463c-2.394,3.964-5.274,7.459-7.037,11.792a98.578,98.578,0,0,0-4.216,12.857c-1.017,4.014-1.831,8.069-2.866,12.082-1.21,4.684-1.137,9.184-1.586,13.945-.072.763-1.266.722-1.193-.044.407-4.316.256-8.514,1.263-12.767,1.07-4.516,2.1-9.069,3.241-13.566A97.405,97.405,0,0,1,181.718,65.4c1.755-4.222,4.615-7.689,6.961-11.573.4-.658,1.4-.018,1.007.64" transform="translate(-19.967 -6.188)" fill="#488288"/><path d="M190.685,54.6a3.53,3.53,0,0,1,2.9-1.673c1.2.114,1.047,1.238.4,1.967a8.579,8.579,0,0,1-2.774,1.633c-.976.488-1.75,1.383-2.759,1.719a7.777,7.777,0,0,1,1.42-2.313c.506-.647.85-1.405,1.338-2.048" transform="translate(-21.778 -6.116)" fill="#488288"/><path d="M189.786,56.055c.947-1.46,2.978-2.792,2.912-4.757-.043-1.286-.83-1.876-1.96-1.149a3.191,3.191,0,0,0-1.191,2.534,20.559,20.559,0,0,0-.078,3.87" transform="translate(-21.888 -5.759)" fill="#488288"/><path d="M186.329,60.013c-.687-1.869-1.612-4.2-.855-6.23.471-1.263,1.5-.292,1.763.509a9.243,9.243,0,0,1-.552,5.871Z" transform="translate(-21.401 -6.145)" fill="#488288"/><path d="M183.594,64.393c-1.181-2.125-2.735-4.77-2.2-7.357.332-1.612,1.756-.634,2.223.284,1.066,2.094.938,4.957.437,7.187Z" transform="translate(-20.949 -6.492)" fill="#488288"/><path d="M179.24,75.849c-1.534-1.887-3.525-4.219-3.453-6.859.044-1.646,1.618-.932,2.238-.109,1.415,1.876,1.789,4.718,1.686,7Z" transform="translate(-20.314 -7.858)" fill="#488288"/><path d="M176.292,85.993c-2.34-1.668-5.344-3.7-6.09-6.731-.466-1.89,1.55-1.57,2.516-.828,2.2,1.694,3.521,4.814,4.121,7.448Z" transform="translate(-19.661 -8.997)" fill="#488288"/><path d="M180.592,71.479c-1.017-2.61-2.381-5.872-1.366-8.7.632-1.763,2.108-.406,2.5.715.892,2.554.3,5.766-.626,8.2Z" transform="translate(-20.67 -7.157)" fill="#488288"/><path d="M187.457,61.126c1.984-.171,4.49-.325,6-1.871.944-.963-.372-1.482-1.21-1.38a9.244,9.244,0,0,0-5.08,2.992Z" transform="translate(-21.629 -6.687)" fill="#488288"/><path d="M181.167,71c2.109-.826,4.795-1.8,5.947-3.977.718-1.355-.884-1.5-1.764-1.115a10.516,10.516,0,0,0-4.579,4.9Z" transform="translate(-20.89 -7.595)" fill="#488288"/><path d="M180.015,78.672c2.262-.886,5.14-1.933,6.377-4.264.77-1.453-.949-1.606-1.893-1.2-2.154.935-3.876,3.221-4.91,5.256Z" transform="translate(-20.754 -8.438)" fill="#488288"/><path d="M178.086,85.5c2.938-1.283,6.678-2.806,8.335-6.052,1.033-2.023-1.177-2.185-2.4-1.595-2.8,1.348-5.085,4.546-6.472,7.379Z" transform="translate(-20.517 -8.962)" fill="#488288"/><path d="M177.909,80.754c-1.333-.855-2.765-1.393-3.8-2.642a5.451,5.451,0,0,1-1.116-3.855,2.617,2.617,0,0,1,.474-1.821c.676-.659.976.375,1.209.966a37.813,37.813,0,0,0,1.7,3.7c.347.658.652,1.285.929,1.951a9.712,9.712,0,0,1,.777,1.529" transform="translate(-19.99 -8.346)" fill="#488288"/><path d="M183.884,83.99c-1.364,1.078-5.475,4.93-7.167,6.267-.149.613-.311,1.224-.477,1.841,3.305-1.472,8.237-4.568,9.227-5.792.427-.528,1.164-1.82.939-2.5-.408-1.228-1.927-.284-2.523.186" transform="translate(-20.367 -9.614)" fill="#488288"/><path d="M184.833,95.164c-1.936.907-7.94,4.363-10.34,5.488-.351.692-.717,1.377-1.088,2.069,4.369-.832,11.144-3.153,12.673-4.34.66-.511,1.905-1.852,1.827-2.73-.143-1.585-2.227-.882-3.073-.486" transform="translate(-20.039 -10.939)" fill="#488288"/><path d="M174.629,93.506c-.792-.57-4.379-1.313-6.673-5.988a2.419,2.419,0,0,1-.258-2.269c.611-.963,1.407-.06,1.894.524.961,1.153,4.288,5.783,5.263,6.825" transform="translate(-19.356 -9.803)" fill="#488288"/><path d="M174.727,97.65c1.018-.4,2.249-.525,3.327-.914,1.155-.416,6.964-3.5,8.329-5.086.593-.686,2.006-1.693,1.489-2.723-.5-1-1.967-.723-2.819-.423-1.978.7-9.025,6.965-10.612,8.824" transform="translate(-20.159 -10.196)" fill="#488288"/><path d="M173.038,98.7c-4.086-1.267-9.283-6.408-9.255-7.356.06-2.057,2.878-1.1,3.872-.338,2.23,1.7,5.6,7.15,5.3,7.5" transform="translate(-18.927 -10.412)" fill="#488288"/><path d="M114.969,113.674c4.78-.268,9.365-1.207,14.176-.721a101.819,101.819,0,0,1,13.783,2.371c4.16,1.013,8.257,2.232,12.424,3.228,4.864,1.162,8.939,3.406,13.5,5.3.732.3,1.272-.807.537-1.111-4.138-1.718-7.9-3.887-12.272-5.025-4.643-1.208-9.3-2.469-13.96-3.6a100.672,100.672,0,0,0-14.351-2.425c-4.706-.441-9.257.494-13.939.757a.617.617,0,0,0,.1,1.23" transform="translate(-13.211 -12.893)" fill="#488288"/><path d="M115.318,113.183a3.647,3.647,0,0,0-2.93,1.837c-.477,1.152.624,1.556,1.6,1.319a8.867,8.867,0,0,0,2.834-1.744c.918-.655,2.11-.928,2.905-1.686a8.054,8.054,0,0,0-2.8.177c-.837.149-1.695.1-2.519.231" transform="translate(-12.974 -13.039)" fill="#488288"/><path d="M117.261,112.878c-1.792.159-3.991,1.369-5.754.358-1.153-.661-1.312-1.665-.1-2.346a3.3,3.3,0,0,1,2.891.138,21.279,21.279,0,0,1,3.572,1.8" transform="translate(-12.777 -12.782)" fill="#488288"/><path d="M122.637,111.565c-1.374-1.532-3.059-3.507-5.277-3.8-1.382-.18-.993,1.229-.387,1.857a9.552,9.552,0,0,0,5.629,2.336Z" transform="translate(-13.454 -12.452)" fill="#488288"/><path d="M127.96,111.173c-1.37-2.107-3.033-4.806-5.654-5.572-1.633-.477-1.429,1.3-.816,2.168,1.4,1.987,4.075,3.256,6.354,3.877Z" transform="translate(-13.987 -12.194)" fill="#488288"/><path d="M140.535,112.721c-.982-2.314-2.147-5.262-4.594-6.473-1.525-.755-1.634,1.027-1.182,1.992,1.029,2.2,3.443,3.917,5.578,4.927Z" transform="translate(-15.546 -12.257)" fill="#488288"/><path d="M151.193,114.938c-.392-2.945-.793-6.67-3.2-8.821-1.5-1.339-2.185.657-1.973,1.9.48,2.831,2.692,5.546,4.809,7.368Z" transform="translate(-16.87 -12.212)" fill="#488288"/><path d="M135.863,111.9c-1.892-2.192-4.212-5.017-7.286-5.459-1.916-.275-1.39,1.729-.555,2.628,1.9,2.05,5.124,3.061,7.789,3.394Z" transform="translate(-14.707 -12.297)" fill="#488288"/><path d="M122.808,113.252c-1.116,1.729-2.47,3.944-4.614,4.579-1.336.4-1.174-1.058-.675-1.773a9.56,9.56,0,0,1,5.192-3.193Z" transform="translate(-13.539 -13.043)" fill="#488288"/><path d="M134.862,112.416c-1.776,1.527-3.967,3.507-6.51,3.508-1.586,0-.94-1.533-.165-2.152,1.768-1.412,4.493-1.848,6.693-1.81Z" transform="translate(-14.72 -12.938)" fill="#488288"/><path d="M142.4,115.1c-1.9,1.637-4.253,3.76-6.981,3.761-1.7,0-1.007-1.643-.176-2.308,1.9-1.514,4.818-1.981,7.177-1.94Z" transform="translate(-15.529 -13.245)" fill="#488288"/><path d="M149.443,116.781c-2.595,2.063-5.795,4.741-9.562,4.685-2.347-.036-1.427-2.133-.293-2.969,2.587-1.906,6.613-2.445,9.872-2.34Z" transform="translate(-15.996 -13.422)" fill="#488288"/><path d="M145.664,113.905c-.137-1.631.065-3.2-.576-4.748a5.63,5.63,0,0,0-2.981-2.885,2.7,2.7,0,0,0-1.893-.448c-.928.3-.129,1.072.3,1.572a39.02,39.02,0,0,1,2.558,3.348c.434.636.859,1.218,1.334,1.793.312.38.7,1.243,1.021,1.45" transform="translate(-16.153 -12.222)" fill="#488288"/><path d="M145.182,121.367c1.645-.724,7.152-2.615,9.193-3.513.631.16,1.268.308,1.911.455-2.943,2.307-8.159,5.313-9.755,5.625-.689.134-2.227.182-2.739-.353-.925-.967.672-1.9,1.39-2.215" transform="translate(-16.584 -13.619)" fill="#488288"/><path d="M154.668,127.646c1.765-1.329,7.827-5.141,10.016-6.789.8.015,1.605.012,2.416.007-2.875,3.589-8.273,8.654-10.1,9.476-.786.356-2.614.845-3.378.348-1.379-.9.272-2.461,1.042-3.042" transform="translate(-17.692 -13.966)" fill="#488288"/><path d="M158.9,117.066c-.137-1,.919-4.634-2.239-8.993-.448-.618-1.1-1.4-1.948-1.334-1.175.092-.736,1.257-.438,1.984.589,1.435,3.208,6.715,3.688,8.111" transform="translate(-17.789 -12.334)" fill="#488288"/><path d="M161.9,119.686c-.861.735-1.568,1.8-2.445,2.6-.939.854-6.569,4.666-8.675,5.147-.915.209-2.517,1.012-3.209.042-.668-.937.292-2.146.978-2.779,1.593-1.469,10.729-4.873,13.195-5.423" transform="translate(-17.028 -13.783)" fill="#488288"/><path d="M164.326,118.129c.82-4.346-1.36-11.58-2.24-12.013-1.909-.94-2.394,2.1-2.182,3.374.474,2.859,3.822,8.572,4.286,8.466" transform="translate(-18.473 -12.242)" fill="#488288"/><path d="M285.289,254.9c-2.1-5.36-10.27-14.078-16.527-11.085a15.379,15.379,0,0,0-7.394,8.234c-.367,1.159-.85,3.882-.045,4.972.935,1.266,2.88-.042,4.136-.388a14.728,14.728,0,0,1,6.617-.347c2.016.379,5.69,1.56,6.606,3.609-.811.849-2.177.049-3.125-.176-1.073-.254-2.154-.22-3.247-.384a16.192,16.192,0,0,0-5.875-.047,9.553,9.553,0,0,0-7.061,8.065c-.229,1.818-.18,4.848,1.034,6.334,2.406-1.069,4.666-2.316,7.106-3.271,1.891-.74,6.053-2.323,7.976-.8,2.431,1.922-5.332,3.342-6.472,3.749-2.7.965-6.671,2.591-7.144,5.748-.394,2.64,1.421,6.168,2.474,8.52a15.9,15.9,0,0,0,1.937,3.5c1.162,1.42,1.952.5,2.751-.906,1.575-2.778,1.718-7.173,5.258-8.572,2.369-.937,2.236,1.413,1.212,2.9a27.663,27.663,0,0,1-2.94,3.3c-2.629,2.756-2.568,6.161-.61,9.28a42.921,42.921,0,0,0,6.415,7.747c-1.933-3.683,3.387-5.619,5.162-7.708,2.136-2.513,1.846-5.293,1.244-8.282a14.434,14.434,0,0,1,2.2,8.221c1.481-1.839,2.911-3.769,4.4-5.625s4.057-3.967,3.37-6.676c-.625-2.462-2.975-4.386-5.2-5.253-.731-.284-2.886-.317-3.142-.839-.808-1.642,1.773-1.73,2.63-1.612a6.349,6.349,0,0,1,3.772,1.952c.464.484,1.368,2.5,2,2.51,1.312.018,3.329-7.477,3.5-8.408.408-2.17.764-5.552-1.845-6.316-2.039-.6-5.01.44-6.854-.389-3.048-1.37,2.9-3.173,4.2-3.134,2.766.083,4.262,1.2,5.925,3.239,1.165-1.181,1.129-4.658,1.294-6.242a28.425,28.425,0,0,0,.372-5.639c-.563-5.127-7.941-4.534-11.286-3.005-1.672.764-3.687,1.556-4.513,3.218" transform="translate(-29.961 -28.105)" fill="#a6d2ac"/><path d="M305.948,219.68c-5.513,1.4-15.167,8.119-13.163,14.271a13.909,13.909,0,0,0,6.933,7.759c1.074.463,3.65,1.2,4.826.56,1.366-.741.377-2.692.221-3.9a13.353,13.353,0,0,1,.621-6.211c.659-1.842,2.338-5.149,4.462-5.79.708.846-.267,2.037-.622,2.9-.4.975-.526,1.986-.843,2.989a14.824,14.824,0,0,0-.9,5.479c.261,3.591,3.257,6.6,6.817,7.431,1.735.4,4.687.673,6.307-.306-.692-2.356-1.577-4.6-2.152-6.973-.446-1.842-1.382-5.892.373-7.528,2.22-2.069,2.476,5.325,2.708,6.432.547,2.617,1.552,6.5,4.553,7.266,2.509.644,6.2-.684,8.637-1.421a16.627,16.627,0,0,0,3.685-1.443c1.549-.937.77-1.77-.483-2.662-2.472-1.759-6.723-2.35-7.571-5.8-.568-2.308,1.7-1.94,3-.828a24.894,24.894,0,0,1,2.781,3.087c2.3,2.741,5.617,3.039,8.931,1.537a44.582,44.582,0,0,0,8.457-5.181c-3.859,1.421-4.971-3.746-6.745-5.621-2.132-2.255-4.878-2.274-7.869-2.024a14.979,14.979,0,0,1,8.308-1.2c-1.573-1.573-3.242-3.109-4.831-4.693s-3.269-4.2-6-3.84a8.709,8.709,0,0,0-5.858,4.309c-.382.653-.725,2.66-1.27,2.846-1.713.583-1.425-1.836-1.187-2.624a6.27,6.27,0,0,1,2.443-3.317c.537-.382,2.629-1.016,2.729-1.608.207-1.221-6.785-3.886-7.665-4.145-2.05-.607-5.286-1.291-6.4,1.064-.875,1.841-.3,4.722-1.37,6.357-1.772,2.7-2.665-3.037-2.439-4.244.481-2.573,1.786-3.854,4-5.193-.979-1.21-4.364-1.538-5.88-1.857a28.439,28.439,0,0,0-5.428-.935c-5.063-.008-5.553,6.939-4.552,10.221.5,1.642.979,3.6,2.475,4.548" transform="translate(-33.803 -23.646)" fill="#a6d2ac"/><path d="M293.39,242c-3.447-1.046-7.842-2.415-11.212-3.647-4.39-1.606-6.644-.1-7.546,4.415-1.113,5.573,1.032,12.732,3.373,17.814.828,1.8,1.143,2.027,3.009.826,1.378-.887,2.52-1.913,3.975-2.709,2.811-1.537,5.368-2.634,8.6-2.539,5.093.149.954,3.237-1.5,3.86a27.225,27.225,0,0,0-8.244,3.505c-4.325,2.842,11.518,12.573,15.36,12.988.148-2.425,3.939-7.683,6.752-7.757,2.476-.066.884,1.682-.111,2.693a10.874,10.874,0,0,0-2.889,3.656c-2.344,6.241,14.049,5.005,17.343,4.631,4.333-.492,6.088,1.111,8.463,4.368,1.535-4.472,3.727-10.956,1.082-15.257-1.282-2.085-3.885-2.851-6.006-3.745-1.461-.616-5.709-3.008-1.679-2.907,2.813.07,5.178,2.231,8.059,2.229.629-1.986.6-7.385-1.009-8.923-1.931-1.841-6.617.338-9-.046,1.58-3.274,6.143-2.067,8.957-2.476.149-4.225-1.19-11.693-4.677-14.743-5.085-4.445-8.726,5.3-9.2,7.1-.353,1.329-1.107,3.561-1.791,1.081-.6-2.175,1.8-7.1,3-8.974.585-.914,2.9-2.552,2.909-3.657.009-1.26-16.053-11.384-21.911-9.818-6.086,1.627-6.287,13.4-4.1,18.028" transform="translate(-31.702 -25.863)" fill="#004f56"/><path d="M272.175,296.15c2.394-3.964,5.274-7.459,7.037-11.792a98.562,98.562,0,0,0,4.216-12.856c1.017-4.014,1.831-8.07,2.866-12.083,1.21-4.684,1.137-9.184,1.586-13.945.072-.763,1.266-.722,1.193.045-.406,4.315-.256,8.514-1.263,12.766-1.07,4.517-2.1,9.069-3.241,13.566a97.405,97.405,0,0,1-4.427,13.367c-1.755,4.223-4.615,7.689-6.961,11.573-.4.658-1.4.018-1.007-.64" transform="translate(-31.442 -28.303)" fill="#488288"/><path d="M272.608,302.126a3.529,3.529,0,0,1-2.9,1.673c-1.2-.114-1.047-1.237-.4-1.966a8.566,8.566,0,0,1,2.774-1.634c.976-.487,1.75-1.383,2.759-1.719a7.777,7.777,0,0,1-1.42,2.313c-.506.647-.85,1.405-1.338,2.049" transform="translate(-31.064 -34.493)" fill="#488288"/><path d="M273.864,300.493c-.947,1.459-2.978,2.792-2.912,4.756.043,1.286.83,1.876,1.96,1.149a3.191,3.191,0,0,0,1.191-2.534,20.562,20.562,0,0,0,.078-3.87" transform="translate(-31.311 -34.667)" fill="#488288"/><path d="M277.448,296.5c.687,1.869,1.612,4.2.855,6.23-.471,1.263-1.5.292-1.763-.51a9.241,9.241,0,0,1,.552-5.87Z" transform="translate(-31.925 -34.246)" fill="#488288"/><path d="M280.076,291.944c1.181,2.126,2.735,4.77,2.2,7.357-.332,1.612-1.756.635-2.223-.284-1.066-2.094-.937-4.957-.437-7.187Z" transform="translate(-32.27 -33.724)" fill="#488288"/><path d="M284.327,280.547c1.533,1.887,3.525,4.219,3.452,6.859-.045,1.646-1.618.932-2.238.109-1.415-1.876-1.789-4.718-1.686-7Z" transform="translate(-32.801 -32.416)" fill="#488288"/><path d="M286.913,270.369c2.34,1.668,5.343,3.7,6.09,6.731.466,1.889-1.55,1.569-2.516.827-2.2-1.693-3.521-4.814-4.121-7.448Z" transform="translate(-33.093 -31.244)" fill="#488288"/><path d="M283.059,284.671c1.017,2.61,2.381,5.872,1.366,8.7-.632,1.763-2.108.406-2.5-.715-.892-2.554-.3-5.766.626-8.2Z" transform="translate(-32.529 -32.872)" fill="#488288"/><path d="M275.76,295.874c-1.984.171-4.49.325-6,1.871-.944.963.372,1.482,1.21,1.38a9.241,9.241,0,0,0,5.08-2.992Z" transform="translate(-31.135 -34.191)" fill="#488288"/><path d="M282.061,285.74c-2.109.826-4.795,1.8-5.947,3.977-.718,1.355.884,1.5,1.764,1.115a10.516,10.516,0,0,0,4.579-4.9Z" transform="translate(-31.887 -33.02)" fill="#488288"/><path d="M283.152,278.015c-2.262.886-5.14,1.933-6.376,4.264-.77,1.453.948,1.606,1.892,1.2,2.154-.935,3.876-3.221,4.91-5.256Z" transform="translate(-31.962 -32.128)" fill="#488288"/><path d="M284.8,270.893c-2.938,1.283-6.678,2.806-8.335,6.052-1.033,2.023,1.177,2.185,2.4,1.595,2.8-1.348,5.085-4.546,6.472-7.379Z" transform="translate(-31.918 -31.305)" fill="#488288"/><path d="M285.5,275.557c1.333.855,2.765,1.393,3.8,2.642a5.45,5.45,0,0,1,1.116,3.855,2.618,2.618,0,0,1-.474,1.821c-.676.658-.976-.375-1.209-.967a37.9,37.9,0,0,0-1.7-3.7c-.347-.658-.652-1.285-.929-1.951a9.71,9.71,0,0,1-.777-1.529" transform="translate(-32.973 -31.844)" fill="#488288"/><path d="M278.863,272.274c1.365-1.078,5.475-4.931,7.167-6.267.149-.613.311-1.224.477-1.841-3.305,1.472-8.238,4.568-9.227,5.792-.427.528-1.164,1.821-.939,2.5.408,1.228,1.927.285,2.523-.186" transform="translate(-31.929 -30.527)" fill="#488288"/><path d="M277.353,261.209c1.936-.907,7.94-4.363,10.34-5.488.351-.692.717-1.377,1.088-2.069-4.369.832-11.144,3.153-12.673,4.34-.66.511-1.905,1.852-1.827,2.73.143,1.584,2.227.882,3.073.486" transform="translate(-31.696 -29.312)" fill="#488288"/><path d="M288.491,262.786c.792.57,4.379,1.313,6.673,5.988a2.42,2.42,0,0,1,.258,2.269c-.611.962-1.407.059-1.894-.525-.961-1.153-4.288-5.783-5.263-6.825" transform="translate(-33.312 -30.368)" fill="#488288"/><path d="M287.585,258.545c-1.018.4-2.249.525-3.327.914-1.155.416-6.964,3.5-8.329,5.086-.593.686-2.006,1.693-1.489,2.723.5,1,1.967.723,2.819.423,1.978-.7,9.025-6.965,10.612-8.824" transform="translate(-31.702 -29.878)" fill="#488288"/><path d="M289.834,257.607c4.087,1.267,9.283,6.408,9.255,7.356-.06,2.057-2.878,1.1-3.872.338-2.23-1.7-5.6-7.151-5.3-7.5" transform="translate(-33.493 -29.769)" fill="#488288"/><path d="M341.871,242.14c-4.78.269-9.365,1.207-14.176.721a101.819,101.819,0,0,1-13.783-2.371c-4.16-1.013-8.257-2.232-12.424-3.228-4.864-1.162-8.939-3.406-13.5-5.3-.732-.3-1.272.807-.537,1.111,4.138,1.718,7.9,3.887,12.272,5.024,4.643,1.208,9.3,2.47,13.96,3.6a100.674,100.674,0,0,0,14.351,2.425c4.706.441,9.257-.494,13.939-.757a.617.617,0,0,0-.1-1.23" transform="translate(-33.177 -26.8)" fill="#488288"/><path d="M347.789,243.777a3.645,3.645,0,0,0,2.93-1.837c.477-1.152-.624-1.555-1.6-1.318a8.862,8.862,0,0,0-2.834,1.742c-.918.656-2.11.93-2.905,1.688a8.034,8.034,0,0,0,2.8-.178c.837-.149,1.695-.1,2.519-.23" transform="translate(-39.681 -27.799)" fill="#488288"/><path d="M345.865,244.152c1.792-.158,3.991-1.369,5.754-.358,1.153.661,1.312,1.665.1,2.346a3.3,3.3,0,0,1-2.891-.138,21.216,21.216,0,0,1-3.572-1.8" transform="translate(-39.898 -28.127)" fill="#488288"/><path d="M340.632,245.312c1.374,1.532,3.059,3.507,5.277,3.8,1.382.18.993-1.229.387-1.857a9.558,9.558,0,0,0-5.629-2.336Z" transform="translate(-39.364 -28.303)" fill="#488288"/><path d="M335.217,245.453c1.37,2.107,3.033,4.806,5.654,5.572,1.634.477,1.429-1.3.816-2.168-1.4-1.987-4.075-3.256-6.354-3.877Z" transform="translate(-38.738 -28.31)" fill="#488288"/><path d="M322.761,243.777c.982,2.314,2.147,5.262,4.594,6.473,1.525.755,1.634-1.027,1.182-1.992-1.029-2.2-3.443-3.917-5.578-4.927Z" transform="translate(-37.298 -28.119)" fill="#488288"/><path d="M312.207,241.219c.392,2.945.793,6.67,3.2,8.821,1.5,1.339,2.185-.657,1.973-1.9-.481-2.831-2.692-5.546-4.809-7.367Z" transform="translate(-36.079 -27.824)" fill="#488288"/><path d="M327.1,244.74c1.892,2.193,4.212,5.017,7.286,5.459,1.916.275,1.39-1.729.555-2.628-1.9-2.05-5.124-3.061-7.789-3.394Z" transform="translate(-37.799 -28.217)" fill="#488288"/><path d="M340.534,243.516c1.116-1.729,2.47-3.944,4.613-4.579,1.336-.4,1.175,1.058.675,1.773a9.554,9.554,0,0,1-5.191,3.193Z" transform="translate(-39.352 -27.604)" fill="#488288"/><path d="M328.239,244.492c1.775-1.527,3.967-3.507,6.51-3.508,1.586,0,.94,1.533.164,2.152-1.768,1.412-4.494,1.848-6.693,1.81Z" transform="translate(-37.929 -27.848)" fill="#488288"/><path d="M320.626,241.769c1.9-1.636,4.253-3.759,6.981-3.761,1.7,0,1.007,1.644.176,2.308-1.9,1.513-4.818,1.98-7.177,1.94Z" transform="translate(-37.049 -27.504)" fill="#488288"/><path d="M313.2,239.95c2.595-2.063,5.795-4.741,9.562-4.685,2.347.036,1.427,2.133.293,2.969-2.587,1.906-6.613,2.445-9.872,2.34Z" transform="translate(-36.191 -27.187)" fill="#488288"/><path d="M317.65,242.447c.136,1.631-.065,3.2.575,4.749a5.632,5.632,0,0,0,2.981,2.884,2.7,2.7,0,0,0,1.893.448c.928-.3.129-1.072-.3-1.572a39.524,39.524,0,0,1-2.559-3.347c-.432-.637-.859-1.218-1.332-1.794-.313-.379-.7-1.243-1.022-1.449" transform="translate(-36.708 -28.008)" fill="#488288"/><path d="M317.23,235.253c-1.645.724-7.152,2.615-9.193,3.513-.631-.16-1.268-.308-1.911-.455,2.943-2.307,8.159-5.313,9.755-5.625.689-.134,2.227-.182,2.739.353.925.967-.673,1.9-1.39,2.215" transform="translate(-35.376 -26.879)" fill="#488288"/><path d="M307.583,228.468c-1.765,1.329-7.827,5.141-10.016,6.789-.8-.014-1.605-.012-2.416-.007,2.875-3.589,8.273-8.653,10.1-9.476.786-.356,2.614-.845,3.378-.348,1.379.9-.272,2.46-1.042,3.042" transform="translate(-34.108 -26.026)" fill="#488288"/><path d="M304.529,239.01c.137,1-.919,4.635,2.24,8.994.448.618,1.1,1.4,1.948,1.334,1.175-.093.735-1.257.437-1.984-.589-1.435-3.208-6.715-3.687-8.111" transform="translate(-35.184 -27.62)" fill="#488288"/><path d="M300.277,236.607c.861-.735,1.568-1.8,2.445-2.6.939-.854,6.569-4.666,8.676-5.147.914-.209,2.516-1.012,3.209-.042.668.937-.292,2.146-.978,2.779-1.593,1.469-10.729,4.873-13.195,5.423" transform="translate(-34.7 -26.389)" fill="#488288"/><path d="M299.147,237.7c-.82,4.346,1.36,11.579,2.24,12.013,1.909.94,2.393-2.1,2.182-3.374-.474-2.859-3.822-8.573-4.286-8.466" transform="translate(-34.549 -27.469)" fill="#488288"/><path d="M112.965,367.243c0,1.772-19.566,3.207-43.7,3.207s-43.7-1.435-43.7-3.207,19.566-3.207,43.7-3.207,43.7,1.436,43.7,3.207" transform="translate(-2.954 -42.068)" fill="#f2f2f2"/><path d="M103.906,151.365c2.559-.912,5.113-1.984,7.656-3.178l3.4,11.7a88.047,88.047,0,0,1-9.2,5.564,54.849,54.849,0,0,1-8.479,3.594,30.041,30.041,0,0,1-14.067,1.071c-.921-.154-1.823-.355-2.733-.587a7.4,7.4,0,0,1,2.233-14.556,56.022,56.022,0,0,0,21.186-3.6" transform="translate(-8.664 -17.125)" fill="#004f56"/><path d="M158.265,130.28c-3.578,4.1-11.9,4.217-11.9,4.217a207.689,207.689,0,0,1-21.813,19.454l-3.167-10.9a139.252,139.252,0,0,0,21.436-14.372,20.94,20.94,0,0,1,3.394-4.939,1.663,1.663,0,0,1,2.658,1.925l-.8,2.2,2.116-1.273a14.76,14.76,0,0,1,4.215-2.17c3.43-.988,6.2,3.153,3.858,5.849" transform="translate(-14.028 -14.242)" fill="#b38273"/><path d="M120.806,145.643l3.2,11-3.87,4.286-3.788-13.033c1.489-.7,2.981-1.457,4.462-2.249" transform="translate(-13.445 -16.831)" fill="#a6d2ac"/><path d="M124.716,188.486v0Z" transform="translate(-14.412 -21.778)" fill="#9bb4fe"/><path d="M124.716,188.354v.089c0-.03,0-.059,0-.089Z" transform="translate(-14.412 -21.766)" fill="#df9c07"/><path d="M157.445,113.413c-.235.218-.466.442-.7.662.343-.325.687-.648,1.036-.968-.111.1-.226.2-.337.305" transform="translate(-18.114 -13.071)" fill="#009cfa"/><path d="M164.4,107.283q1.829-1.417,3.732-2.742-1.9,1.324-3.732,2.742" transform="translate(-18.999 -12.081)" fill="#009cfa"/><path d="M180.2,97.309q2.076-1.071,4.218-2.035-2.139.964-4.218,2.035" transform="translate(-20.823 -11.01)" fill="#009cfa"/><path d="M186.346,124.057c-4.382,1.042-8.786,3.667-10.207,7.952-1.042,3.134-.64,7.224-3.428,8.992-2.278,1.454-5.315.3-7.582-1.16s-4.611-3.319-7.323-3.211a44.96,44.96,0,0,0,5.7,19.417c.194.345.409.693.641,1.031l.017.026a15.41,15.41,0,0,1,25.038,9.961,15.669,15.669,0,0,1-.027,4.1c.027.009.052.02.079.03a31.806,31.806,0,0,1,5.83,3.042q5.3,3.258,10.605,6.525l.144.088H218.5V145.239a15.367,15.367,0,0,1-11.65,5.629,15.994,15.994,0,0,1-1.883-.108,15.412,15.412,0,0,1-6.73-28.083l-.308.037c-3.862.448-7.79.444-11.581,1.343" transform="translate(-18.236 -14.177)" fill="#6ca8fb"/><path d="M153.06,168.581c-.933-1.811-.726-3.97-1.074-5.977a21.675,21.675,0,0,0-2.506-6.292c-2.472-4.717-9.875-16-11.713-20.733A89.9,89.9,0,0,0,124.742,180.4c-.016.615-.023,1.237-.024,1.859,0,.03,0,.06,0,.089h32.99c0-.029,0-.059.006-.089.063-.807.1-1.607.107-2.4,0-.092,0-.182,0-.273a15.322,15.322,0,0,1-3.029-8.735l-.113-.128a10.761,10.761,0,0,1-1.616-2.139" transform="translate(-14.412 -15.668)" fill="#6ca8fb"/><path d="M206.344,87.738a8.831,8.831,0,0,1,3.669,6.166,25.913,25.913,0,0,1-.314,7.648,3.415,3.415,0,0,1-1.074,2.441,2.759,2.759,0,0,1-1.584.379c-2.864,0-5.435-1.638-8.049-2.82s-5.9-1.844-8.191-.109a4.741,4.741,0,0,0,2.322,8.483c1.726.2,3.407-.553,5.078-1.052,3.167-.944,6.8-.933,9.546.922a4.659,4.659,0,0,1,1.941,2.365,4.017,4.017,0,0,1-1.02,3.758l-.026.029a15.579,15.579,0,0,1,1.672-.1,15.368,15.368,0,0,1,11.782,5.629V86.291a90.858,90.858,0,0,0-15.752,1.447" transform="translate(-21.834 -9.972)" fill="#6ca8fb"/><path d="M203.97,112.349a4.655,4.655,0,0,0-1.941-2.365c-2.744-1.855-6.379-1.865-9.546-.922-1.671.5-3.352,1.248-5.078,1.052a4.741,4.741,0,0,1-2.322-8.483c2.29-1.735,5.576-1.063,8.191.109s5.185,2.82,8.049,2.82a2.753,2.753,0,0,0,1.584-.38,3.412,3.412,0,0,0,1.074-2.44,25.913,25.913,0,0,0,.314-7.648,8.831,8.831,0,0,0-3.669-6.166l-.009-.006h-.011c-.235.042-.468.093-.7.137q-.463.088-.926.181c-.425.085-.851.172-1.274.263-.346.074-.689.153-1.033.232-.389.088-.779.176-1.167.27-.416.1-.83.209-1.244.315-.315.081-.631.158-.945.242q-1.076.289-2.14.6c-.212.063-.422.131-.634.195-.524.159-1.049.321-1.57.489-.25.081-.5.166-.748.249-.482.161-.963.324-1.442.493-.252.088-.5.18-.753.271q-.722.261-1.438.534c-.234.089-.469.18-.7.272q-.758.3-1.51.608c-.2.082-.4.164-.6.247-.577.242-1.151.493-1.721.746-.118.053-.237.1-.355.157q-2.139.964-4.218,2.035l-.116.062q-.954.492-1.893,1.007c-.13.071-.26.144-.39.217q-.8.444-1.6.906c-.157.091-.314.184-.471.276q-.763.448-1.514.912l-.461.285q-.777.484-1.543.985c-.126.082-.252.163-.377.245q-.894.589-1.774,1.2l-.1.067q-1.9,1.324-3.732,2.743c-.113.088-.224.177-.336.264q-.714.557-1.415,1.128c-.168.137-.335.277-.5.416q-.613.505-1.216,1.022c-.188.161-.375.323-.562.486q-.569.5-1.13,1c-.191.172-.383.344-.572.517-.348.319-.693.643-1.037.968-.221.209-.444.417-.663.628-.34.328-.675.661-1.009.993-.211.21-.425.418-.633.63-.333.339-.661.682-.989,1.025-.205.215-.413.427-.616.644-.325.346-.643.7-.962,1.05-.2.219-.4.436-.6.657-.313.351-.619.708-.926,1.065q-.874,1.014-1.721,2.051c-.092.113-.187.224-.278.337-.342.425-.677.857-1.011,1.289-.129.165-.261.329-.388.5-.341.445-.673.9-1.006,1.348-.114.155-.23.308-.343.463-.34.469-.674.943-1,1.419-.1.141-.2.279-.3.421-.341.5-.676,1-1.007,1.5q-.121.18-.241.362-.515.789-1.014,1.592c-.06.1-.121.193-.181.29-.13.21-.264.417-.393.629v.011l0,.008c1.838,4.733,9.241,16.016,11.713,20.733a21.674,21.674,0,0,1,2.506,6.292c.348,2.007.142,4.166,1.074,5.977a10.761,10.761,0,0,0,1.616,2.139l.113.128c0-.149-.013-.3-.013-.448a15.342,15.342,0,0,1,3.405-9.658,15.5,15.5,0,0,1,2.154-2.148.256.256,0,0,1-.017-.026c-.232-.337-.447-.685-.64-1.03a44.948,44.948,0,0,1-5.7-19.418c2.712-.108,5.044,1.736,7.322,3.211s5.3,2.614,7.582,1.16c2.789-1.768,2.387-5.858,3.428-8.993,1.421-4.285,5.826-6.909,10.207-7.951,3.792-.9,7.719-.9,11.582-1.343l.307-.036a15.321,15.321,0,0,1,6.809-2.524l.026-.029a4.018,4.018,0,0,0,1.02-3.758" transform="translate(-16.117 -10.16)" fill="#a6d2ac"/><path d="M162.023,188.005c0,.03,0,.059-.006.089h2.747a15.491,15.491,0,0,1-2.636-2.76c0,.091,0,.181,0,.272-.005.791-.044,1.592-.107,2.4" transform="translate(-18.723 -21.417)" fill="#a6d2ac"/><path d="M198.468,180.575a31.805,31.805,0,0,0-5.83-3.042c-.027-.009-.052-.02-.078-.03a15.34,15.34,0,0,1-3.15,7.383c-.086.109-.171.218-.258.325l-.006.006a15.439,15.439,0,0,1-2.015,1.972h22.087l-.145-.089q-5.3-3.264-10.605-6.525" transform="translate(-21.625 -20.512)" fill="#a6d2ac"/><path d="M189.415,186.175c.088-.105.173-.214.258-.323C189.588,185.961,189.5,186.07,189.415,186.175Z" transform="translate(-21.889 -21.477)" fill="#50d4fb"/><path d="M80.028,139a111.01,111.01,0,0,0-3.137,14.648c-.4,3.21,7.8,6.978,8.14,6.852a1.037,1.037,0,0,0,.685-1.042c-.193-3.352-.075-9.3,2.528-13.86Z" transform="translate(-8.884 -16.063)" fill="#a97261"/><path d="M76.865,140.8c2.3,4.213,6.946,8.088,10.719,7.233,3.9-.884,6.755-5.441,7.573-9.5a.236.236,0,0,0,.119.011c.481-.1,1.124-.282,1.158-.743.032-.419-.513-.8-1.052-1.066a2.719,2.719,0,0,0-.04-.854c-1.445-13.32-6.038-15.64-11.175-14.941-2.208.3-4.352,2.391-5.953,5.14C75.346,131,76.069,139.557,76.865,140.8" transform="translate(-8.801 -13.962)" fill="#b38273"/><path d="M93.082,142.758a3.746,3.746,0,0,1-1.711-3.351.26.26,0,0,1,.52.008,3.6,3.6,0,0,0,3.173,3.591.26.26,0,0,1-.071.515,5.18,5.18,0,0,1-1.911-.762" transform="translate(-10.559 -16.08)" fill="#004f56"/><path d="M94.244,136.959c0,.862.333,1.563.754,1.565s.765-.7.769-1.557-.333-1.563-.754-1.565-.765.7-.769,1.557" transform="translate(-10.891 -15.647)" fill="#004f56"/><path d="M92.447,133.949a.133.133,0,0,1-.026-.012.259.259,0,0,1-.11-.35,2.145,2.145,0,0,1,2.851-1.068.26.26,0,0,1,.127.344.252.252,0,0,1-.345.128,1.647,1.647,0,0,0-2.172.837.258.258,0,0,1-.325.12" transform="translate(-10.664 -15.292)" fill="#004f56"/><path d="M84.151,359.536c-2.973,7.844,3.073,7.973,18.383,7.924,2.128-.019,3.616-2.265,0-3.381l-11.772-4.8s-5.393-.07-6.509,0Z" transform="translate(-9.64 -41.515)" fill="#004f56"/><path d="M43.912,358.842c-2.973,7.844,3.591,7.788,18.9,7.738,2.127-.019,3.616-2.265,0-3.38l-11.049-4.8s-6.553-.07-7.669,0Z" transform="translate(-4.994 -41.413)" fill="#004f56"/><path d="M90.876,226.8H63.835C76.238,263.8,82,302.947,82,343.968h6.457A427.009,427.009,0,0,0,90.876,226.8" transform="translate(-7.377 -26.209)" fill="#009cfa"/><path d="M78.922,226.8H57.128c-4.2,9.214.7,20.081.7,20.081-.023,31.079-4.951,64.142-13.616,96.308h7.668c14.33-31.622,23.343-71.327,27.041-116.39" transform="translate(-5.109 -26.209)" fill="#009cfa"/><path d="M90.3,218.442H58.815c6.027-20.786-1.468-40.467,4.272-52.914,2.185-4.734,5.355-8.282,9.926-10.146a12.654,12.654,0,0,1,16.765,7.694c1.355,4.214.834,9.891-.138,16.26a113.221,113.221,0,0,0-.379,30.335Z" transform="translate(-6.797 -17.849)" fill="#a6d2ac"/><path d="M95.639,123.054a3.126,3.126,0,0,0-.413-1.441c-.137-.242-.218-.445-.478-.558-.509-.235-.469.129-.663-.413-.154-.413-.146-.874-.316-1.287a3.55,3.55,0,0,0-1.6-1.611,4.951,4.951,0,0,0-2.1-.817c-.242-.016-.478.089-.72.089-.388.008-.154.057-.51-.146a8.14,8.14,0,0,0-5.236-.834c-1.279.179-5.407,1.117-4.913,3.262a11.135,11.135,0,0,0-3.172.939,8.037,8.037,0,0,0-3.755,4.167c-.421,1.133-.591,1.991.437,2.541a3.728,3.728,0,0,0-1.651.875A5.429,5.429,0,0,0,69.4,131.1a14.462,14.462,0,0,0,.534,4.71,11.964,11.964,0,0,0,2.185,4.6,6.278,6.278,0,0,0,7.81,2.055,4.981,4.981,0,0,0,2.541-2.695,3.489,3.489,0,0,1-2.582-2.59c-.591-1.789-.105-3.553,1.084-3.942a1.782,1.782,0,0,1,1.328.13,13.707,13.707,0,0,1-.178-2.922,3.264,3.264,0,0,0,2.379.721c1.238.008,1.788-.672,2.5-1.635a3.811,3.811,0,0,0,2.582.5,2.732,2.732,0,0,0,2.591-1.546c2.274-.089,3.6-3.149,3.463-5.43" transform="translate(-8.014 -13.397)" fill="#004f56"/><path d="M101.627,163.407c2.711-.162,5.463-.478,8.239-.915v12.181a88.007,88.007,0,0,1-10.383,2.775,54.713,54.713,0,0,1-9.145,1.084,30.023,30.023,0,0,1-13.807-2.9c-.841-.4-1.651-.849-2.461-1.327a7.4,7.4,0,0,1,6.208-13.354,56.016,56.016,0,0,0,21.349,2.453" transform="translate(-8.145 -18.554)" fill="#004f56"/><path d="M159.542,158.191c-4.581,2.938-12.6.729-12.6.729a207.8,207.8,0,0,1-26.376,12.593V160.166a139.246,139.246,0,0,0,24.594-7.818,21,21,0,0,1,4.638-3.8,1.663,1.663,0,0,1,2.015,2.59l-1.384,1.894,2.388-.631a14.786,14.786,0,0,1,4.653-.907c3.57.009,5.075,4.759,2.072,6.693" transform="translate(-13.933 -17.141)" fill="#b38273"/><path d="M119.924,161.711v11.453l-4.912,3.035V162.626c1.626-.259,3.27-.566,4.912-.915" transform="translate(-13.291 -18.687)" fill="#a6d2ac"/><path d="M158.718,175.494a15.319,15.319,0,0,0,3.029,8.735,12.465,12.465,0,0,0-2.22-7.77c-.254-.333-.53-.65-.809-.965" transform="translate(-18.342 -20.28)" fill="#009cfa"/><path d="M168.247,163.447c1.139.054,2.2-.585,3.341-.672,2.506-.218,4.436,2.158,5.51,4.436s1.941,4.9,4.09,6.195c1.953,1.16,4.382.9,6.617,1.268a13.22,13.22,0,0,1,2.2.574,15.669,15.669,0,0,0,.026-4.1,15.411,15.411,0,0,0-25.038-9.961,4.433,4.433,0,0,0,3.258,2.263" transform="translate(-19.066 -18.225)" fill="#009cfa"/><path d="M242.528,232.15a15.458,15.458,0,0,0-13.44-13.581,16,16,0,0,0-1.884-.108,15.367,15.367,0,0,0-11.649,5.629V223.8c-.084.1-.172.192-.254.291v-35.6H202q2.647,1.63,5.294,3.257a9.9,9.9,0,0,1,3.145,2.592,6.917,6.917,0,0,1,1.107,3.754c.206,6.2-4.73,11.368-9.9,14.8s-11.1,6.075-14.928,10.956c-4.371,5.554-5.25,13.007-5.836,20.057-.1,1.182-.3,2.56-1.356,3.135a2.732,2.732,0,0,1-2.376-.065c-2.582-1.084-3.981-3.9-4.653-6.628s-.879-5.586-2.1-8.114c-.749-1.551-1.866-2.908-2.55-4.491-2.408-5.543.868-12.508-2.04-17.8-2.1-3.851-7.007-5.8-8.417-9.959a11.349,11.349,0,0,1-.38-4.447c.153-2.291.511-4.688.7-7.044h-32.99v.032a90.446,90.446,0,0,0,62.171,85.906,25.751,25.751,0,0,1,3.976-6.943,8.915,8.915,0,0,1,3.656-3.431c3.154-1.207,7.1,1.317,9.9-.57,3.656-2.474.554-8.529,2.474-12.5a2.4,2.4,0,0,1,1.242-1.292,3.234,3.234,0,0,1,1.694.034,17.822,17.822,0,0,0,5.476.4v-6.474c.081.1.169.195.254.293v-.293a15.449,15.449,0,0,0,4.634,3.806,4.525,4.525,0,0,0,.8-4.04c-1.275-3.942-8.17-5.351-7.2-9.376.772-3.154,5.41-2.86,8.312-1.409,2.927,1.467,5.736,3.471,7.246,6.373s1.375,6.836-1.007,9.075a5.218,5.218,0,0,0,2.482.771,15.414,15.414,0,0,0,11.7-16.7" transform="translate(-14.412 -21.782)" fill="#009cfa"/><path d="M240.976,244.633c-1.51-2.9-4.32-4.906-7.246-6.374-2.9-1.45-7.54-1.744-8.311,1.409-.973,4.026,5.92,5.435,7.2,9.377a4.522,4.522,0,0,1-.8,4.04,14.764,14.764,0,0,0,10.636,1.395,5.219,5.219,0,0,1-2.482-.772c2.382-2.239,2.516-6.18,1.007-9.074" transform="translate(-26.039 -27.412)" fill="#a6d2ac"/><path d="M217.948,257.7a3.234,3.234,0,0,0-1.694-.034,2.4,2.4,0,0,0-1.242,1.291c-1.92,3.976,1.182,10.031-2.474,12.505-2.793,1.887-6.743-.638-9.9.57a8.918,8.918,0,0,0-3.656,3.43,25.733,25.733,0,0,0-3.976,6.944h0a90.237,90.237,0,0,0,28.222,4.495c.065,0,.127,0,.192,0v-28.8a17.823,17.823,0,0,1-5.476-.4" transform="translate(-22.535 -29.765)" fill="#a6d2ac"/><path d="M161.316,196.879c1.41,4.155,6.313,6.107,8.418,9.959,2.907,5.293-.369,12.258,2.04,17.8.683,1.583,1.8,2.94,2.549,4.491,1.226,2.528,1.421,5.4,2.1,8.114s2.072,5.544,4.654,6.628a2.73,2.73,0,0,0,2.376.065c1.052-.575,1.259-1.953,1.356-3.135.586-7.051,1.465-14.5,5.836-20.057,3.83-4.881,9.752-7.528,14.927-10.956s10.11-8.591,9.9-14.8a6.916,6.916,0,0,0-1.106-3.754,9.892,9.892,0,0,0-3.146-2.592q-2.647-1.626-5.294-3.257H183.846a15.43,15.43,0,0,0,2.015-1.971l.005-.007c.089-.105.172-.216.259-.324a15.334,15.334,0,0,0,3.149-7.383,13.123,13.123,0,0,0-2.194-.573c-2.235-.369-4.665-.109-6.617-1.269-2.148-1.291-3.016-3.916-4.09-6.194s-3-4.654-5.51-4.437c-1.14.087-2.2.727-3.341.672a4.434,4.434,0,0,1-3.258-2.262,15.06,15.06,0,0,0-5.56,11.805c0,.15.009.3.013.448.279.315.555.631.809.965a12.465,12.465,0,0,1,2.22,7.77,15.428,15.428,0,0,0,2.635,2.76h-2.746c-.187,2.356-.546,4.753-.7,7.044a11.365,11.365,0,0,0,.38,4.447" transform="translate(-18.34 -18.679)" fill="#94c89c"/><path d="M246.876,397.747c0,1.771-22.438,3.207-50.118,3.207s-50.118-1.436-50.118-3.207,22.438-3.207,50.118-3.207,50.118,1.436,50.118,3.207" transform="translate(-16.946 -45.593)" fill="#f2f2f2"/><path d="M289.284,263.456c-3.66,4.606-12.626,5.163-12.626,5.163-10.78,11.953-23.622,24.594-36.594,32.115l-2.732-15.1c12.249-5.043,24.289-13.454,35.2-23.1a22.794,22.794,0,0,1,3.4-5.508,1.8,1.8,0,0,1,2.972,1.944l-.754,2.419,2.225-1.485a15.952,15.952,0,0,1,4.438-2.554c3.652-1.247,6.854,3.085,4.467,6.114" transform="translate(-27.426 -29.632)" fill="#f0d2c8"/><path d="M236.056,304.551a59.4,59.4,0,0,1-8.967,4.317,32.419,32.419,0,0,1-15.132,1.874c-1-.117-1.983-.285-2.976-.491a8,8,0,0,1,1.657-15.83,60.458,60.458,0,0,0,22.686-4.975Z" transform="translate(-23.418 -33.449)" fill="#004f56"/><path d="M227.461,291.065v0c-.085,0-.169,0-.254,0Z" transform="translate(-26.256 -33.635)" fill="#9bb4fe"/><path d="M329.2,188.667h0v0Z" transform="translate(-38.043 -21.798)" fill="#9bb4fe"/><path d="M329.2,188.571v0Z" transform="translate(-38.043 -21.791)" fill="#9bb4fe"/><path d="M229.414,256.885a6.291,6.291,0,0,0,2.608-2.031c.024-.032.05-.062.073-.094a15.471,15.471,0,0,1-4.634-3.806v.293c-.084-.1-.172-.193-.253-.293v6.474c.084-.01.169-.014.253-.027a8.335,8.335,0,0,0,1.953-.517" transform="translate(-26.256 -29.001)" fill="#009cfa"/><path d="M309.434,188.562c-.019.029-.036.06-.056.089-2.626,3.889-6.141,7.172-8.69,11.125-5.239,8.136-5.9,18.268-8.309,27.629-.955,3.743-2.462,7.9-6.14,9.752-2.8,1.4-6.813.608-8.093-2.245-1.063-2.376.011-5.12.022-7.724,0-3.677-2.181-7.149-1.9-10.826a9.472,9.472,0,0,1,.169-1.141c.006-.035.012-.069.02-.1a15.4,15.4,0,0,1-16.6-24.253c.086-.109.171-.218.26-.325l0-.006a15.446,15.446,0,0,1,2.016-1.972H226.651v-.073H226.5v.089h.627v35.6c.082-.1.17-.194.254-.291v.291a15.367,15.367,0,0,1,11.65-5.629,16,16,0,0,1,1.884.107,15.413,15.413,0,0,1,1.736,30.282l.2.013a25.391,25.391,0,0,0,4.709-.509c2.5-.369,5.669.1,6.5,2.483a15.308,15.308,0,0,1,.335,2.919,5.441,5.441,0,0,0,6.157,4.395,3.32,3.32,0,0,0,1.853-.93c1.107-1.2.763-3.062.671-4.68s.621-3.707,2.239-3.732c-.017,2.458,2.919,3.858,5.368,3.816s4.923-.915,7.3-.327,4.286,3.757,2.541,5.476l1.929,2.089a90.222,90.222,0,0,1-22.184,12.716,90.507,90.507,0,0,0,56.849-77.7q.212-3.124.217-6.316v-.089Z" transform="translate(-26.174 -21.782)" fill="#6ca8fb"/><path d="M280.607,265.577c1.744-1.719-.168-4.881-2.541-5.476s-4.856.277-7.305.327-5.384-1.359-5.368-3.816c-1.619.025-2.323,2.1-2.239,3.732s.437,3.48-.67,4.68a3.327,3.327,0,0,1-1.854.931,5.442,5.442,0,0,1-6.156-4.395,15.372,15.372,0,0,0-.335-2.919c-.831-2.382-4-2.851-6.5-2.483a25.526,25.526,0,0,1-4.709.509c-.066,0-.132-.009-.2-.014a14.75,14.75,0,0,1-10.636-1.395c-.023.033-.049.063-.073.094a6.291,6.291,0,0,1-2.608,2.031,8.3,8.3,0,0,1-1.953.517c-.084.012-.17.017-.254.027v28.8h0c.085,0,.169-.005.254-.005a90.417,90.417,0,0,0,25.932-3.9q1.759-.536,3.486-1.141,1.685-.589,3.338-1.246c.045-.017.09-.032.134-.05a90.213,90.213,0,0,0,22.184-12.717Z" transform="translate(-26.256 -29.498)" fill="#a6d2ac"/><path d="M282.769,216.373c-.282,3.677,1.9,7.149,1.9,10.826-.012,2.6-1.085,5.348-.022,7.723,1.28,2.853,5.293,3.645,8.093,2.246,3.677-1.855,5.185-6.01,6.14-9.752,2.408-9.362,3.07-19.494,8.309-27.629,2.55-3.954,6.065-7.237,8.69-11.126.019-.028.036-.059.056-.088H288.1a15.282,15.282,0,0,1-5.141,26.556c-.008.034-.014.069-.02.1a9.434,9.434,0,0,0-.169,1.141" transform="translate(-32.674 -21.792)" fill="#a6d2ac"/><path d="M218.664,273.047l-5.733,10.795,10.336,2.62,3.088-12.279Z" transform="translate(-24.606 -31.553)" fill="#e0b8ab"/><path d="M189.586,323.6s-12.644,23.3,3.662,25.324a20.561,20.561,0,0,0,7.176-.459c10.053-2.341,18.42-5.371,19.39-3.507,1.146,2.2,4.616,13.8.356,36.434l7.111-.543c12.523-37.865,11.283-61.321-18.525-51.862l-.083-5.15Z" transform="translate(-21.369 -37.396)" fill="#009cfa"/><path d="M184.626,341.986s6.395,29.429,5.758,30.662c0,0-9.825,7.245-31.965.906v6.834c51.3,17.645,49.874,2.615,43.829-38.4Z" transform="translate(-18.307 -39.52)" fill="#009cfa"/><path d="M154.173,395.508h-4.266c-3.5-.249-.861-8.5-.45-9.472.693-1.678.9-5.9.693-7.67a2.474,2.474,0,0,1,.022-.729,2.432,2.432,0,0,1,3.566-1.572c.92.5,2.175.725,3.492,1.39v6.834l-2.008,1.03c-.76,1.071-1.052,5.129-.453,6.241l.545,1.014a2.125,2.125,0,0,1-1.141,2.931" transform="translate(-17.117 -43.424)" fill="#004f56"/><path d="M224.772,388.6c-3.157,8.331,3.263,8.468,19.524,8.415,2.26-.021,3.84-2.406,0-3.591l-12.5-5.1s-5.728-.074-6.913,0Z" transform="translate(-25.885 -44.872)" fill="#004f56"/><path d="M215.612,324.573s-21.778,3.678-29.52,1.887c0,0,4.978-34.245,20.772-41.578a18.933,18.933,0,0,1,18.649,1.213c3.3,2.265,3.78,4.025,4.8,7.979,2.053,7.957-1.786,16.25-8.836,20.473-3.291,1.971-.724,9.356-5.866,10.025" transform="translate(-21.505 -32.704)" fill="#004f56"/><path d="M279.3,235.95C276.857,241.3,268.287,244,268.287,244c-7.592,14.194-17.019,29.55-27.8,39.969L234.2,269.959c10.678-7.839,20.344-18.9,28.618-30.886a22.785,22.785,0,0,1,1.978-6.165,1.8,1.8,0,0,1,3.352,1.173l-.15,2.53,1.8-1.977a15.946,15.946,0,0,1,3.694-3.547c3.244-2.087,7.394,1.348,5.805,4.862" transform="translate(-27.065 -26.631)" fill="#f0d2c8"/><path d="M236.968,289.126a59.325,59.325,0,0,1-7.667,6.345,32.409,32.409,0,0,1-14.238,5.457c-1,.127-1.994.2-3.007.238a8,8,0,0,1-2.2-15.764,60.47,60.47,0,0,0,20.826-10.281Z" transform="translate(-23.55 -31.793)" fill="#004f56"/><path d="M216.129,270.775c3.7,3.264,9.53,5.384,12.875,3.241,3.457-2.215,4.623-7.611,3.994-11.821a.226.226,0,0,0,.119-.032c.429-.262.986-.663.858-1.121-.116-.416-.774-.589-1.388-.661a2.777,2.777,0,0,0-.336-.811c-6.045-12.357-11.291-13-16.006-10.526-2.027,1.062-3.369,3.828-3.955,7.041-1.05,5.759,2.637,13.768,3.838,14.689" transform="translate(-24.511 -28.646)" fill="#f0d2c8"/><path d="M232.007,267.495a3.844,3.844,0,0,1-2.822-2.639.267.267,0,0,1,.5-.174,3.7,3.7,0,0,0,4.318,2.36.267.267,0,0,1,.111.522,5.259,5.259,0,0,1-2.111-.068" transform="translate(-26.483 -30.566)" fill="#004f56"/><path d="M231.143,261.466c.3.834.867,1.393,1.274,1.248s.5-.937.2-1.772-.867-1.394-1.274-1.249-.5.938-.2,1.772" transform="translate(-26.691 -30.008)" fill="#004f56"/><path d="M228.37,259.117l-.029,0a.267.267,0,0,1-.228-.3,2.2,2.2,0,0,1,2.38-2.025.266.266,0,0,1,.242.287.259.259,0,0,1-.287.245,1.69,1.69,0,0,0-1.805,1.566.266.266,0,0,1-.272.23" transform="translate(-26.361 -29.674)" fill="#004f56"/><path d="M229.077,255.478l.01-.016-.005.006,0,.01" transform="translate(-26.472 -29.521)" fill="#004f56"/><path d="M230.266,245.959c-.241-1-2.924-7.007-2.985-7.7-.031,2.066-.348,4.065-1.871,5.551-.2-.76-.327-1.573-.528-2.354-.279-1.087-.867-1.963-1.209-2.973.014,2.547-3.19,4.786-5.208,5.736.076-.963-.779-1.873-1.419-2.519a8.553,8.553,0,0,1-1.887,3.938c-1.07,1.42-5.991,5.907-7.214,10.964-.676,2.8-.815,5.871.826,8.344,1.694,2.553,3.58,4.771,6.643,5.7,2.789.851,4.947.15,7.533-.971-.608-.955-5.805-8.21,2.512-16.428a7.87,7.87,0,0,1-.608,3.25c5.224-3.294,5.547-6.434,5.671-7.375a9.224,9.224,0,0,0-.256-3.166" transform="translate(-23.975 -27.533)" fill="#df9c07"/><path d="M228.905,239.225c0-.1.005-.2.005-.305a1.158,1.158,0,0,0-.005.305" transform="translate(-26.452 -27.61)" fill="#004f56"/><path d="M224.274,268.22a3.119,3.119,0,1,1-1.515-3.8,2.909,2.909,0,0,1,1.515,3.8" transform="translate(-25.252 -30.511)" fill="#f0d2c8"/><path d="M414.219,367.417c0,1.771-19.566,3.207-43.7,3.207s-43.7-1.436-43.7-3.207,19.566-3.207,43.7-3.207,43.7,1.436,43.7,3.207" transform="translate(-37.767 -42.088)" fill="#f2f2f2"/><path d="M381.544,160.088l-.688-.8a7.143,7.143,0,0,0-3.38-2.131c-.2-.048-.409-.1-.626-.138-1.2-.217-2.48-.481-3.8-.762-.019-.009-.033,0-.051-.012-10.424-2.233-23.888-6.026-28.75-7.428-1.186-.347-1.865-.541-1.865-.541s-.462-.65-1.232-1.789c-3.183-4.706-11.638-17.652-13.971-25.8A56.322,56.322,0,0,0,326.3,110.4c-1.176-2.012-1.812.262-2.19,4.629l-2.691-7.159a2.544,2.544,0,0,0-4.7-.177c-1.753,4.014,2.612,11.492,5.9,14.947,2.455,10.292,11.319,24.9,13.948,29.086a1.277,1.277,0,0,0,.132.184,13.787,13.787,0,0,0,5.792,5.5c4.8,2.41,13.245,6.594,19.474,9.359a67.348,67.348,0,0,0,11.454,4.066,11.147,11.147,0,0,0,5.515-.411,6.482,6.482,0,0,0,2.609-10.332" transform="translate(-36.554 -12.274)" fill="#f0d2c8"/><g transform="translate(195.944 70.469)" opacity="0.1" style="mix-blend-mode:multiply;isolation:isolate"><g clip-path="url(#c)"><path d="M346.878,176.768c-.3.524-.629,1.03-.964,1.532h7.9a90.4,90.4,0,0,0-4.144-27.1c.02.148.051.305.073.451,1.365,8.484,1.419,17.66-2.866,25.113" transform="translate(-235.918 -87.943)"/><path d="M323.878,108.6q1.323,1.286,2.6,2.62c-.846-.892-1.714-1.763-2.6-2.62" transform="translate(-233.372 -83.02)"/><path d="M320.569,105.527q1.344,1.2,2.64,2.442-1.295-1.248-2.64-2.442" transform="translate(-232.989 -82.664)"/><path d="M317.034,102.518q1.433,1.162,2.814,2.384-1.382-1.219-2.814-2.384" transform="translate(-232.581 -82.317)"/><path d="M339.194,169.726c4.285-7.452,4.231-16.629,2.866-25.113-.021-.146-.052-.3-.073-.451-.068-.212-.138-.423-.206-.634-.153-.475-.307-.95-.468-1.421-.1-.286-.2-.569-.3-.854-.149-.423-.3-.846-.451-1.265-.115-.312-.236-.622-.355-.933-.149-.387-.3-.776-.449-1.161-.13-.329-.267-.654-.4-.982-.149-.364-.3-.727-.454-1.088-.143-.337-.292-.671-.439-1.006s-.309-.7-.465-1.042-.316-.677-.475-1.015-.317-.67-.478-1-.335-.68-.506-1.019-.329-.652-.5-.976-.353-.675-.532-1.01-.344-.64-.519-.959c-.183-.333-.37-.664-.556-.995s-.361-.632-.544-.945-.383-.654-.578-.98-.378-.624-.569-.933-.394-.638-.594-.953-.4-.627-.6-.938-.4-.613-.6-.917-.427-.631-.644-.945c-.2-.294-.4-.587-.608-.878-.226-.322-.457-.641-.688-.961-.2-.276-.4-.553-.6-.827-.248-.334-.5-.665-.752-1-.194-.253-.385-.507-.582-.757-.274-.353-.554-.7-.834-1.049-.18-.224-.356-.448-.539-.67-.311-.379-.628-.754-.945-1.129-.157-.186-.31-.372-.47-.556-.364-.423-.733-.84-1.106-1.257-.117-.13-.23-.262-.348-.391q-.678-.751-1.373-1.485c-.041-.042-.079-.085-.118-.126-.846-.892-1.716-1.763-2.6-2.62-.1-.093-.191-.187-.287-.28q-1.3-1.247-2.641-2.442c-.1-.092-.207-.185-.312-.277q-1.384-1.219-2.814-2.384c-.042-.035-.088-.07-.13-.1a90.392,90.392,0,0,0-16.582-10.651,24.918,24.918,0,0,0-5.75.195c-1.985.3-4.47,1.909-3.537,3.677l1.335.206a14.065,14.065,0,0,0-5,.075,4.711,4.711,0,0,0-3.515,3.243c-.6,2.679,2.039,4.969,4.577,6.032s5.49,1.8,6.975,4.112c.673,1.075.932,2.344,1.508,3.472a3.316,3.316,0,0,0,2.906,2.083c-3.3,1.941-8.1,1.572-10.2,4.772a5.238,5.238,0,0,0,.574,6.194,5.964,5.964,0,0,0,6.13,1.552c1.93-.617,3.633-2.179,5.651-2.049,1.444.1,2.658,1.031,4.025,1.487,2.43.824,5.109.076,7.636.532s5,3.341,3.461,5.392c-1.269,1.681-3.907,1.1-5.848.249-2.8-1.227-5.553-2.681-8.559-3.212s-6.422-.011-8.515,2.223c-1.411,1.508-1.931,3.764-3.352,5.2-1.6,1.6-3.766,2.07-4.84,4.295-1.53,3.189.315,6.91.259,10.446-.043,3.927-2.453,7.94-.966,11.575a7.063,7.063,0,0,0,5.01,3.971,11.536,11.536,0,0,0,6.53-.65c2.029-.759,3.907-1.909,6-2.527,5.154-1.519,8.667,1.856,7.82,6.889-.662,3.97-3.679,8.569-1.846,12.605.835,1.844,2.385,3.331,2.939,5.272.96,3.383-1.4,6.7-2.134,10.157a15.326,15.326,0,0,0,5.145-26.556l27.834,0c.335-.5.662-1.008.964-1.532" transform="translate(-228.234 -80.9)"/><path d="M300.067,91.349q.766.4,1.521.819c-.505-.277-1.011-.552-1.521-.819" transform="translate(-230.62 -81.026)"/><path d="M303.534,93.252q1.079.621,2.139,1.269-1.06-.649-2.139-1.269" transform="translate(-231.021 -81.246)"/><path d="M301.787,92.275c.517.284,1.034.57,1.545.864-.511-.294-1.028-.579-1.545-.864" transform="translate(-230.819 -81.133)"/><path d="M305.953,94.688q.539.33,1.072.669-.533-.338-1.072-.669" transform="translate(-231.3 -81.412)"/><path d="M298.136,90.357h-.011c.061.031.124.059.185.09l-.173-.089" transform="translate(-230.396 -80.911)"/><path d="M298.334,90.458c.514.257,1.024.522,1.533.789-.509-.267-1.019-.532-1.533-.789" transform="translate(-230.42 -80.923)"/><path d="M313.107,99.5q.383.281.763.568-.381-.287-.763-.568" transform="translate(-232.127 -81.967)"/><path d="M302.6,124.706c-2.527-.456-5.207.292-7.636-.532-1.367-.455-2.582-1.389-4.025-1.487-2.017-.13-3.721,1.432-5.652,2.049a5.962,5.962,0,0,1-6.129-1.552,5.236,5.236,0,0,1-.574-6.194c2.094-3.2,6.9-2.83,10.2-4.772a3.317,3.317,0,0,1-2.907-2.083c-.574-1.129-.835-2.4-1.507-3.472-1.486-2.31-4.447-3.049-6.975-4.112s-5.174-3.353-4.577-6.032a4.711,4.711,0,0,1,3.515-3.243,14.064,14.064,0,0,1,5-.075L280,92.995c-.933-1.769,1.552-3.374,3.537-3.677a24.916,24.916,0,0,1,5.738-.195,89.967,89.967,0,0,0-40.221-9.446l-.183,0,0,35.187c-.082-.1-.17-.195-.254-.293v.293a15.366,15.366,0,0,0-11.781-5.631,15.811,15.811,0,0,0-1.672.1,15.413,15.413,0,0,0-.083,30.607,15.994,15.994,0,0,0,1.883.108,15.369,15.369,0,0,0,11.651-5.627v.29c.084-.1.172-.191.254-.29l0,35.6h.628l34.755,0A15.56,15.56,0,0,0,282.227,172l-.005.006c-.089.105-.172.217-.259.325a15.4,15.4,0,0,0,10.366,24.829,15.541,15.541,0,0,0,6.234-.573c.732-3.461,3.093-6.774,2.134-10.157-.554-1.941-2.1-3.428-2.939-5.272-1.833-4.036,1.183-8.635,1.846-12.605.846-5.032-2.668-8.407-7.821-6.889-2.093.618-3.97,1.768-6,2.527a11.537,11.537,0,0,1-6.53.65,7.065,7.065,0,0,1-5.011-3.971c-1.486-3.634.923-7.648.967-11.575.055-3.536-1.789-7.257-.259-10.446,1.075-2.224,3.244-2.69,4.839-4.295,1.421-1.432,1.942-3.688,3.353-5.2,2.093-2.234,5.5-2.766,8.515-2.223s5.76,1.986,8.559,3.212c1.941.846,4.578,1.432,5.847-.249,1.541-2.05-.932-4.947-3.46-5.392" transform="translate(-221.546 -79.677)"/><path d="M313.97,100.137c.87.654,1.734,1.317,2.58,2-.846-.685-1.71-1.348-2.58-2" transform="translate(-232.227 -82.041)"/><path d="M309.549,97c.22.148.443.293.662.442-.219-.149-.442-.295-.662-.442" transform="translate(-231.716 -81.678)"/><path d="M307.165,95.444q1.064.673,2.108,1.373-1.044-.7-2.108-1.373" transform="translate(-231.44 -81.499)"/><path d="M310.3,97.5q1.259.862,2.484,1.768c-.819-.6-1.645-1.194-2.484-1.768" transform="translate(-231.802 -81.736)"/></g></g><path d="M346.878,174.819c-.3.524-.629,1.03-.964,1.531l7.9,0a90.393,90.393,0,0,0-4.144-27.1c.02.148.051.3.073.451,1.365,8.484,1.419,17.66-2.866,25.113" transform="translate(-39.974 -17.248)" fill="#009cfa"/><path d="M323.878,106.656c.882.857,1.749,1.727,2.6,2.62-.846-.892-1.714-1.763-2.6-2.62" transform="translate(-37.428 -12.325)" fill="#009cfa"/><path d="M320.569,103.578q1.344,1.2,2.64,2.442-1.295-1.248-2.64-2.442" transform="translate(-37.045 -11.97)" fill="#009cfa"/><path d="M317.034,100.569q1.433,1.162,2.814,2.384-1.382-1.221-2.814-2.384" transform="translate(-36.637 -11.622)" fill="#009cfa"/><path d="M339.194,167.777c4.285-7.452,4.231-16.629,2.866-25.113-.021-.147-.052-.3-.073-.451-.068-.212-.138-.423-.206-.634-.153-.475-.307-.95-.468-1.421-.1-.286-.2-.569-.3-.853-.149-.423-.3-.846-.451-1.265-.115-.312-.236-.622-.355-.932-.149-.388-.3-.777-.449-1.162-.13-.329-.267-.654-.4-.982-.149-.364-.3-.727-.454-1.088-.143-.337-.292-.671-.439-1.006s-.309-.7-.465-1.042-.316-.677-.475-1.015-.317-.67-.478-1-.335-.68-.506-1.019-.329-.652-.5-.976-.353-.675-.532-1.01-.344-.64-.519-.959c-.183-.333-.37-.664-.556-.995s-.361-.631-.544-.945-.383-.654-.578-.98-.378-.624-.569-.933-.394-.638-.594-.953-.4-.627-.6-.938-.4-.613-.6-.917-.427-.631-.644-.945c-.2-.294-.4-.587-.608-.878-.226-.322-.457-.641-.688-.961q-.3-.415-.6-.827c-.248-.334-.5-.665-.752-1-.194-.253-.385-.507-.582-.757-.274-.352-.554-.7-.834-1.049-.18-.224-.356-.448-.539-.67-.311-.379-.628-.754-.945-1.129-.157-.186-.31-.372-.47-.556-.364-.423-.733-.84-1.106-1.257-.117-.13-.23-.262-.348-.391q-.678-.751-1.373-1.485c-.041-.042-.079-.085-.118-.126-.846-.892-1.716-1.763-2.6-2.62-.1-.093-.191-.187-.287-.28q-1.3-1.247-2.641-2.442c-.1-.092-.207-.185-.312-.277q-1.384-1.219-2.814-2.384c-.042-.035-.088-.07-.13-.1A90.392,90.392,0,0,0,295.975,88.4a24.918,24.918,0,0,0-5.75.195c-1.985.3-4.47,1.909-3.537,3.678l1.335.206a14.065,14.065,0,0,0-5,.075,4.711,4.711,0,0,0-3.515,3.243c-.6,2.679,2.039,4.968,4.577,6.032s5.49,1.8,6.975,4.112c.673,1.075.932,2.344,1.508,3.472a3.316,3.316,0,0,0,2.906,2.083c-3.3,1.941-8.1,1.572-10.2,4.772a5.238,5.238,0,0,0,.574,6.194,5.964,5.964,0,0,0,6.13,1.552c1.93-.618,3.633-2.179,5.651-2.049,1.444.1,2.658,1.031,4.025,1.487,2.43.824,5.109.076,7.636.532s5,3.341,3.461,5.392c-1.269,1.681-3.907,1.1-5.848.249-2.8-1.227-5.553-2.681-8.559-3.212s-6.422-.011-8.515,2.223c-1.411,1.507-1.931,3.764-3.352,5.2-1.6,1.605-3.766,2.07-4.84,4.295-1.53,3.188.315,6.91.259,10.446-.043,3.927-2.453,7.941-.966,11.575a7.063,7.063,0,0,0,5.01,3.971,11.536,11.536,0,0,0,6.53-.65c2.029-.759,3.907-1.909,6-2.527,5.154-1.519,8.667,1.856,7.82,6.889-.662,3.97-3.679,8.569-1.846,12.605.835,1.844,2.385,3.331,2.939,5.272.96,3.383-1.4,6.7-2.134,10.157A15.326,15.326,0,0,0,310.4,169.3l27.834,0c.335-.5.662-1.007.964-1.531" transform="translate(-32.29 -10.206)" fill="#a6d2ac"/><path d="M300.067,89.4q.766.4,1.521.819c-.505-.277-1.011-.552-1.521-.819" transform="translate(-34.676 -10.331)" fill="#009cfa"/><path d="M303.534,91.3q1.079.621,2.139,1.269-1.06-.649-2.139-1.269" transform="translate(-35.077 -10.551)" fill="#009cfa"/><path d="M301.787,90.326c.517.284,1.034.57,1.545.864-.511-.294-1.028-.579-1.545-.864" transform="translate(-34.875 -10.438)" fill="#009cfa"/><path d="M305.953,92.739q.539.33,1.072.669-.533-.338-1.072-.669" transform="translate(-35.356 -10.717)" fill="#009cfa"/><path d="M298.136,88.408h-.011c.061.031.124.059.185.09l-.173-.089" transform="translate(-34.452 -10.216)" fill="#009cfa"/><path d="M298.334,88.509c.514.257,1.024.522,1.533.789-.509-.267-1.019-.532-1.533-.789" transform="translate(-34.476 -10.228)" fill="#009cfa"/><path d="M313.107,97.547q.383.281.763.567-.381-.285-.763-.567" transform="translate(-36.183 -11.273)" fill="#009cfa"/><path d="M302.6,122.757c-2.527-.456-5.207.292-7.636-.532-1.367-.455-2.582-1.389-4.025-1.487-2.017-.13-3.721,1.432-5.652,2.049a5.962,5.962,0,0,1-6.129-1.552,5.236,5.236,0,0,1-.574-6.194c2.094-3.2,6.9-2.83,10.2-4.772a3.317,3.317,0,0,1-2.907-2.083c-.574-1.129-.835-2.4-1.507-3.472-1.486-2.31-4.447-3.049-6.975-4.112s-5.174-3.353-4.577-6.032a4.711,4.711,0,0,1,3.515-3.243,14.064,14.064,0,0,1,5-.075L280,91.046c-.933-1.769,1.552-3.374,3.537-3.678a24.916,24.916,0,0,1,5.738-.195,89.967,89.967,0,0,0-40.221-9.446l-.183,0,0,35.187c-.082-.1-.17-.195-.254-.293v.293a15.366,15.366,0,0,0-11.781-5.631,15.811,15.811,0,0,0-1.672.1A15.413,15.413,0,0,0,235.077,138a15.994,15.994,0,0,0,1.883.108,15.369,15.369,0,0,0,11.651-5.627v.29c.084-.1.172-.191.254-.29l0,35.6h.628l34.755.005a15.445,15.445,0,0,0-2.016,1.972l-.005.005c-.089.105-.172.217-.259.325a15.4,15.4,0,0,0,10.366,24.829,15.541,15.541,0,0,0,6.234-.573c.732-3.461,3.093-6.774,2.134-10.157-.554-1.941-2.1-3.428-2.939-5.272-1.833-4.036,1.183-8.635,1.846-12.605.846-5.032-2.668-8.407-7.821-6.889-2.093.618-3.97,1.768-6,2.527a11.537,11.537,0,0,1-6.53.65,7.065,7.065,0,0,1-5.011-3.971c-1.486-3.634.923-7.648.967-11.575.055-3.536-1.789-7.257-.259-10.446,1.075-2.224,3.244-2.69,4.839-4.295,1.421-1.432,1.942-3.688,3.353-5.2,2.093-2.234,5.5-2.766,8.515-2.223s5.76,1.986,8.559,3.212c1.941.846,4.578,1.432,5.847-.249,1.541-2.05-.932-4.947-3.46-5.392" transform="translate(-25.602 -8.982)" fill="#009cfa"/><path d="M313.97,98.188c.87.654,1.734,1.317,2.58,2-.846-.685-1.71-1.348-2.58-2" transform="translate(-36.283 -11.347)" fill="#009cfa"/><path d="M309.549,95.047c.22.148.443.293.662.442-.219-.149-.442-.295-.662-.442" transform="translate(-35.772 -10.984)" fill="#009cfa"/><path d="M307.165,93.5q1.064.673,2.108,1.373-1.044-.7-2.108-1.373" transform="translate(-35.496 -10.804)" fill="#009cfa"/><path d="M310.3,95.547q1.259.864,2.484,1.769-1.228-.9-2.484-1.769" transform="translate(-35.858 -11.041)" fill="#009cfa"/><path d="M400.849,172.767c-.792-10.765-9.358-40.534-11.331-43.4,0,0-4.095-3.749-12.157,1.062-5.621,3.355-9.008,8.934-10.346,15.2-1.923,9.005-2.989,18.118-2.155,27.324a76.665,76.665,0,0,0,1.7,10.56c.13.555,1.981,7.764,2.78,7.179.7-.511,2.509-3.364,2.116-4.291.624,1.467,7.536,11.992,8.4,11.561a19,19,0,0,0,6.532-4.476c1.14-1.185,4.758-4.759,4.741-6.46.019,1.944-.992,3.453-1.5,5.231,3.436-2.621,7-4.642,9.094-8.589a20.225,20.225,0,0,0,2.131-10.9" transform="translate(-42.13 -14.788)" fill="#488288"/><path d="M357.108,238.618l-.013-.071c0-.007.012.065.013.071" transform="translate(-41.266 -27.567)" fill="#6ca8fb"/><path d="M369.741,172.8c8.568-.794,13.508-6.892,15.529-10.278l-1.416-2.384a23.949,23.949,0,0,1-2.142-4.629l-1.537-4.526-6.184,2.66a9.518,9.518,0,0,1-.225,6.892,4.992,4.992,0,0,1-2.3,2.539l-.034.018-2.4,1.122c-5.959,7.826.708,8.585.708,8.585" transform="translate(-42.359 -17.448)" fill="#e0b8ab"/><path d="M387.466,147.146c1.121-1.562,1.607-4.038.221-4.766a2.646,2.646,0,0,0-1.566-.181c.988-5.365-.356-12.369-3.819-14.189-4.533-2.382-9.579-1.774-15.41,10.1-2.308,4.7-1.172,11.152,3.105,13.9,3.215,2.066,8.83.034,12.389-3.1,1.717.207,3.659.214,5.079-1.766" transform="translate(-42.263 -14.664)" fill="#f0d2c8"/><path d="M370.934,144.576a.26.26,0,0,1-.065-.028c-.512-.311-1.175-.789-1.023-1.335.211-.758,1.933-.846,2.663-.848a.28.28,0,1,1,0,.56c-1.031,0-2.066.216-2.127.438,0,0-.02.223.775.708a.279.279,0,0,1-.226.506" transform="translate(-42.737 -16.452)" fill="#004f56"/><path d="M370.121,148.366a4.6,4.6,0,0,1-.472-.222.32.32,0,0,1-.118-.433.309.309,0,0,1,.434-.118c.138.081,3.471,1.935,5.751-1.107a.314.314,0,0,1,.445-.064.318.318,0,0,1,.064.445,4.914,4.914,0,0,1-6.1,1.5" transform="translate(-42.698 -16.913)" fill="#004f56"/><path d="M381.618,141.068a.318.318,0,0,1-.224-.261,2,2,0,0,0-2.15-1.863.317.317,0,1,1-.054-.632,2.618,2.618,0,0,1,2.835,2.407.32.32,0,0,1-.407.348" transform="translate(-43.786 -15.982)" fill="#004f56"/><path d="M372.995,136.407a.266.266,0,0,1-.285-.043,1.677,1.677,0,0,0-2.39,0,.266.266,0,1,1-.381-.372,2.2,2.2,0,0,1,3.123-.027.268.268,0,0,1,.024.377.28.28,0,0,1-.091.068" transform="translate(-42.742 -15.638)" fill="#004f56"/><path d="M378.446,142.236c-.246.692-.713,1.158-1.042,1.041s-.4-.774-.151-1.466.713-1.158,1.043-1.04.4.773.15,1.465" transform="translate(-43.578 -16.266)" fill="#004f56"/><path d="M371.61,139.8c-.246.693-.713,1.158-1.042,1.041s-.4-.773-.151-1.466.713-1.158,1.043-1.04.4.773.15,1.465" transform="translate(-42.788 -15.984)" fill="#004f56"/><path d="M367.444,349.623c.041.17.073.34.113.5-1.958.154-3.715.437-5.665.624a.315.315,0,0,1-.008-.065c-.486-2.088-12.019-52.97-11.088-69.407.057-.954-.121-2.629-.121-3.229,0-.283,0-.558.016-.866v-.154c-.016-2.711-.016-4.969-.008-6.944h16.47c-.437,3.8-.842,7.891-1.222,11.929-1.279,13.734-2.416,26.955-2.416,26.955,2.445,1.009,2.177,4.195,1.991,6.736-.17,2.5-.157,23.827,1.939,33.919" transform="translate(-40.524 -31.211)" fill="#f0d2c8"/><path d="M389.032,259.274H370.247c-.42-3.254-.809-6.386-1.149-9.291-.5,2.453-.987,5.666-1.449,9.291H350.711c.065-5.819.187-9.542.129-18.5v-.243c-.1-10.124,4.371-19.359,6.871-28.69H376.3c.914,5.1,4.816,8.846,7.389,13.16a47.45,47.45,0,0,1,5.575,15.5c.4,2.071.187,9.6-.234,18.776" transform="translate(-40.528 -24.48)" fill="#6ca8fb"/><path d="M403.066,349.833c-.089.057-.178.113-.259.162-.93.583-1.837,1.109-2.751,1.643-.6.348-1.206.7-1.821,1.076-6.086-11.671-12.852-28.116-18.056-43.161-1.254-3.667-3.229-14.891-5.058-27.315-.6-4-1.174-8.125-1.716-12.156h18.056c-.769,15.757-2.556,34.3-2.362,39.136,5.643-.682,7.8,31.63,13.968,40.613" transform="translate(-43.151 -31.211)" fill="#f0d2c8"/><path d="M385.148,165.691,384.129,164c-4.146-1.593-7.273,5.407-14.009,6.667-2.85.536-4.629-3.16-2.315-4.906a.165.165,0,0,0,.087-.069l-.9.416a30.5,30.5,0,0,0-6.875,4.214,9.544,9.544,0,0,0-3.23,9.242l2.453,9.483a31.078,31.078,0,0,1,.1,12.679c-.277,1.537-.639,3.04-1.037,4.559H377c-.018-.069-.018-.12-.034-.189a12.614,12.614,0,0,1,.327-4.37c1.763-8.309,8.585-21.972,8.948-24.1.9-5.32-1.986-6.615-1.088-11.936" transform="translate(-41.225 -18.925)" fill="#df9c07"/><path d="M384.009,138.7a16.783,16.783,0,0,1-.347,5.82,25.533,25.533,0,0,1-1.478,4.073c-1.339,2.648-2.708,5.34-3.785,8.109-1.795,4.609-4.328,8.806-4.94,13.782a43.337,43.337,0,0,0-.281,4.647c.751-2.461,1.158-5.3,2.556-7.507A16.2,16.2,0,0,1,378.646,164c1.11-.968,2.453-1.747,3.5-2.787,3.407-3.4,4.282-9.12,5.415-13.593a25.969,25.969,0,0,0,.854-4.351c.073-1.06-.651-3.385,0-4.209" transform="translate(-43.125 -16.028)" fill="#488288"/><path d="M392.779,133.532c.027.038.044.08.07.118l.494-.3c-.119.019-.335.213-.564.179" transform="translate(-45.39 -15.41)" fill="#df9c07"/><path d="M380.159,123.6c-7.117-1.211-11.853,4.749-17.749,7.366.776.767,1.878.65,2.843.958a12.364,12.364,0,0,1-3.877,2.7c3.754,1.324,8.958.219,12.632-.736a42.676,42.676,0,0,0,5.3-1.959c2.027,2.328,3.772,6.31,3.657,9.1a12.947,12.947,0,0,1-2.452,7.71c3.751-2.052,8.465-2.583,9.665-12.51.741-6.128-1.2-11.128-10.015-12.629" transform="translate(-41.761 -14.265)" fill="#488288"/><path d="M381.953,161.967l-.811-.672a7.149,7.149,0,0,0-3.685-1.542c-.21-.013-.419-.027-.64-.032-1.22-.015-2.526-.065-3.872-.124-.019-.005-.032,0-.052,0-10.65-.476-24.556-1.986-29.582-2.566-1.228-.145-1.93-.225-1.93-.225s-.563-.564-1.511-1.561c-3.919-4.114-14.4-15.481-18.05-23.131a56.32,56.32,0,0,0-2.578-10c-1.493-1.789-1.744.559-1.394,4.928l-3.839-6.615a2.544,2.544,0,0,0-4.659.6c-1.065,4.25,4.478,10.9,8.292,13.765,4.126,9.744,15.286,22.684,18.571,26.375a1.186,1.186,0,0,0,.159.16,13.786,13.786,0,0,0,6.623,4.463c5.131,1.583,14.155,4.312,20.755,6.006a67.31,67.31,0,0,0,11.97,2.114,11.143,11.143,0,0,0,5.371-1.319,6.482,6.482,0,0,0,.862-10.621" transform="translate(-35.733 -13.769)" fill="#f0d2c8"/><path d="M368.66,265.472v4.079H349.932l-1.134-4.079Z" transform="translate(-40.307 -30.678)" fill="#009cfa"/><path d="M392.634,265.472l-1.141,4.079H372.774v-4.079Z" transform="translate(-43.078 -30.678)" fill="#009cfa"/><path d="M404.194,359.574c2.921,7.427-2.828,7.621-17.394,7.757-2.024.006-3.466-2.112-.043-3.217l10.949-4.718s5.323-.122,6.385-.068Z" transform="translate(-44.456 -41.523)" fill="#df9c07"/><path d="M367.523,359.574c2.921,7.427-2.828,7.621-17.394,7.757-2.024.006-3.466-2.112-.043-3.217l10.949-4.718s5.323-.122,6.385-.068Z" transform="translate(-40.218 -41.523)" fill="#df9c07"/><path d="M296.114,57.546a3.48,3.48,0,0,1-1.9.586,3.36,3.36,0,0,1-1.664-.723,11.708,11.708,0,0,1-1.382-1.167,16.47,16.47,0,0,1-5.01-12.176,20.69,20.69,0,0,1,.491-3.985,2.9,2.9,0,0,1,1.2-2.053,1.9,1.9,0,0,1,2.41.772,5.256,5.256,0,0,1,.552,2.652c-.1-2.3,1.969-4.236,3.931-5.675a17.436,17.436,0,0,1,5.6-3,6.508,6.508,0,0,1,5.85.925.989.989,0,0,1,.356.483c.129.517-.448.964-.909,1.3a6.862,6.862,0,0,0-2.809,5.846,2.813,2.813,0,0,1,1.726,1.081c.478.876-.117,2.025-.874,2.788a11.3,11.3,0,0,0-2.209,2.318,8.33,8.33,0,0,0-.585,3,9.807,9.807,0,0,1-4.772,7.028" transform="translate(-33.067 -3.754)" fill="#a6d2ac"/><path d="M290.89,63.667A42.6,42.6,0,0,1,299.14,41.7a.567.567,0,1,1,.886.708,38.467,38.467,0,0,0-5.1,9.877,37.5,37.5,0,0,0-2.848,11.247c-.034.739-1.224.88-1.189.133" transform="translate(-33.615 -4.792)" fill="#004f56"/><path d="M294,52.375A18.841,18.841,0,0,1,289.086,43c-.144-.71.991-1.144,1.136-.425a17.834,17.834,0,0,0,4.568,8.888c.494.52-.3,1.442-.794.916" transform="translate(-33.406 -4.877)" fill="#004f56"/><path d="M296.559,47.9a22.426,22.426,0,0,1,5.013-3.043c.715-.317,1.068.761.354,1.077a21.183,21.183,0,0,0-4.724,2.891c-.611.492-1.251-.436-.643-.925" transform="translate(-34.242 -5.177)" fill="#004f56"/><path d="M297.213,45.852a17.349,17.349,0,0,0,.778-5.588c-.02-.74,1.168-.877,1.189-.134a18.279,18.279,0,0,1-.8,5.884c-.221.723-1.385.565-1.162-.163" transform="translate(-34.343 -4.58)" fill="#004f56"/><path d="M382.4,99.078a2.955,2.955,0,0,1-.881-1.443,2.849,2.849,0,0,1,.247-1.52,9.839,9.839,0,0,1,.669-1.381,13.974,13.974,0,0,1,8.966-6.668,17.582,17.582,0,0,1,3.38-.431,2.463,2.463,0,0,1,1.94.561,1.616,1.616,0,0,1-.13,2.144,4.46,4.46,0,0,1-2.065,1.008c1.867-.561,3.9.733,5.489,2.047a14.8,14.8,0,0,1,3.642,3.976,5.523,5.523,0,0,1,.463,5,.838.838,0,0,1-.323.394c-.4.215-.887-.167-1.262-.476a5.823,5.823,0,0,0-5.4-1.086,2.385,2.385,0,0,1-.528,1.646,2.176,2.176,0,0,1-2.475-.136,9.609,9.609,0,0,0-2.369-1.332,7.089,7.089,0,0,0-2.59.147,8.322,8.322,0,0,1-6.777-2.453" transform="translate(-44.085 -10.127)" fill="#488288"/><path d="M376.385,96.339a36.142,36.142,0,0,1,19.789,2.19.481.481,0,1,1-.4.876,32.649,32.649,0,0,0-9.19-2.127,31.833,31.833,0,0,0-9.844.011c-.615.126-.98-.823-.358-.95" transform="translate(-43.458 -11.071)" fill="#004f56"/><path d="M387.782,96.011a15.985,15.985,0,0,1,6.686-6c.554-.268,1.149.574.586.846a15.129,15.129,0,0,0-6.353,5.616c-.325.515-1.248.058-.92-.462" transform="translate(-44.804 -10.396)" fill="#004f56"/><path d="M392.53,97.263a19.025,19.025,0,0,1,3.552,3.486c.41.521-.4,1.037-.812.517a17.944,17.944,0,0,0-3.366-3.28c-.532-.4.1-1.121.626-.723" transform="translate(-45.265 -11.226)" fill="#004f56"/><path d="M394.064,97.377a14.719,14.719,0,0,0,4.758-.529c.6-.172.967.777.358.95a15.505,15.505,0,0,1-5.007.569c-.641-.031-.755-1.021-.11-.99" transform="translate(-45.488 -11.189)" fill="#004f56"/><path d="M87.469,60.816a2.887,2.887,0,0,0-.518-1.567,2.766,2.766,0,0,0-1.288-.777,9.612,9.612,0,0,0-1.45-.374,13.649,13.649,0,0,0-10.63,2.461A17.168,17.168,0,0,0,71.126,62.8a2.408,2.408,0,0,0-.809,1.8A1.58,1.58,0,0,0,72,65.86a4.364,4.364,0,0,0,2.056-.9c-1.6,1.036-1.917,3.364-1.946,5.38a14.454,14.454,0,0,0,.66,5.224A5.394,5.394,0,0,0,76.2,79.07a.82.82,0,0,0,.5.008c.412-.161.437-.765.444-1.239a5.687,5.687,0,0,1,2.6-4.7,2.332,2.332,0,0,0,1.559.647c.82-.1,1.311-1.052,1.463-1.928a9.378,9.378,0,0,1,.505-2.606,6.916,6.916,0,0,1,1.746-1.835,8.125,8.125,0,0,0,2.456-6.6" transform="translate(-8.125 -6.687)" fill="#a6d2ac"/><path d="M89.036,54.021A35.3,35.3,0,0,0,78.161,70.139a.47.47,0,1,0,.9.258,31.829,31.829,0,0,1,4.224-8.186,31.063,31.063,0,0,1,6.228-7.323c.483-.378.007-1.249-.48-.867" transform="translate(-9.029 -6.232)" fill="#004f56"/><path d="M82.4,62.72A15.613,15.613,0,0,0,73.7,63.907c-.549.243-.3,1.218.258.971a14.78,14.78,0,0,1,8.2-1.182c.589.084.832-.892.238-.976" transform="translate(-8.482 -7.228)" fill="#004f56"/><path d="M80.858,66.588a18.605,18.605,0,0,0,.351,4.848c.129.635,1.027.356.9-.279a17.508,17.508,0,0,1-.315-4.579c.038-.649-.9-.636-.934.01" transform="translate(-9.34 -7.638)" fill="#004f56"/><path d="M79.581,67.841a14.37,14.37,0,0,1-3.4,3.209c-.51.341-.032,1.21.48.867a15.139,15.139,0,0,0,3.588-3.369c.382-.5-.283-1.207-.668-.707" transform="translate(-8.778 -7.82)" fill="#004f56"/><path d="M136.241,35.32a3.533,3.533,0,0,0,1.418-1.439,3.4,3.4,0,0,0,.127-1.836,11.823,11.823,0,0,0-.4-1.788,16.7,16.7,0,0,0-8.614-10.2,20.957,20.957,0,0,0-3.815-1.422,2.944,2.944,0,0,0-2.409.124,1.931,1.931,0,0,0-.432,2.529,5.332,5.332,0,0,0,2.128,1.736c-2.019-1.161-4.733-.209-6.944.885a17.66,17.66,0,0,0-5.32,3.634,6.6,6.6,0,0,0-1.9,5.7,1.008,1.008,0,0,0,.269.546c.405.358,1.077.048,1.6-.21a6.958,6.958,0,0,1,6.573.206,2.851,2.851,0,0,0,.165,2.058c.564.839,1.877.841,2.917.517a11.46,11.46,0,0,1,3.119-.9,8.44,8.44,0,0,1,2.973.876,9.946,9.946,0,0,0,8.553-1.008" transform="translate(-12.707 -2.131)" fill="#488288"/><path d="M144.749,33.9a43.183,43.183,0,0,0-23.621-2.843.575.575,0,1,0,.223,1.128,39,39,0,0,1,11.271.028A38.018,38.018,0,0,1,144.073,34.9c.681.314,1.364-.69.676-1.007" transform="translate(-13.942 -3.524)" fill="#004f56"/><path d="M133.624,30.533a19.114,19.114,0,0,0-6.145-8.8c-.57-.462-1.492.355-.913.823a18.081,18.081,0,0,1,5.86,8.265c.238.688,1.436.408,1.2-.287" transform="translate(-14.605 -2.495)" fill="#004f56"/><path d="M128.107,30.926a22.735,22.735,0,0,0-5.082,3.088c-.619.494.186,1.316.8.822a21.449,21.449,0,0,1,4.81-2.9c.728-.32.192-1.329-.532-1.011" transform="translate(-14.191 -3.567)" fill="#004f56"/><path d="M126.2,30.47a17.575,17.575,0,0,1-5.392-1.912c-.656-.364-1.336.641-.676,1.007a18.561,18.561,0,0,0,5.671,2.027c.754.138,1.157-.983.4-1.122" transform="translate(-13.852 -3.291)" fill="#004f56"/><path d="M43.684,187.19a2.716,2.716,0,0,0-.246-1.532,2.622,2.622,0,0,0-1.079-.915,9.048,9.048,0,0,0-1.291-.563,12.829,12.829,0,0,0-10.233.7,16.1,16.1,0,0,0-2.614,1.716,2.265,2.265,0,0,0-1.02,1.549,1.483,1.483,0,0,0,1.37,1.418,4.085,4.085,0,0,0,2.042-.528c-1.637.723-2.281,2.836-2.609,4.7a13.578,13.578,0,0,0-.169,4.947,5.071,5.071,0,0,0,2.662,3.768.771.771,0,0,0,.46.082c.406-.088.519-.646.6-1.084a5.345,5.345,0,0,1,3.116-3.976,2.192,2.192,0,0,0,1.351.833c.776.032,1.374-.779,1.646-1.571a8.816,8.816,0,0,1,.858-2.343,6.5,6.5,0,0,1,1.894-1.442,7.641,7.641,0,0,0,3.265-5.755" transform="translate(-3.143 -21.198)" fill="#488288"/><path d="M45.964,181.134a33.186,33.186,0,0,0-12.5,13.334.442.442,0,1,0,.8.375,29.954,29.954,0,0,1,5.143-6.967,29.2,29.2,0,0,1,6.876-5.865c.5-.279.193-1.159-.317-.877" transform="translate(-3.861 -20.926)" fill="#004f56"/><path d="M38.785,188.1a14.671,14.671,0,0,0-8.245-.2c-.546.144-.458,1.086.1.94a13.886,13.886,0,0,1,7.782.129c.534.165.906-.7.367-.871" transform="translate(-3.487 -21.657)" fill="#004f56"/><path d="M36.757,191.368a17.508,17.508,0,0,0-.4,4.551c.026.608.9.484.875-.124a16.454,16.454,0,0,1,.393-4.3c.133-.6-.736-.723-.869-.13" transform="translate(-4.2 -22.07)" fill="#004f56"/><path d="M35.37,192.406a13.5,13.5,0,0,1-3.636,2.469c-.524.241-.21,1.119.317.876a14.271,14.271,0,0,0,3.833-2.59c.429-.4-.082-1.163-.514-.756" transform="translate(-3.636 -22.221)" fill="#004f56"/><path d="M148.311,305.373A2.709,2.709,0,0,0,146.8,305a2.611,2.611,0,0,0-1.262.636,9.1,9.1,0,0,0-1.023.968,12.824,12.824,0,0,0-3.356,9.692,16.112,16.112,0,0,0,.558,3.078,2.261,2.261,0,0,0,1.027,1.542,1.483,1.483,0,0,0,1.841-.707,4.1,4.1,0,0,0,.311-2.087c.026,1.79,1.719,3.208,3.31,4.239a13.6,13.6,0,0,0,4.489,2.087,5.07,5.07,0,0,0,4.508-.98.774.774,0,0,0,.255-.391c.078-.409-.392-.731-.765-.973a5.347,5.347,0,0,1-2.444-4.421,2.191,2.191,0,0,0,1.294-.918c.333-.7-.18-1.569-.8-2.129a8.772,8.772,0,0,1-1.821-1.705,6.49,6.49,0,0,1-.588-2.307,7.642,7.642,0,0,0-4.022-5.254" transform="translate(-16.308 -35.245)" fill="#488288"/><path d="M143.919,301.19A33.177,33.177,0,0,0,151.31,317.9a.442.442,0,1,0,.658-.589,29.947,29.947,0,0,1-4.4-7.456,29.219,29.219,0,0,1-2.714-8.619c-.06-.573-.991-.631-.93-.051" transform="translate(-16.631 -34.759)" fill="#004f56"/><path d="M146.962,311.063a14.669,14.669,0,0,0-3.4,7.512c-.081.559.82.846.9.279a13.889,13.889,0,0,1,3.158-7.114c.361-.426-.295-1.108-.659-.677" transform="translate(-16.589 -35.931)" fill="#004f56"/><path d="M149.136,315.083a17.489,17.489,0,0,0,4.034,2.145c.57.214.8-.639.227-.853a16.5,16.5,0,0,1-3.8-2.04c-.5-.356-.953.394-.459.748" transform="translate(-17.21 -36.314)" fill="#004f56"/><path d="M149.72,316.375a13.49,13.49,0,0,1,.853,4.312c.017.577.947.63.93.05a14.258,14.258,0,0,0-.887-4.54c-.2-.553-1.1-.379-.9.178" transform="translate(-17.298 -36.501)" fill="#004f56"/><path d="M137.159,346.66a3.688,3.688,0,0,1-.524,2.032,3.534,3.534,0,0,1-1.569,1.094,12.25,12.25,0,0,1-1.809.6,17.35,17.35,0,0,1-13.691-2.226,21.874,21.874,0,0,1-3.3-2.64,3.057,3.057,0,0,1-1.177-2.213,2.006,2.006,0,0,1,2.023-1.737,5.544,5.544,0,0,1,2.684.969c-2.114-1.179-2.714-4.106-2.921-6.66a18.359,18.359,0,0,1,.4-6.682,6.861,6.861,0,0,1,4.06-4.738,1.043,1.043,0,0,1,.63-.052c.536.17.617.935.666,1.535a7.226,7.226,0,0,0,3.7,5.746,2.957,2.957,0,0,1,1.922-.952c1.05.055,1.752,1.222,2.018,2.323a11.86,11.86,0,0,0,.861,3.262,8.734,8.734,0,0,0,2.369,2.181,10.336,10.336,0,0,1,3.671,8.16" transform="translate(-13.299 -37.485)" fill="#a6d2ac"/><path d="M139.612,355.942a44.864,44.864,0,0,1-15.153-19.527.6.6,0,1,1,1.124-.4,40.478,40.478,0,0,0,6.047,10.028c2.461,3.212,5.23,6.519,8.519,8.763.643.439.114,1.584-.537,1.14" transform="translate(-14.377 -38.782)" fill="#004f56"/><path d="M130.616,347.866a19.842,19.842,0,0,1-11.125-.772c-.717-.263-.481-1.519.246-1.253a18.787,18.787,0,0,0,10.5.807c.739-.157,1.13,1.061.384,1.219" transform="translate(-13.758 -39.961)" fill="#004f56"/><path d="M128.336,342.533a23.641,23.641,0,0,1,.036-6.178c.111-.816,1.273-.539,1.162.277a22.294,22.294,0,0,0-.013,5.835c.1.82-1.082.882-1.185.066" transform="translate(-14.809 -38.813)" fill="#004f56"/><path d="M126.592,341.282a18.25,18.25,0,0,0-4.584-3.783c-.676-.391-.142-1.533.537-1.141a19.293,19.293,0,0,1,4.834,3.97c.526.6-.257,1.556-.787.953" transform="translate(-14.063 -38.86)" fill="#004f56"/></g></g></svg>