<svg xmlns="http://www.w3.org/2000/svg" width="105" height="105" viewBox="0 0 105 105"><g transform="translate(-1102 -1217)"><circle cx="52.5" cy="52.5" r="52.5" transform="translate(1102 1217)" fill="#adc46c"/><g transform="translate(1124.124 1240.076)"><g transform="translate(31.477 6.396)"><path d="M149.021,9.369v2.169a.947.947,0,0,1-.946.946H137.79a.947.947,0,0,1-.946-.946V9.369a.946.946,0,0,1,.946-.946h10.284A.946.946,0,0,1,149.021,9.369Z" transform="translate(-136.844 -8.423)" fill="#efbf27"/></g><g transform="translate(22.306 8.427)"><path d="M118.912,20.1V54.735a.946.946,0,0,1-.946.946H102.785V44.451a.56.56,0,0,0-.874-.464l-4.38,2.974a.561.561,0,0,1-.876-.464V44.451a.56.56,0,0,0-.874-.464l-3.473,2.357-.909.617a.561.561,0,0,1-.876-.464V44.451a.56.56,0,0,0-.874-.464l-1.253.85V20.1a.947.947,0,0,1,.946-.946h8.224v1.085a.947.947,0,0,0,.946.946H108.8a.947.947,0,0,0,.946-.946V19.153h8.224a.947.947,0,0,1,.946.946Z" transform="translate(-88.394 -19.153)" fill="#72c2e9"/></g><g transform="translate(22.306 31.837)"><path d="M104.11,144.717v11.23h-1.325v-11.23a.56.56,0,0,0-.874-.464l-4.38,2.974a.561.561,0,0,1-.876-.464v-2.046a.56.56,0,0,0-.874-.464l-3.473,2.357-.909.617a.561.561,0,0,1-.876-.464v-2.046a.56.56,0,0,0-.874-.464l-1.253.85v-1.6l.509-.344a1.887,1.887,0,0,1,2.943,1.56v.6l.46-.312,2.729-1.851a1.886,1.886,0,0,1,2.943,1.56v.6l3.188-2.164A1.887,1.887,0,0,1,104.11,144.717Z" transform="translate(-88.394 -142.829)" fill="#4ba4c7"/></g><g transform="translate(26.219 12.635)"><path d="M131.757,41.951V70.194a.568.568,0,0,1-.568.568H119.543V62.473a.56.56,0,0,0-.874-.464l-4.38,2.974a.561.561,0,0,1-.876-.464V62.473a.56.56,0,0,0-.874-.464l-3.473,2.357V41.951a.567.567,0,0,1,.568-.568h21.558a.567.567,0,0,1,.568.568Z" transform="translate(-109.064 -41.383)" fill="#eee"/></g><g transform="translate(31.056 19.761)"><path d="M137.91,88.759l-2.446-2.446a2.886,2.886,0,0,1,4.081-4.081l.405.405,2.764-2.762a2.886,2.886,0,1,1,4.08,4.081l-4.8,4.8A2.889,2.889,0,0,1,137.91,88.759Z" transform="translate(-134.621 -79.03)" fill="#aeaeae"/></g><g transform="translate(38.848 14.055)"><path d="M183.958,75.423h-5.237a.473.473,0,0,1,0-.946h4.764V49.356a.473.473,0,0,1,.946,0V74.949A.473.473,0,0,1,183.958,75.423Zm-7.13,0h-.568a.473.473,0,1,1,0-.946h.568a.473.473,0,0,1,0,.946Z" transform="translate(-175.787 -48.883)" fill="#fff"/></g><g transform="translate(26.219 31.837)"><path d="M120.868,144.717v8.289h-1.325v-8.289a.56.56,0,0,0-.874-.464l-4.38,2.974a.561.561,0,0,1-.876-.464v-2.046a.56.56,0,0,0-.874-.464l-3.473,2.357v-1.6l2.729-1.851a1.886,1.886,0,0,1,2.943,1.56v.6l3.188-2.164A1.887,1.887,0,0,1,120.868,144.717Z" transform="translate(-109.064 -142.829)" fill="#aeaeae"/></g><g transform="translate(7.349 28.68)"><g transform="translate(0.116 3.398)"><path d="M21.361,163.687H11.193a1.2,1.2,0,0,1-1.206-1.25l.617-17.027.047-1.309h10l.047,1.309.125,3.441Z" transform="translate(-9.986 -144.102)" fill="#fc5d3d"/></g><g transform="translate(1.561 5.649)"><path d="M18.076,171.91a.473.473,0,0,1-.456-.49l.02-.567a.473.473,0,1,1,.946.034l-.02.567A.473.473,0,0,1,18.076,171.91Zm.089-2.459a.473.473,0,0,1-.456-.49l.453-12.509a.473.473,0,1,1,.946.034L18.655,169A.473.473,0,0,1,18.165,169.451Z" transform="translate(-17.62 -155.996)" fill="#ffcac2"/></g><g transform="translate(0.733 3.399)"><path d="M23.34,145.415h-10.1l.047-1.309h10Z" transform="translate(-13.245 -144.106)" fill="#b14e34"/></g><g transform="translate(10.954 4.483)"><path d="M85.639,150.4V167.4a.934.934,0,0,1-.935.933H67.78L67.244,153.5l1.278-.869,2.726-1.849,1.253-.85a.56.56,0,0,1,.874.464v2.046a.561.561,0,0,0,.876.464l.909-.617,3.473-2.357a.56.56,0,0,1,.874.464v2.046a.561.561,0,0,0,.876.464l4.38-2.974a.56.56,0,0,1,.874.464Z" transform="translate(-67.244 -149.834)" fill="#eee"/></g><g transform="translate(10.953 7.281)"><path d="M69.089,180.32h-1.31l-.536-14.836,1.278-.867Z" transform="translate(-67.242 -164.617)" fill="#aeaeae"/></g><path d="M20.936,126.711v2.277a.56.56,0,0,1-.561.561H9.936a.56.56,0,0,1-.561-.561v-2.277a.56.56,0,0,1,.561-.561H20.375A.56.56,0,0,1,20.936,126.711Z" transform="translate(-9.375 -126.15)" fill="#eee"/><g transform="translate(13.643 12.482)"><path d="M83.513,198.485H82.018a.568.568,0,0,1-.568-.568v-5.258a.568.568,0,0,1,.568-.568h1.495a.568.568,0,0,1,.568.568v5.258A.568.568,0,0,1,83.513,198.485Z" transform="translate(-81.45 -192.091)" fill="#72c2e9"/></g><g transform="translate(19.104 12.482)"><path d="M112.365,198.485H110.87a.568.568,0,0,1-.568-.568v-5.258a.568.568,0,0,1,.568-.568h1.495a.568.568,0,0,1,.568.568v5.258A.568.568,0,0,1,112.365,198.485Z" transform="translate(-110.302 -192.091)" fill="#72c2e9"/></g><g transform="translate(24.565 12.482)"><path d="M141.217,198.485h-1.495a.568.568,0,0,1-.568-.568v-5.258a.568.568,0,0,1,.568-.568h1.495a.568.568,0,0,1,.568.568v5.258A.568.568,0,0,1,141.217,198.485Z" transform="translate(-139.154 -192.091)" fill="#72c2e9"/></g></g><g transform="translate(32.38 21.087)"><path d="M151.529,88.7l-4.8,4.8a1.566,1.566,0,0,1-2.207,0l-2.446-2.446a1.561,1.561,0,1,1,2.207-2.207l1.342,1.342,3.7-3.7a1.561,1.561,0,1,1,2.207,2.207Z" transform="translate(-141.616 -86.034)" fill="#13bf6d"/></g><g transform="translate(39.733 29.525)"><path d="M182.329,135.92c-.208-.959-.346-1.593-1.565-2.023a.484.484,0,0,1,0-.9c.707-.249,1.218-.429,1.565-2.023a.438.438,0,0,1,.864,0c.355,1.631.887,1.784,1.565,2.023a.484.484,0,0,1,0,.9c-.708.249-1.219.43-1.565,2.023a.438.438,0,0,1-.864,0Z" transform="translate(-180.46 -130.611)"/><g transform="translate(1.501 1.883)"><path d="M189.965,141.519a2.464,2.464,0,0,0-.766.926,2.569,2.569,0,0,0-.811-.918,2.467,2.467,0,0,0,.8-.965A2.524,2.524,0,0,0,189.965,141.519Z" transform="translate(-188.388 -140.561)" fill="#f0c020"/></g></g><g transform="translate(21.832 14.709)"><circle cx="0.473" cy="0.473" r="0.473"/></g><g transform="translate(20.518 40.689)"><path d="M79.99,196.931h1.495a1.042,1.042,0,0,0,1.041-1.041v-5.258a1.042,1.042,0,0,0-1.041-1.041H79.99a1.042,1.042,0,0,0-1.041,1.041v5.258A1.042,1.042,0,0,0,79.99,196.931Zm-.095-6.3a.1.1,0,0,1,.095-.095h1.495a.1.1,0,0,1,.095.095v5.258a.1.1,0,0,1-.095.095H79.99a.1.1,0,0,1-.095-.095Z" transform="translate(-78.949 -189.591)"/></g><g transform="translate(25.98 40.689)"><path d="M108.843,196.931h1.495a1.042,1.042,0,0,0,1.041-1.041v-5.258a1.042,1.042,0,0,0-1.041-1.041h-1.495a1.042,1.042,0,0,0-1.041,1.041v5.258A1.042,1.042,0,0,0,108.843,196.931Zm-.095-6.3a.1.1,0,0,1,.095-.095h1.495a.1.1,0,0,1,.095.095v5.258a.1.1,0,0,1-.095.095h-1.495a.1.1,0,0,1-.095-.095Z" transform="translate(-107.802 -189.591)"/></g><g transform="translate(31.441 40.689)"><path d="M137.694,196.931h1.495a1.042,1.042,0,0,0,1.041-1.041v-5.258a1.042,1.042,0,0,0-1.041-1.041h-1.495a1.042,1.042,0,0,0-1.041,1.041v5.258A1.042,1.042,0,0,0,137.694,196.931Zm-.095-6.3a.1.1,0,0,1,.095-.095h1.495a.1.1,0,0,1,.095.095v5.258a.1.1,0,0,1-.095.095h-1.495a.1.1,0,0,1-.095-.095Z" transform="translate(-136.653 -189.591)"/></g><g transform="translate(6.876 5.923)"><path d="M15.243,51.19a.473.473,0,0,0,0,.946H35.762A1.409,1.409,0,0,0,37.17,50.73v-5.3H51.877a1.424,1.424,0,0,0,1.42-1.42V9.373a1.423,1.423,0,0,0-1.42-1.42h-7.75V7.343a1.421,1.421,0,0,0-1.42-1.42H32.423A1.421,1.421,0,0,0,31,7.343v.611H23.252a1.425,1.425,0,0,0-1.42,1.42v3.916a.474.474,0,0,0,.948,0,0,0,0,0,0,0,0V9.373a.477.477,0,0,1,.473-.473H31v.611a1.425,1.425,0,0,0,1.42,1.42h1.569v1.23H26.787A1.042,1.042,0,0,0,25.746,13.2V35.368l-.7.474a.088.088,0,0,1-.14-.071V33.725a1.034,1.034,0,0,0-1.613-.855l-.515.35V17.075a.473.473,0,1,0-.946,0V33.862l-3.086,2.1-.124-3.442a1.035,1.035,0,0,0,.762-1V29.241a1.035,1.035,0,0,0-1.034-1.034H7.91a1.035,1.035,0,0,0-1.034,1.034v2.277a1.035,1.035,0,0,0,.764,1l-.648,17.88a1.682,1.682,0,0,0,1.679,1.741h2.786a.473.473,0,0,0,0-.946H8.671a.735.735,0,0,1-.734-.744l.649-17.894h9.088l.676,18.638ZM51.877,8.9a.475.475,0,0,1,.473.473V44.008a.473.473,0,0,1-.473.473H37.171V42.487H48.344a1.042,1.042,0,0,0,1.041-1.041V13.2a1.042,1.042,0,0,0-1.041-1.041H41.138v-1.23h1.569a1.421,1.421,0,0,0,1.42-1.42V8.9ZM31.95,7.343a.474.474,0,0,1,.473-.473H42.707a.474.474,0,0,1,.473.473c0,2.24,0-.073,0,2.169a.473.473,0,0,1-.473.473H32.423a.475.475,0,0,1-.472-.473Zm2.989,3.589h5.253v1.23H34.939Zm0,2.177h5.253v.662a.474.474,0,0,1-.473.473H35.412a.474.474,0,0,1-.473-.473Zm-8.247.095a.094.094,0,0,1,.095-.095h7.206v.662a1.421,1.421,0,0,0,1.42,1.42h4.306a1.421,1.421,0,0,0,1.42-1.42v-.662h7.206a.094.094,0,0,1,.095.095V41.446a.1.1,0,0,1-.095.095H37.17V33.725a1.034,1.034,0,0,0-1.613-.855l-4.378,2.972a.088.088,0,0,1-.139-.071V33.725a1.033,1.033,0,0,0-1.613-.855l-2.734,1.856V13.2Zm-2.867,20.45a.086.086,0,0,1,.135.072v2.046a1.035,1.035,0,0,0,1.616.855l4.383-2.974a.086.086,0,0,1,.134.073v2.046a1.035,1.035,0,0,0,1.615.855l4.38-2.973a.086.086,0,0,1,.136.072V44.948s0,0,0,.007,0,0,0,.007v5.768a.461.461,0,0,1-.462.46H19.3l-.51-14.117Zm-16-4.412a.087.087,0,0,1,.088-.087H18.349a.087.087,0,0,1,.088.087v2.277a.087.087,0,0,1-.088.087H7.91a.087.087,0,0,1-.088-.087Z" transform="translate(-6.876 -5.923)"/></g><g transform="translate(12.877 51.19)"><circle cx="0.473" cy="0.473" r="0.473"/></g><g transform="translate(39.142 25.958)"><path d="M177.477,111.905a.474.474,0,1,0,.67,0A.485.485,0,0,0,177.477,111.905Z" transform="translate(-177.339 -111.771)"/></g><g transform="translate(31.905 20.613)"><path d="M142.15,91.8a2.04,2.04,0,0,0,2.875,0l.789-.787a.476.476,0,0,0,0-.67.487.487,0,0,0-.67,0l-.787.787a1.091,1.091,0,0,1-1.537,0l-2.447-2.446a1.087,1.087,0,0,1,1.539-1.537l1.342,1.342a.485.485,0,0,0,.668,0l3.7-3.7a1.087,1.087,0,0,1,1.537,1.537l-1.338,1.338a.47.47,0,0,0,0,.67.485.485,0,0,0,.668,0L149.829,87a2.034,2.034,0,0,0-2.875-2.877l-3.365,3.364-1.009-1.007a2.034,2.034,0,0,0-2.875,2.877Z" transform="translate(-139.108 -83.529)"/></g><g transform="translate(10.027 20.056)"><path d="M24.165,86.273a.473.473,0,0,0,.669,0,2.2,2.2,0,0,0,0-3.108,1.25,1.25,0,0,1,0-1.769.473.473,0,1,0-.669-.669,2.2,2.2,0,0,0,0,3.108,1.251,1.251,0,0,1,0,1.769A.473.473,0,0,0,24.165,86.273Z" transform="translate(-23.521 -80.588)"/></g><g transform="translate(14.32 20.056)"><path d="M46.846,86.273a.473.473,0,0,0,.669,0,2.2,2.2,0,0,0,0-3.108,1.25,1.25,0,0,1,0-1.769.473.473,0,0,0-.669-.669,2.2,2.2,0,0,0,0,3.108,1.251,1.251,0,0,1,0,1.769A.473.473,0,0,0,46.846,86.273Z" transform="translate(-46.202 -80.588)"/></g></g></g></svg>