<svg xmlns="http://www.w3.org/2000/svg" width="105" height="105" viewBox="0 0 105 105"><g transform="translate(-401 -1217)"><circle cx="52.5" cy="52.5" r="52.5" transform="translate(401 1217)" fill="#adc46c"/><g transform="translate(429 1225.656)"><g transform="translate(0.735 22.078)"><path d="M81.779,43.6V35.941a1.547,1.547,0,0,0-.646-1.258l-7.711-5.524a1.724,1.724,0,0,0-2.728,1.4v4.585l-8.356-5.987a1.725,1.725,0,0,0-2.729,1.4v4.585l-8.356-5.987a1.725,1.725,0,0,0-2.729,1.4V43.655" transform="translate(-44.5 -28.833)" fill="#b7cacc"/><path d="M50.832,154.545H12.216A4.716,4.716,0,0,0,7.5,159.261v26.82H55.548v-26.82A4.716,4.716,0,0,0,50.832,154.545Z" transform="translate(-7.5 -142.218)" fill="#e1f1f3"/><path d="M62.9,322.828H56.919a4.048,4.048,0,0,0-4.048,4.048v10.986H66.946V326.876a4.048,4.048,0,0,0-4.048-4.048Z" transform="translate(-48.422 -294)" fill="#4a7398"/><path d="M364.991,351.825a5.531,5.531,0,0,1-1.78,5.652c-2.1,1.769-3.04.652-5.551,1.811C356.55,356.6,359.233,351.375,364.991,351.825Z" transform="translate(-323.102 -320.128)" fill="#75bb61"/><path d="M270.051,332.688s-3.466-1.411-5.709-.849a6.913,6.913,0,0,0,2.225,7.065c2.623,2.211,3.8.815,6.938,2.264a7.131,7.131,0,0,0-1.824-8.331c-.242-.2-.868-.7-1.127-.868Z" transform="translate(-238.948 -302.008)" fill="#85ce64"/><path d="M89.745,209.568h-34.6a2.275,2.275,0,0,1-2.275-2.275v-2.73a2.275,2.275,0,0,1,2.275-2.275h34.6a2.275,2.275,0,0,1,2.275,2.275v2.73A2.275,2.275,0,0,1,89.745,209.568Z" transform="translate(-48.421 -185.28)" fill="#85ccf8"/></g><g transform="translate(0 21.344)"><path d="M378.133,350.151a3.784,3.784,0,0,1-2.54,1c-.149.014-.3.028-.457.046a.735.735,0,0,0,.083,1.466.723.723,0,0,0,.085,0c.146-.017.288-.03.427-.043a5.206,5.206,0,0,0,3.351-1.336,6.3,6.3,0,0,0,2.017-6.4.735.735,0,0,0-.654-.544,7.942,7.942,0,0,0-5.656,1.611.735.735,0,0,0,.913,1.154,6.357,6.357,0,0,1,4.083-1.323A4.82,4.82,0,0,1,378.133,350.151Z" transform="translate(-337.763 -312.631)"/><path d="M41.758,33.23a.735.735,0,0,0,.735-.735V23.806a.989.989,0,0,1,1.565-.8l8.356,5.987a.735.735,0,0,0,1.164-.6V23.806a.989.989,0,0,1,1.565-.8L63.5,28.989a.735.735,0,0,0,1.164-.6V23.806a.989.989,0,0,1,1.564-.8l7.711,5.524a.814.814,0,0,1,.339.66v3.258a.735.735,0,1,0,1.471,0V29.186A2.288,2.288,0,0,0,74.8,27.33l-7.711-5.524a2.46,2.46,0,0,0-3.892,2v3.154L56,21.806a2.46,2.46,0,0,0-3.892,2v3.154l-7.193-5.153a2.46,2.46,0,0,0-3.892,2v8.689a.735.735,0,0,0,.735.735Z" transform="translate(-37 -21.344)"/><path d="M48.783,157.974a.735.735,0,0,0,.735-.735V152.5a5.457,5.457,0,0,0-5.451-5.451H5.451A5.457,5.457,0,0,0,0,152.5v26.82a.735.735,0,0,0,.735.735H48.783a.735.735,0,0,0,.735-.735V159.69a.735.735,0,1,0-1.471,0v18.892H36.028v-3.829a8.249,8.249,0,0,0,.378-5.078,7.674,7.674,0,0,0-2.464-3.955c-.227-.191-.9-.73-1.207-.927a.735.735,0,0,0-1,.2l-.178.255c-1.123-.39-3.705-1.153-5.61-.676a.735.735,0,0,0-.532.525,7.684,7.684,0,0,0,2.462,7.816,6.279,6.279,0,0,0,4.087,1.627,8.441,8.441,0,0,1,2.589.558v3.484H19.994V168.331a4.789,4.789,0,0,0-4.784-4.784H9.233a4.789,4.789,0,0,0-4.784,4.784v5.381a.735.735,0,1,0,1.471,0v-5.381a3.317,3.317,0,0,1,3.313-3.313h2.254v13.564H5.92v-2.418a.735.735,0,0,0-1.471,0v2.418H1.471V152.5a3.985,3.985,0,0,1,3.98-3.98H44.068a3.985,3.985,0,0,1,3.98,3.98v4.741A.735.735,0,0,0,48.783,157.974ZM28.829,171.788a6.21,6.21,0,0,1-2.089-5.868,12.247,12.247,0,0,1,4.822.9.736.736,0,0,0,.88-.26l.071-.1c.181.142.361.288.483.39a6.283,6.283,0,0,1,2.125,5.63,8.289,8.289,0,0,0-3.91-3.945.735.735,0,1,0-.647,1.321,6.868,6.868,0,0,1,3.346,3.5,11.845,11.845,0,0,0-1.8-.272A4.877,4.877,0,0,1,28.829,171.788Zm-15.872-6.77h2.254a3.317,3.317,0,0,1,3.313,3.313v10.251H12.957V165.018Z" transform="translate(0 -134.72)"/><path d="M85.991,200.531V197.8a3.014,3.014,0,0,0-3.01-3.01H48.38a3.014,3.014,0,0,0-3.01,3.01v2.73a3.014,3.014,0,0,0,3.01,3.01h34.6A3.014,3.014,0,0,0,85.991,200.531Zm-23.49-4.27H68.86v5.809H62.5ZM61.03,202.07H54.671v-5.809H61.03Zm9.3-5.809H76.69v5.809H70.331Zm-23.49,4.27V197.8a1.541,1.541,0,0,1,1.539-1.539H53.2v5.809H48.38A1.541,1.541,0,0,1,46.841,200.531Zm37.679,0a1.541,1.541,0,0,1-1.539,1.539h-4.82v-5.809h4.82A1.541,1.541,0,0,1,84.52,197.8Z" transform="translate(-40.921 -177.782)"/><path d="M84.276,98.491H81.334a.735.735,0,0,0,0,1.471h2.942a.735.735,0,0,0,0-1.471Z" transform="translate(-72.696 -90.926)"/><path d="M199.276,98.491h-2.942a.735.735,0,1,0,0,1.471h2.942a.735.735,0,0,0,0-1.471Z" transform="translate(-176.419 -90.926)"/><path d="M314.275,98.491h-2.942a.735.735,0,1,0,0,1.471h2.942a.735.735,0,0,0,0-1.471Z" transform="translate(-280.142 -90.926)"/><path d="M84.276,122.768H81.334a.735.735,0,1,0,0,1.471h2.942a.735.735,0,1,0,0-1.471Z" transform="translate(-72.696 -112.823)"/><path d="M199.276,122.768h-2.942a.735.735,0,1,0,0,1.471h2.942a.735.735,0,0,0,0-1.471Z" transform="translate(-176.419 -112.823)"/><path d="M314.275,122.768h-2.942a.735.735,0,1,0,0,1.471h2.942a.735.735,0,0,0,0-1.471Z" transform="translate(-280.142 -112.823)"/></g></g></g></svg>