<svg xmlns="http://www.w3.org/2000/svg" width="105" height="105" viewBox="0 0 105 105"><g transform="translate(-401 -1141)"><circle cx="52.5" cy="52.5" r="52.5" transform="translate(401 1141)" fill="#adc46c"/><g transform="translate(420.657 1155)"><rect width="20.909" height="35.844" rx="10.454" transform="translate(17.592 16.747)" fill="#46c89d"/><path d="M24.214,233.922a1.493,1.493,0,0,1-1.493-1.493v-9.217a1.494,1.494,0,0,1,.437-1.056l2.55-2.55a2.112,2.112,0,0,0,0-2.987h0a2.112,2.112,0,0,0-2.987,0l-4.043,4.043a1.494,1.494,0,0,0-.437,1.056v6.358a2.987,2.987,0,0,1-.875,2.112L16,231.554l2.24,10.583,4.352-4.352a2.987,2.987,0,0,1,2.112-.875h1.259a2.987,2.987,0,0,0,2.112-.875l2.112-2.112Z" transform="translate(-5.129 -181.331)" fill="#e8bb85"/><path d="M136,24l.464,1.856a1.494,1.494,0,0,0,1.449,1.131h8.122a1.493,1.493,0,0,0,1.449-1.131L147.948,24Z" transform="translate(-113.927 -7.253)" fill="#00b378"/><rect width="2.987" height="2.987" rx="1.493" transform="translate(20.579 22.721)" fill="#bdecdc"/><rect width="2.987" height="2.987" rx="1.493" transform="translate(26.553 22.721)" fill="#bdecdc"/><rect width="2.987" height="2.987" rx="1.493" transform="translate(32.527 22.721)" fill="#bdecdc"/><path d="M136,152h17.175a15.682,15.682,0,0,1,15.682,15.682h0a15.682,15.682,0,0,1-15.682,15.682h-1.494A15.682,15.682,0,0,1,136,167.682Z" transform="translate(-113.927 -123.305)" fill="#f9d6b4"/><path d="M241.421,271.932a15.637,15.637,0,0,0,5.841,1.125h1.494a15.682,15.682,0,0,0,15.682-15.682h0a15.626,15.626,0,0,0-1.383-6.447A31.427,31.427,0,0,1,241.421,271.932Z" transform="translate(-209.508 -212.999)" fill="#d4b699"/><g transform="translate(42.235 16.747)"><path d="M464,112h2.24v1.493H464Z" transform="translate(-453.546 -103.786)" fill="#bdecdc"/><path d="M376,24h1.493v2.24H376Z" transform="translate(-373.76 -24)" fill="#bdecdc"/><path d="M352,48h2.24v1.493H352Z" transform="translate(-352 -45.76)" fill="#bdecdc"/><path d="M376,64h1.493v2.24H376Z" transform="translate(-373.76 -60.266)" fill="#bdecdc"/><path d="M392,48h2.24v1.493H392Z" transform="translate(-388.266 -45.76)" fill="#bdecdc"/><path d="M448,88h1.493v2.24H448Z" transform="translate(-439.039 -82.026)" fill="#bdecdc"/><path d="M424,112h2.24v1.493H424Z" transform="translate(-417.279 -103.786)" fill="#bdecdc"/><path d="M448,128h1.493v2.24H448Z" transform="translate(-439.039 -118.292)" fill="#bdecdc"/></g><path d="M232.428,208H217.493A1.494,1.494,0,0,0,216,209.493v17.922h16.428Z" transform="translate(-186.46 -174.078)" fill="#00b378"/><circle cx="5.227" cy="5.227" r="5.227" transform="translate(32.527 37.656)" fill="#bdecdc"/><path d="M288,279.695v3.183a.747.747,0,0,0,1.161.621l2.388-1.592a.747.747,0,0,0,0-1.243l-2.388-1.592a.747.747,0,0,0-1.161.621Z" transform="translate(-251.739 -238.404)" fill="#00b378"/><path d="M232.428,402.987H217.493a1.493,1.493,0,1,1,0-2.987h14.935Z" transform="translate(-186.46 -348.156)" fill="#00a16c"/><path d="M337.756,402.987h5.063V400h-1.244A31.5,31.5,0,0,1,337.756,402.987Z" transform="translate(-296.851 -348.156)" fill="#00895c"/><path d="M379.894,388.318v-1.2q-.606.619-1.246,1.2Z" transform="translate(-333.926 -336.474)" fill="#009866"/><path d="M114.987,84.48a1.5,1.5,0,0,0,1.493-1.493V81.493A1.5,1.5,0,0,0,114.987,80h-1.493A1.5,1.5,0,0,0,112,81.493v1.493a1.5,1.5,0,0,0,1.493,1.493Zm-1.493-2.987h1.493v1.493h-1.494Z" transform="translate(-92.168 -58.026)"/><path d="M177.493,84.48h1.494a1.5,1.5,0,0,0,1.493-1.493V81.493A1.5,1.5,0,0,0,178.987,80h-1.494A1.5,1.5,0,0,0,176,81.493v1.493A1.5,1.5,0,0,0,177.493,84.48Zm0-2.987h1.494v1.493h-1.494Z" transform="translate(-150.194 -58.026)"/><path d="M241.493,84.48h1.493a1.5,1.5,0,0,0,1.493-1.493V81.493A1.5,1.5,0,0,0,242.987,80h-1.493A1.5,1.5,0,0,0,240,81.493v1.493A1.5,1.5,0,0,0,241.493,84.48Zm0-2.987h1.493v1.493h-1.494Z" transform="translate(-208.22 -58.026)"/><path d="M39.248,27.948V18.24A2.243,2.243,0,0,0,37.007,16H19.086a2.243,2.243,0,0,0-2.24,2.24V34.978L13.021,38.8a2.225,2.225,0,0,0-.656,1.584v6.358a2.225,2.225,0,0,1-.656,1.584l-1.365,1.365L11.4,50.75l1.365-1.365a3.709,3.709,0,0,0,1.094-2.64V40.386a.742.742,0,0,1,.219-.528l4.043-4.043a1.365,1.365,0,1,1,1.931,1.931L17.5,40.3a2.225,2.225,0,0,0-.656,1.584V51.1a2.243,2.243,0,0,0,2.24,2.24h4.171l-.837.837a2.225,2.225,0,0,1-1.584.656H19.576a3.709,3.709,0,0,0-2.64,1.094l-4.352,4.352,1.056,1.056,4.352-4.352a2.225,2.225,0,0,1,1.584-.656h1.259a3.709,3.709,0,0,0,2.64-1.094l1.082-1.082a16.415,16.415,0,0,0,13.2,6.656h1.493a16.428,16.428,0,0,0,0-32.857ZM33.064,17.493l-.232.928a.746.746,0,0,1-.724.566H23.985a.746.746,0,0,1-.724-.566l-.232-.928ZM18.339,34.023V18.24a.748.748,0,0,1,.747-.747h2.4l.323,1.29a2.237,2.237,0,0,0,2.173,1.7h8.122a2.237,2.237,0,0,0,2.173-1.7l.323-1.29h2.4a.748.748,0,0,1,.747.747v9.708H21.326v7.057a2.9,2.9,0,0,0-.219-.246,2.86,2.86,0,0,0-2.768-.737Zm.747,17.821a.748.748,0,0,1-.747-.747V41.88a.742.742,0,0,1,.219-.528l2.55-2.55a2.9,2.9,0,0,0,.219-.246v5.82a16.329,16.329,0,0,0,1.8,7.467Zm20.162,7.467H37.754A14.952,14.952,0,0,1,22.819,44.376V29.441H39.248a14.935,14.935,0,0,1,0,29.87Z" transform="translate(0)"/><path d="M376,24h1.493v2.24H376Z" transform="translate(-331.525 -7.253)"/><path d="M352,48h2.24v1.493H352Z" transform="translate(-309.765 -29.013)"/><path d="M376,64h1.493v2.24H376Z" transform="translate(-331.525 -43.52)"/><path d="M392,48h2.24v1.493H392Z" transform="translate(-346.032 -29.013)"/><path d="M448,88h1.493v2.24H448Z" transform="translate(-396.804 -65.279)"/><path d="M424,112h2.24v1.493H424Z" transform="translate(-375.044 -87.039)"/><path d="M448,128h1.493v2.24H448Z" transform="translate(-396.804 -101.546)"/><path d="M464,112h2.24v1.493H464Z" transform="translate(-411.311 -87.039)"/><path d="M280.789,276.942a1.491,1.491,0,0,0,1.533-.074l2.388-1.592a1.493,1.493,0,0,0,0-2.485l-2.388-1.592A1.493,1.493,0,0,0,280,272.442v3.183A1.491,1.491,0,0,0,280.789,276.942Zm.7-4.5,2.388,1.592-2.388,1.592Z" transform="translate(-244.486 -231.15)"/><path d="M245.974,251.948A5.974,5.974,0,1,0,240,245.974,5.974,5.974,0,0,0,245.974,251.948Zm0-10.454a4.48,4.48,0,1,1-4.48,4.48A4.48,4.48,0,0,1,245.974,241.493Z" transform="translate(-208.22 -203.091)"/><path d="M208,202.24v17.922a2.243,2.243,0,0,0,2.24,2.24h15.682V200H210.24a2.243,2.243,0,0,0-2.24,2.24Zm16.428,18.669H210.24a.747.747,0,1,1,0-1.493h14.188Zm0-2.987H210.24a2.229,2.229,0,0,0-.747.128V202.24a.748.748,0,0,1,.747-.747h14.188Z" transform="translate(-179.207 -166.825)"/></g></g></svg>