<svg xmlns="http://www.w3.org/2000/svg" width="105" height="105" viewBox="0 0 105 105"><g transform="translate(-1102 -1141)"><circle cx="52.5" cy="52.5" r="52.5" transform="translate(1102 1141)" fill="#adc46c"/><g transform="translate(1130 1168)"><path d="M27.184,11H19.531A1.535,1.535,0,0,0,18,12.531v5.358a5.34,5.34,0,0,0,2.6,4.592h5.511a5.34,5.34,0,0,0,2.6-4.592V12.531A1.535,1.535,0,0,0,27.184,11Z" transform="translate(-3.754 -2.112)" fill="#ffbcab"/><path d="M43.061,38.485V35.954A5.539,5.539,0,0,0,40,31v6.888h1.531a2.279,2.279,0,0,1,1.531.6Z" transform="translate(-8.916 -6.805)" fill="#ed1c24"/><path d="M6,35.953v2.531a2.279,2.279,0,0,1,1.531-.6H9.061V31A5.539,5.539,0,0,0,6,35.953Z" transform="translate(-0.939 -6.804)" fill="#ed1c24"/><path d="M30.307,7.592a3.061,3.061,0,0,0-3.061-3.061H26.48A1.531,1.531,0,0,0,24.95,6.061,3.061,3.061,0,0,0,21.888,3h-2.3A4.592,4.592,0,0,0,15,7.592V12.95h2.3v-2.3a1.531,1.531,0,0,1,1.531-1.531H26.48a1.531,1.531,0,0,1,1.531,1.531v1.531h2.3Z" transform="translate(-3.05 -0.235)" fill="#58595b"/><path d="M33.531,18.827A1.535,1.535,0,0,0,35.061,17.3v-.765A1.535,1.535,0,0,0,33.531,15H32v3.827Z" transform="translate(-7.039 -3.05)" fill="#ff9478"/><path d="M56.777,3V15.246H45.3a2.3,2.3,0,0,0-2.3,2.3V6.061A3.061,3.061,0,0,1,46.061,3Z" transform="translate(-9.62 -0.235)" fill="#57a4ff"/><path d="M55.246,3V9.123a4.592,4.592,0,0,1-4.592,4.592H45.3a2.3,2.3,0,0,0-2.3,2.3v1.531a2.3,2.3,0,0,1,2.3-2.3h11.48V3Z" transform="translate(-9.62 -0.235)" fill="#2488ff"/><path d="M15.531,15A1.535,1.535,0,0,0,14,16.531V17.3a1.535,1.535,0,0,0,1.531,1.531h1.531V15Z" transform="translate(-2.816 -3.05)" fill="#ff9478"/><path d="M32.961,27.531V41.307H10V27.531A1.535,1.535,0,0,1,11.531,26h19.9a1.535,1.535,0,0,1,1.531,1.531Z" transform="translate(-1.877 -5.631)" fill="#d1d3d4"/><path d="M31.43,26v3.061A10.715,10.715,0,0,1,20.715,39.777H10v1.531H32.961V27.531A1.535,1.535,0,0,0,31.43,26Z" transform="translate(-1.877 -5.631)" fill="#bcbec0"/><path d="M47.391,47.531a1.535,1.535,0,0,1-1.531,1.531H4.531a1.531,1.531,0,1,1,0-3.061H45.86A1.535,1.535,0,0,1,47.391,47.531Z" transform="translate(-0.235 -10.324)" fill="#8b5e3c"/><path d="M41.531,44.592a2.3,2.3,0,0,0,0-4.592H40v4.592Z" transform="translate(-8.916 -8.916)" fill="#ff9478"/><path d="M8.827,40H7.3a2.3,2.3,0,0,0,0,4.592H8.827Z" transform="translate(-0.704 -8.916)" fill="#ff9478"/><path d="M51,7h4.592v3.061H51Z" transform="translate(-11.497 -1.173)" fill="#ffcd00"/><path d="M45.3,19a2.3,2.3,0,1,0,0,4.592h11.48V19Z" transform="translate(-9.62 -3.989)" fill="#d1d3d4"/><path d="M5,50H46.33v8.419H5Z" transform="translate(-0.704 -11.262)" fill="#c49a6c"/><path d="M43,22a2.3,2.3,0,0,0,2.3,2.3h11.48V22Z" transform="translate(-9.62 -4.693)" fill="#f1f2f2"/><path d="M5,50H46.33v1.531H5Z" transform="translate(-0.704 -11.262)" fill="#a97c50"/><g transform="translate(2 2)"><path d="M21.765,17.3a.765.765,0,0,0,.765-.765v-.765a.765.765,0,1,0-1.531,0v.765A.765.765,0,0,0,21.765,17.3Z" transform="translate(-6.458 -5.05)" fill="#231f20"/><path d="M27.765,17.3a.765.765,0,0,0,.765-.765v-.765a.765.765,0,0,0-1.531,0v.765A.765.765,0,0,0,27.765,17.3Z" transform="translate(-7.866 -5.05)" fill="#231f20"/><path d="M22.318,20.225a.765.765,0,0,0-1.077,1.084,4.015,4.015,0,0,0,5.673,0,.766.766,0,1,0-1.088-1.078,2.483,2.483,0,0,1-3.507,0Z" transform="translate(-6.469 -6.224)" fill="#231f20"/><path d="M45.626,34.911H35.247a2.989,2.989,0,0,0,.429-1.531,3.042,3.042,0,0,0-.811-2.059.816.816,0,0,0,.046-.237V29.553a6.874,6.874,0,0,0-3.061-5.7V21.9a2.3,2.3,0,0,0-2.3-2.3H24.364a6.1,6.1,0,0,0,1.309-3.061h.819a2.3,2.3,0,0,0,2.3-2.3V13.48a2.285,2.285,0,0,0-.765-1.7V7.358A3.827,3.827,0,0,0,24.2,3.531H23.43a2.292,2.292,0,0,0-1.278.39A3.818,3.818,0,0,0,18.838,2h-2.3a5.364,5.364,0,0,0-5.358,5.358v4.424a2.285,2.285,0,0,0-.765,1.7v.765a2.3,2.3,0,0,0,2.3,2.3h.819A6.1,6.1,0,0,0,14.843,19.6H9.654a2.3,2.3,0,0,0-2.3,2.3v1.952a6.874,6.874,0,0,0-3.061,5.7v1.531a.816.816,0,0,0,.046.237,3,3,0,0,0-.367,3.62,2.287,2.287,0,0,0-.444,4.424v7.791a.765.765,0,1,0,1.531,0V39.5h39.8v7.654a.765.765,0,1,0,1.531,0V39.365a2.3,2.3,0,0,0-.765-4.454Zm-13.777-9.1a5.364,5.364,0,0,1,1.531,3.743v.873a3.131,3.131,0,0,0-.765-.107h-.765Zm0,6.039h.765a1.531,1.531,0,0,1,0,3.061h-.765ZM27.257,13.48v.765a.765.765,0,0,1-.765.765h-.765v-2.3h.765A.765.765,0,0,1,27.257,13.48ZM13.48,15.011h-.765a.765.765,0,0,1-.765-.765V13.48a.765.765,0,0,1,.765-.765h.765Zm0-4.592v.765h-.765V7.358a3.827,3.827,0,0,1,3.827-3.827h2.3a2.3,2.3,0,0,1,2.3,2.3.765.765,0,1,0,1.531,0,.765.765,0,0,1,.765-.765H24.2a2.3,2.3,0,0,1,2.3,2.3v3.827h-.765v-.765a2.3,2.3,0,0,0-2.3-2.3H15.777A2.3,2.3,0,0,0,13.48,10.419Zm10.715,0v5.358A4.536,4.536,0,0,1,22.121,19.6H17.085a4.536,4.536,0,0,1-2.074-3.827V10.419a.765.765,0,0,1,.765-.765H23.43A.765.765,0,0,1,24.2,10.419ZM8.888,21.9a.765.765,0,0,1,.765-.765h19.9a.765.765,0,0,1,.765.765V34.911H8.888ZM5.827,29.553A5.364,5.364,0,0,1,7.358,25.81v4.508H6.592a3.131,3.131,0,0,0-.765.107Zm.765,2.3h.765v3.061H6.592a1.531,1.531,0,0,1,0-3.061Zm39.034,6.123H4.3a.765.765,0,1,1,0-1.531h41.33a.765.765,0,1,1,0,1.531Z" transform="translate(-2 -2)" fill="#231f20"/><path d="M24.061,38.123a3.061,3.061,0,0,0,2.867-4.138.765.765,0,1,0-1.434.536,1.531,1.531,0,1,1-1.433-.99.765.765,0,0,0,0-1.531,3.061,3.061,0,1,0,0,6.123Z" transform="translate(-6.458 -9.039)" fill="#231f20"/><path d="M56.542,2H45.827A3.827,3.827,0,0,0,42,5.827v11.48a3.061,3.061,0,0,0,3.061,3.061h11.48a.765.765,0,0,0,.765-.765V2.765A.765.765,0,0,0,56.542,2Zm-.765,16.838H45.061a1.531,1.531,0,1,1,0-3.061H55.777Zm0-4.592H45.061a2.99,2.99,0,0,0-1.531.429V5.827a2.3,2.3,0,0,1,2.3-2.3h9.95Z" transform="translate(-11.385 -2)" fill="#231f20"/><path d="M46.765,14.184a.765.765,0,0,0,.765-.765V5.765a.765.765,0,1,0-1.531,0v7.654A.765.765,0,0,0,46.765,14.184Z" transform="translate(-12.324 -2.704)" fill="#231f20"/><path d="M50.765,10.592h4.592a.765.765,0,0,0,.765-.765V6.765A.765.765,0,0,0,55.358,6H50.765A.765.765,0,0,0,50,6.765V9.827A.765.765,0,0,0,50.765,10.592Zm.765-3.061h3.061V9.061H51.531Z" transform="translate(-13.262 -2.939)" fill="#231f20"/><path d="M54.827,13H51.765a.765.765,0,1,0,0,1.531h3.061a.765.765,0,1,0,0-1.531Z" transform="translate(-13.497 -4.581)" fill="#231f20"/><path d="M45,21.765a.765.765,0,0,0,.765.765H54.95a.765.765,0,0,0,0-1.531H45.765A.765.765,0,0,0,45,21.765Z" transform="translate(-12.089 -6.458)" fill="#231f20"/></g></g></g></svg>