<svg xmlns="http://www.w3.org/2000/svg" width="105" height="105" viewBox="0 0 105 105"><g transform="translate(-751 -1141)"><circle cx="52.5" cy="52.5" r="52.5" transform="translate(751 1141)" fill="#adc46c"/><g transform="translate(779 1169)"><circle cx="7.5" cy="7.5" r="7.5" transform="translate(32.059 2)" fill="#d96d6d"/><path d="M32.361,30.734V25.421A14.421,14.421,0,0,0,17.939,11H16.421A14.421,14.421,0,0,0,2,25.421V50.469H20.216v-3.8h6.831A4.554,4.554,0,0,0,31.6,42.12V39.084l4.554-1.518Z" transform="translate(-0.241 -2.41)" fill="#e6ccab"/><path d="M22.829,14.779A12.638,12.638,0,0,0,18.266,14h-1C10.558,14,5.5,20.2,5.5,26.9l0,.239a18.15,18.15,0,0,0,1.263,6.506,13.662,13.662,0,0,1,.846,3.315l.268,2.146a2.529,2.529,0,0,0,4.771.817l.727-1.454a17.089,17.089,0,0,1,4.383-5.517,7.59,7.59,0,0,1,3-1.519l4.349-1.087a6.158,6.158,0,0,0,4.677-6.023,10.377,10.377,0,0,0-6.958-9.548Z" transform="translate(-1.084 -3.132)" fill="#dae6f2"/><path d="M20.352,31.6a1.35,1.35,0,0,0,1.339-1.36V29.086a1.566,1.566,0,0,1,.532-1.189,3.952,3.952,0,0,0,1.365-3,3.791,3.791,0,1,0-7.572-.393,3.965,3.965,0,0,0,1.338,3.389,1.581,1.581,0,0,1,.542,1.2v1.158A1.35,1.35,0,0,0,19.236,31.6Z" transform="translate(-3.614 -4.797)" fill="#f2d891"/><path d="M19.839,34.277h1.116a1.35,1.35,0,0,0,1.339-1.36V32H18.5c0,.234,0,.567,0,.916a1.35,1.35,0,0,0,1.339,1.361Z" transform="translate(-4.217 -7.471)" fill="#7483a6"/><path d="M2.518,25.18A13.678,13.678,0,0,1,16.18,11.518H17.7A13.678,13.678,0,0,1,31.361,25.18v5.313a.757.757,0,0,0,.1.369l3.351,6.031L31.12,38.122a.759.759,0,0,0-.519.72v3.036a3.8,3.8,0,0,1-3.8,3.8H19.975a.759.759,0,0,0-.759.759v3.8h1.518V47.192h6.072a5.319,5.319,0,0,0,5.313-5.313V39.39l4.035-1.345a.76.76,0,0,0,.423-1.089l-3.7-6.659V25.18A15.2,15.2,0,0,0,17.7,10H16.18A15.2,15.2,0,0,0,1,25.18V50.228H2.518Z" transform="translate(0 -2.169)"/><path d="M25.053,30.845a6.887,6.887,0,0,0,5.252-6.768A11.107,11.107,0,0,0,22.862,13.83,13.379,13.379,0,0,0,18.025,13h-1C10.235,13,4.5,19.256,4.5,26.669l0,.238a18.825,18.825,0,0,0,1.316,6.778,12.928,12.928,0,0,1,.8,3.13l.268,2.147a3.288,3.288,0,0,0,6.2,1.062l.727-1.454A16.232,16.232,0,0,1,18,33.3a6.879,6.879,0,0,1,2.7-1.366Zm-8.018,1.285a17.736,17.736,0,0,0-4.578,5.762l-.727,1.454a1.77,1.77,0,0,1-3.339-.571l-.268-2.147a14.464,14.464,0,0,0-.893-3.5,17.3,17.3,0,0,1-1.21-6.234l0-.232c0-6.583,5.04-12.144,11.006-12.144h1a11.871,11.871,0,0,1,4.289.728h0a9.618,9.618,0,0,1,6.473,8.848,5.374,5.374,0,0,1-4.1,5.278l-4.349,1.087a8.4,8.4,0,0,0-3.3,1.67Z" transform="translate(-0.843 -2.891)"/><path d="M22.54,21.145a4.438,4.438,0,0,0-3.505-1.116,4.623,4.623,0,0,0-4.013,4.181,4.743,4.743,0,0,0,1.6,4.034.822.822,0,0,1,.28.622v1.158a2.112,2.112,0,0,0,2.1,2.12h1.116a2.112,2.112,0,0,0,2.1-2.12V28.867a.8.8,0,0,1,.268-.613,4.752,4.752,0,0,0,.062-7.109Zm-1.848,8.88a.592.592,0,0,1-.58.6H19a.592.592,0,0,1-.58-.6v-.157h2.277Zm.8-2.92a2.29,2.29,0,0,0-.738,1.245H18.356a2.331,2.331,0,0,0-.745-1.252,3.229,3.229,0,0,1-1.078-2.744,3.139,3.139,0,0,1,2.674-2.816,3.065,3.065,0,0,1,.348-.02,2.943,2.943,0,0,1,1.975.76,3.235,3.235,0,0,1-.041,4.827Z" transform="translate(-3.374 -4.578)"/><path d="M20,16h1.518v2.277H20Z" transform="translate(-4.579 -3.615)"/><path d="M28,25h2.277v1.518H28Z" transform="translate(-6.507 -5.784)"/><path d="M11,25h2.277v1.518H11Z" transform="translate(-2.41 -5.784)"/><path d="M0,0H1.518V2.277H0Z" transform="translate(10.274 15.142) rotate(-45)"/><path d="M0,0H2.277V1.518H0Z" transform="translate(19.398 15.682) rotate(-45)"/><path d="M51.036,5A3.039,3.039,0,0,0,48,8.036h1.518a1.518,1.518,0,1,1,1.518,1.518.759.759,0,0,0-.759.759v3.036H51.8V10.976A3.036,3.036,0,0,0,51.036,5Z" transform="translate(-11.326 -0.964)"/><path d="M51,17h1.518v1.518H51Z" transform="translate(-12.049 -3.856)"/><path d="M49.349,1A8.349,8.349,0,1,0,57.7,9.349,8.349,8.349,0,0,0,49.349,1Zm0,15.18A6.831,6.831,0,1,1,56.18,9.349a6.831,6.831,0,0,1-6.831,6.831Z" transform="translate(-9.639)"/></g></g></svg>