<svg xmlns="http://www.w3.org/2000/svg" width="113" height="113" viewBox="0 0 113 113"><g transform="translate(-180 -7061)"><g transform="translate(180 7061)"><path d="M113,56.5a56.508,56.508,0,0,1-32.612,51.217c-.891.416-1.489-1.187-2.4-.817A57.864,57.864,0,0,1,56.5,110.882,56.529,56.529,0,0,1,40.9,108.7c-.551-.158-1.1,1.794-1.642,1.62A56.507,56.507,0,1,1,113,56.5Z" fill="#ffbd86"/><path d="M138.945,92.7A46.249,46.249,0,1,1,92.7,46.447,46.249,46.249,0,0,1,138.945,92.7Z" transform="translate(-36.196 -36.196)" fill="#fed2a4"/><path d="M263.657,66.887a25.388,25.388,0,0,1-20.723,24.954,25.386,25.386,0,0,1,0-49.908A25.388,25.388,0,0,1,263.657,66.887Z" transform="translate(-173.169 -32.678)" fill="#6e61b7"/><path d="M211.511,90.016a25.381,25.381,0,1,1,0-49.271,25.388,25.388,0,0,0,0,49.271Z" transform="translate(-140.273 -31.172)" fill="#6354b2"/><path d="M188.858,35.313h-4.414a1.1,1.1,0,0,1-1.1-1.1V1.1a1.1,1.1,0,0,1,1.1-1.1h4.414a1.1,1.1,0,0,1,1.1,1.1V34.209A1.1,1.1,0,0,1,188.858,35.313Z" transform="translate(-142.876 0)" fill="#00c53b"/><path d="M213.272,35.313h-8.828a1.1,1.1,0,0,1-1.1-1.1V1.1a1.1,1.1,0,0,1,1.1-1.1h8.828a1.1,1.1,0,0,1,1.1,1.1V34.209A1.1,1.1,0,0,1,213.272,35.313Z" transform="translate(-158.462 0)" fill="#4bcd5c"/><path d="M140.2,85.313h-4.414a1.1,1.1,0,0,1-1.1-1.1V51.1a1.1,1.1,0,0,1,1.1-1.1H140.2a1.1,1.1,0,0,1,1.1,1.1V84.209A1.1,1.1,0,0,1,140.2,85.313Z" transform="translate(-104.956 -38.965)" fill="#00c1fb"/><path d="M164.613,85.313h-8.828a1.1,1.1,0,0,1-1.1-1.1V51.1a1.1,1.1,0,0,1,1.1-1.1h8.828a1.1,1.1,0,0,1,1.1,1.1V84.209A1.1,1.1,0,0,1,164.613,85.313Z" transform="translate(-120.542 -38.965)" fill="#00d1fc"/><path d="M344.5,26.6v.012a1.153,1.153,0,0,1-1.157,1.145H317.9a1.157,1.157,0,0,1-1.157-1.157V1.157A1.153,1.153,0,0,1,317.89,0h.012a26.6,26.6,0,0,1,26.6,26.6Z" transform="translate(-246.838 0)" fill="#ff73c6"/><path d="M321.83,27.757H317.9a1.157,1.157,0,0,1-1.157-1.157V1.157A1.153,1.153,0,0,1,317.89,0h.012a26.815,26.815,0,0,1,3.929.288V27.757Z" transform="translate(-246.838 0)" fill="#ff4fb8"/><path d="M133.713,247.989A56.772,56.772,0,0,1,98.4,252.116l-2.035-15.207c0-1.59-5.334-1.452-6.847-.964l-.119.038c-.292.091-.8-.095-1.092-.025-8.293,1.974-14.661-4.659-13.975-13.355l1.409-13.017c.157-1.99-2.568-3.888-4.564-3.888l-1.205-.051c-1.368-.738-2.13-2.013-.993-4.288L78.6,185.135a3.423,3.423,0,0,0,.35-1.26l.147-1.845A2.207,2.207,0,0,1,81.3,180h65.284a2.208,2.208,0,0,1,2.205,2.12c.017.408.028.8.028,1.114v7.123a36.342,36.342,0,0,1-14.187,28.809,2.347,2.347,0,0,0-.92,1.86v26.965Z" transform="translate(-53.325 -140.272)" fill="#bb5d4c"/><path d="M93.736,237.818v14.331a56.1,56.1,0,0,1-5.973-1.555V238.178a2.355,2.355,0,0,0-2.689-2.329c2.2-.53,5.257-.91,5.257-.91A3.008,3.008,0,0,1,93.736,237.818ZM69.08,210.175l-1,12.641a12.744,12.744,0,0,0,16.5,13.169,13,13,0,0,1-10.524-13.9l1-12.942a3.471,3.471,0,0,0-3.411-3.779,3.5,3.5,0,0,1-3.06-5.07l8.2-16.786a3.566,3.566,0,0,0,.35-1.29l.147-1.889a2.319,2.319,0,0,1,.05-.333H73.5a2.207,2.207,0,0,0-2.2,2.032l-.147,1.845a3.425,3.425,0,0,1-.35,1.26l-8.2,16.395a3.422,3.422,0,0,0,3.06,4.952,3.422,3.422,0,0,1,3.411,3.691Z" transform="translate(-48.506 -140.273)" fill="#a44f3e"/><path d="M214.575,215.467h6a1.655,1.655,0,0,1,0,3.311h-6a1.655,1.655,0,0,1,0-3.311Zm7.654,8.276a1.655,1.655,0,0,0-1.655-1.655h-2.519a1.655,1.655,0,0,0,0,3.311h2.519A1.655,1.655,0,0,0,222.229,223.744Zm0,6.621a1.655,1.655,0,0,0-1.655-1.655h-2.519a1.655,1.655,0,0,0,0,3.311h2.519A1.655,1.655,0,0,0,222.229,230.365Zm0-19.953a1.655,1.655,0,0,0-1.655-1.655h-2.519a1.655,1.655,0,0,0,0,3.311h2.519A1.655,1.655,0,0,0,222.229,210.412Z" transform="translate(-165.928 -162.684)" fill="#d78878"/><path d="M288.858,181.448h-4.414a1.1,1.1,0,0,1-1.1-1.1V147.266a1.1,1.1,0,0,1,1.1-1.1h4.414a1.1,1.1,0,0,1,1.1,1.1v33.08A1.1,1.1,0,0,1,288.858,181.448Z" transform="translate(-220.806 -113.904)" fill="#ffef31"/><path d="M313.272,181.448h-8.828a1.1,1.1,0,0,1-1.1-1.1V147.266a1.1,1.1,0,0,1,1.1-1.1h8.828a1.1,1.1,0,0,1,1.1,1.1v33.08A1.1,1.1,0,0,1,313.272,181.448Z" transform="translate(-236.392 -113.904)" fill="#fff261"/></g></g></svg>