<svg xmlns="http://www.w3.org/2000/svg" width="105" height="105" viewBox="0 0 105 105"><g transform="translate(4142 10483)"><circle cx="52.5" cy="52.5" r="52.5" transform="translate(-4142 -10483)" fill="#adc46c"/><g transform="translate(-4115 -10456.01)"><path d="M13.785,31H4.541A1.54,1.54,0,0,0,3,32.541v4.622A1.54,1.54,0,0,0,4.541,38.7H7.622l2.311,3.852L10.7,38.7h3.035a1.54,1.54,0,0,0,1.54-1.586l-.159-5.347A1.54,1.54,0,0,0,13.785,31Z" transform="translate(-0.23 -6.657)" fill="#eaeaea"/><path d="M42.845,30H33.6a1.54,1.54,0,0,0-1.541,1.541v4.622A1.54,1.54,0,0,0,33.6,37.7h3.081l2.311,3.852.77-3.852H42.8a1.54,1.54,0,0,0,1.54-1.586L44.18,30.77A1.54,1.54,0,0,0,42.845,30Z" transform="translate(-6.903 -6.428)" fill="#eaeaea"/><path d="M18,33.541v4.622A1.54,1.54,0,0,0,19.541,39.7h2.311v3.081L24.933,39.7h2.311a1.54,1.54,0,0,0,1.541-1.541V33.541A1.54,1.54,0,0,0,27.244,32h-7.7A1.54,1.54,0,0,0,18,33.541Z" transform="translate(-3.674 -6.887)" fill="#90d2fc"/><path d="M47,33.541v4.622A1.54,1.54,0,0,0,48.541,39.7h2.311v3.081L53.933,39.7h2.311a1.54,1.54,0,0,0,1.541-1.541V33.541A1.54,1.54,0,0,0,56.244,32h-7.7A1.54,1.54,0,0,0,47,33.541Z" transform="translate(-10.334 -6.887)" fill="#90d2fc"/><path d="M27.407,8A15.407,15.407,0,0,0,12,23.407H42.814A15.407,15.407,0,0,0,27.407,8Z" transform="translate(-2.296 -1.376)" fill="#a7dbfc"/><path d="M40.078,10.812l-.145.145-1.541,2.311-2.311,1.541H33.77L33,17.12l.77,2.311,3.081,1.541,2.311-.77h3.081l2.311,2.311,3.042.76a15.377,15.377,0,0,0-7.519-12.461Z" transform="translate(-7.119 -2.021)" fill="#63bc94"/><path d="M16.711,20.283l2.311-.77,3.081.77,2.311-1.541-.77-2.311-1.541-.77V13.35L19.2,11.169a15.406,15.406,0,0,0-6.808,9.959l2.783.7Z" transform="translate(-2.385 -2.103)" fill="#63bc94"/><path d="M31.622,56H30.081A3.082,3.082,0,0,0,27,59.081v1.541h7.7V59.081A3.082,3.082,0,0,0,31.622,56Z" transform="translate(-5.741 -12.399)" fill="#eaeaea"/><path d="M41.622,56H40.081A3.082,3.082,0,0,0,37,59.081v1.541h7.7V59.081A3.082,3.082,0,0,0,41.622,56Z" transform="translate(-8.038 -12.399)" fill="#a8a8a8"/><path d="M51.622,56H50.081A3.082,3.082,0,0,0,47,59.081v1.541h7.7V59.081A3.082,3.082,0,0,0,51.622,56Z" transform="translate(-10.334 -12.399)" fill="#eaeaea"/><path d="M11.622,56H10.081A3.082,3.082,0,0,0,7,59.081v1.541h7.7V59.081A3.082,3.082,0,0,0,11.622,56Z" transform="translate(-1.148 -12.399)" fill="#eaeaea"/><path d="M21.622,56H20.081A3.082,3.082,0,0,0,17,59.081v1.541h7.7V59.081A3.082,3.082,0,0,0,21.622,56Z" transform="translate(-3.445 -12.399)" fill="#a8a8a8"/><g transform="translate(7.392 38.979)"><circle cx="2.311" cy="2.311" r="2.311" transform="translate(15.407)" fill="#ffd6a8"/><circle cx="2.311" cy="2.311" r="2.311" transform="translate(23.111)" fill="#ffd6a8"/><circle cx="2.311" cy="2.311" r="2.311" transform="translate(30.814)" fill="#ffd6a8"/><circle cx="2.311" cy="2.311" r="2.311" fill="#ffd6a8"/><circle cx="2.311" cy="2.311" r="2.311" transform="translate(7.704)" fill="#ffd6a8"/></g><path d="M48.221,32.852a2.314,2.314,0,0,0-2.311-2.311h-7.7c-.047,0-.091.011-.138.014A2.306,2.306,0,0,0,35.9,29H26.651a2.308,2.308,0,0,0-2.222,1.71,2.3,2.3,0,0,0-.86-.169h-7.7a2.315,2.315,0,0,0-.55.073,2.3,2.3,0,0,0-1.761-.844H4.311A2.314,2.314,0,0,0,2,32.081V36.7a2.314,2.314,0,0,0,2.311,2.311H6.956l2.087,3.478a.771.771,0,0,0,1.416-.246l.646-3.232h3.051a2.3,2.3,0,0,0,1.71.77h1.541V42.1a.77.77,0,0,0,.475.712.761.761,0,0,0,.3.059.771.771,0,0,0,.545-.226l2.856-2.856H23.57a2.307,2.307,0,0,0,2.222-1.71,2.3,2.3,0,0,0,.86.169H29.3l2.087,3.478a.771.771,0,0,0,1.416-.246l.646-3.232h2.592a2.308,2.308,0,0,0,2.169,1.541h1.541V42.1a.77.77,0,0,0,.475.712.761.761,0,0,0,.3.059.771.771,0,0,0,.545-.226l2.856-2.856H45.91a2.314,2.314,0,0,0,2.311-2.311Zm-34.666,0v4.622H10.474a.77.77,0,0,0-.755.619l-.38,1.9L8.053,37.848a.771.771,0,0,0-.661-.374H4.311a.771.771,0,0,1-.77-.77V32.081a.771.771,0,0,1,.77-.77h9.244a.766.766,0,0,1,.465.165A2.288,2.288,0,0,0,13.555,32.852ZM24.34,35.933v1.541a.771.771,0,0,1-.77.77H21.259a.767.767,0,0,0-.545.226l-1.766,1.766V39.015a.77.77,0,0,0-.77-.77H15.866a.771.771,0,0,1-.77-.77V32.852a.771.771,0,0,1,.77-.77h7.7a.771.771,0,0,1,.77.77ZM35.9,32.852V36.7H32.814a.77.77,0,0,0-.755.619l-.38,1.9-1.286-2.143a.771.771,0,0,0-.661-.374H26.651a.771.771,0,0,1-.77-.77V31.311a.771.771,0,0,1,.77-.77H35.9a.76.76,0,0,1,.741.626A2.3,2.3,0,0,0,35.9,32.852Zm10.785,4.622a.771.771,0,0,1-.77.77H43.6a.767.767,0,0,0-.545.226l-1.766,1.766V39.015a.77.77,0,0,0-.77-.77H38.207a.771.771,0,0,1-.77-.77V32.852a.771.771,0,0,1,.77-.77h7.7a.771.771,0,0,1,.77.77Z" transform="translate(0 -6.198)"/><path d="M11,23.177h1.541a14.57,14.57,0,0,1,.162-2.055l1.963.491a.768.768,0,0,0,.731-.2L16.808,20l1.926-.642,2.864.716a.769.769,0,0,0,.614-.106l2.311-1.541a.771.771,0,0,0,.3-.884l-.77-2.311a.77.77,0,0,0-.386-.445l-1.115-.558V12.392a.771.771,0,0,0-.308-.616l-1.988-1.491a14.558,14.558,0,0,1,13.628-.1l-1.1,1.653L30.8,13.163H28.718a.769.769,0,0,0-.73.527L27.218,16a.766.766,0,0,0,0,.488l.77,2.311a.77.77,0,0,0,.386.445l3.081,1.541a.759.759,0,0,0,.589.042l2.192-.731h2.638l2.085,2.085a.771.771,0,0,0,.358.2l2.489.622c0,.057.008.113.008.171h1.541a16.177,16.177,0,0,0-32.355,0Zm10.015-10.4V14.7a.771.771,0,0,0,.426.689l1.256.627.483,1.451L21.642,18.5l-2.751-.688a.766.766,0,0,0-.431.016l-2.311.77a.779.779,0,0,0-.3.186l-1.233,1.233L13,19.609a14.666,14.666,0,0,1,5.852-8.455ZM35.22,10.962a14.642,14.642,0,0,1,6.473,10.429l-1.8-.45-2.161-2.16a.764.764,0,0,0-.544-.226H34.111a.771.771,0,0,0-.243.04l-2.008.669-2.511-1.255-.589-1.765.514-1.541h1.756a.775.775,0,0,0,.428-.129l2.311-1.541a.781.781,0,0,0,.213-.213Z" transform="translate(-2.067 -1.146)"/><path d="M24.974,4.447c.475-.143.956-.266,1.43-.366l-.319-1.508c-.515.109-1.038.243-1.554.4Z" transform="translate(-5.174 -0.129)"/><path d="M40.195,5c.461.168.921.356,1.37.562l.639-1.4c-.485-.221-.984-.426-1.483-.606Z" transform="translate(-8.771 -0.355)"/><path d="M44.437,5.285,43.684,6.63c.431.24.854.5,1.263.773l.856-1.28c-.441-.3-.9-.577-1.366-.837Z" transform="translate(-9.572 -0.752)"/><path d="M52.045,14.545c.272.411.528.836.764,1.265l1.35-.742c-.256-.465-.534-.927-.827-1.371Z" transform="translate(-11.493 -2.684)"/><path d="M6,27.523H7.541c0-.5.019-.992.059-1.477l-1.536-.123C6.021,26.448,6,26.988,6,27.523Z" transform="translate(-0.919 -5.491)"/><path d="M11.143,12.1l1.236.921c.294-.394.606-.78.93-1.149l-1.157-1.017C11.8,11.259,11.46,11.678,11.143,12.1Z" transform="translate(-2.1 -2.032)"/><path d="M37.939,4.3l.408-1.485c-.509-.141-1.035-.262-1.56-.362L36.5,3.97c.485.092.97.2,1.44.334Z" transform="translate(-7.923 -0.102)"/><path d="M16.058,9.15l-.982-1.187c-.408.337-.81.7-1.192,1.069l1.073,1.106C15.31,9.794,15.68,9.462,16.058,9.15Z" transform="translate(-2.729 -1.367)"/><path d="M57.507,26.93c-.012-.53-.045-1.068-.1-1.6l-1.533.156c.05.49.081.986.092,1.474Z" transform="translate(-12.372 -5.356)"/><path d="M53.9,17.965c.2.447.387.907.552,1.37l1.451-.518c-.179-.5-.38-1-.6-1.484Z" transform="translate(-11.917 -3.519)"/><path d="M11.034,15.01l-1.3-.821c-.282.448-.551.915-.8,1.391l1.366.712C10.527,15.854,10.774,15.422,11.034,15.01Z" transform="translate(-1.592 -2.797)"/><path d="M55.183,21.646c.128.475.237.96.326,1.441l1.515-.278c-.1-.522-.214-1.047-.353-1.562Z" transform="translate(-12.213 -4.417)"/><path d="M9.3,18.476l-1.419-.6c-.208.491-.4,1-.565,1.5l1.462.485C8.929,19.4,9.1,18.929,9.3,18.476Z" transform="translate(-1.22 -3.644)"/><path d="M46.875,8.8c.381.3.76.626,1.122.964l1.048-1.13c-.394-.364-.8-.715-1.216-1.042Z" transform="translate(-10.305 -1.283)"/><path d="M19.211,6.9l-.783-1.327c-.455.268-.908.56-1.346.866l.884,1.263C18.372,7.422,18.79,7.152,19.211,6.9Z" transform="translate(-3.464 -0.819)"/><path d="M34.162,3.65l.166-1.531c-.525-.057-1.062-.093-1.6-.109l-.042,1.541c.495.013.991.046,1.474.1Z" transform="translate(-7.047)"/><path d="M49.686,11.465c.327.356.649.736.957,1.129l1.213-.951c-.333-.424-.681-.834-1.035-1.22Z" transform="translate(-10.951 -1.932)"/><path d="M22.128,3.765c-.5.194-.991.409-1.467.641l.673,1.386c.44-.213.9-.412,1.354-.592Z" transform="translate(-4.285 -0.403)"/><path d="M28.794,3.705c.486-.063.981-.109,1.473-.133l-.079-1.539c-.532.027-1.068.076-1.595.145Z" transform="translate(-6.107 -0.005)"/><path d="M8.142,22.187l-1.5-.366c-.125.513-.232,1.042-.317,1.569l1.521.245c.077-.488.176-.975.292-1.448Z" transform="translate(-0.994 -4.549)"/><path d="M46.058,57.474a3.848,3.848,0,0,0-2.226-3.479,3.051,3.051,0,0,0,.685-1.914,3.081,3.081,0,0,0-6.163,0,3.051,3.051,0,0,0,.685,1.914,3.858,3.858,0,0,0-1.455,1.192,3.864,3.864,0,0,0-1.455-1.192,3.051,3.051,0,0,0,.685-1.914,3.081,3.081,0,0,0-6.163,0,3.051,3.051,0,0,0,.685,1.914,3.858,3.858,0,0,0-1.455,1.192,3.864,3.864,0,0,0-1.455-1.192,3.051,3.051,0,0,0,.685-1.914,3.081,3.081,0,0,0-6.163,0,3.051,3.051,0,0,0,.685,1.914,3.858,3.858,0,0,0-1.455,1.192,3.864,3.864,0,0,0-1.455-1.192,3.051,3.051,0,0,0,.685-1.914,3.081,3.081,0,0,0-6.163,0,3.051,3.051,0,0,0,.685,1.914,3.858,3.858,0,0,0-1.455,1.192,3.864,3.864,0,0,0-1.455-1.192,3.051,3.051,0,0,0,.685-1.914,3.081,3.081,0,0,0-6.163,0,3.051,3.051,0,0,0,.685,1.914A3.848,3.848,0,0,0,6,57.474v1.541H7.541V57.474a2.314,2.314,0,0,1,2.311-2.311h1.541A2.314,2.314,0,0,1,13.7,57.474v1.541h1.541V57.474a2.314,2.314,0,0,1,2.311-2.311H19.1a2.314,2.314,0,0,1,2.311,2.311v1.541h1.541V57.474a2.314,2.314,0,0,1,2.311-2.311H26.8a2.314,2.314,0,0,1,2.311,2.311v1.541h1.541V57.474a2.314,2.314,0,0,1,2.311-2.311H34.5a2.314,2.314,0,0,1,2.311,2.311v1.541h1.541V57.474a2.314,2.314,0,0,1,2.311-2.311h1.541a2.314,2.314,0,0,1,2.311,2.311v1.541h1.541ZM10.622,53.622a1.541,1.541,0,1,1,1.541-1.541A1.542,1.542,0,0,1,10.622,53.622Zm7.7,0a1.541,1.541,0,1,1,1.541-1.541A1.542,1.542,0,0,1,18.326,53.622Zm7.7,0a1.541,1.541,0,1,1,1.541-1.541A1.542,1.542,0,0,1,26.029,53.622Zm7.7,0a1.541,1.541,0,1,1,1.541-1.541A1.542,1.542,0,0,1,33.733,53.622Zm7.7,0a1.541,1.541,0,1,1,1.541-1.541A1.542,1.542,0,0,1,41.436,53.622Z" transform="translate(-0.919 -10.791)"/></g></g></svg>