<svg xmlns="http://www.w3.org/2000/svg" width="105" height="105" viewBox="0 0 105 105"><g transform="translate(-1465 10559)"><circle cx="52.5" cy="52.5" r="52.5" transform="translate(1465 -10559)" fill="#adc46c"/><g transform="translate(1495 -10529)"><g transform="translate(0.741 0.741)"><g transform="translate(32.59 19.258)"><path d="M50.925,27H45v1.481a4.476,4.476,0,0,0,.252,1.481h.007a4.436,4.436,0,0,0,7.325,1.659,4.273,4.273,0,0,0,1.044-1.659h.007a4.476,4.476,0,0,0,.252-1.481V27Z" transform="translate(-45 -27)" fill="#b27946"/></g><g transform="translate(26.664 25.183)"><path d="M42.925,35.741v11.11H37V40.925l1.481-1.481A5.113,5.113,0,0,1,37,35.867V35h4.14A2.516,2.516,0,0,1,42.925,35.741Z" transform="translate(-37 -35)" fill="#ccd1d9"/></g><g transform="translate(32.59 25.183)"><path d="M45,46.851V35.741A2.529,2.529,0,0,1,46.785,35h6.362a.743.743,0,0,1,.741.741V46.11a.743.743,0,0,1-.741.741Z" transform="translate(-45 -35)" fill="#ccd1d9"/></g><g transform="translate(25.531 26.664)"><path d="M54.379,37.741V49.591a.743.743,0,0,1-.741.741H45.491l-.437.437a3.576,3.576,0,0,1-5.051,0l-.437-.437h-4.1A4.422,4.422,0,0,0,36.6,47.369H50.676a.743.743,0,0,0,.741-.741V37h2.222A.743.743,0,0,1,54.379,37.741Z" transform="translate(-35.47 -37)" fill="#ef7385"/></g><g transform="translate(7.31 22.22)"><path d="M19.854,50.258V53.22H12.448V50.413a4.412,4.412,0,0,0-1.578-3.392l.459-.2a6.726,6.726,0,0,0,4.081-6.192h-.37a2.6,2.6,0,0,1-2.592-2.592,2.6,2.6,0,0,1,2.592-2.592h.37V31H30.224v3.829a5.113,5.113,0,0,0,1.481,3.577l-1.481,1.481v5.925a4.447,4.447,0,0,1-4.444,4.444Z" transform="translate(-10.87 -31)" fill="#f0d0b4"/></g><g transform="translate(0 22.22)"><path d="M12.851,31v4.444h-.37a2.6,2.6,0,0,0-2.592,2.592,2.6,2.6,0,0,0,2.592,2.592h.37A6.726,6.726,0,0,1,8.77,46.821l-.459.2c-.126-.1-.259-.207-.4-.3L7.6,46.51A14.812,14.812,0,0,1,1,34.185V31H12.851Z" transform="translate(-1 -31)" fill="#b27946"/></g><g transform="translate(7.407 16.295)"><path d="M22.851,28.925H19.888a2.963,2.963,0,0,0-5.925,0H11a5.925,5.925,0,0,1,11.851,0Z" transform="translate(-11 -23)" fill="#ffeaa7"/></g><g transform="translate(1.481 10.369)"><path d="M11.888,15h5.925v.785a1.6,1.6,0,0,0,.993,1.481l.03.007a1.6,1.6,0,0,0,1.748-.348l.556-.548,4.185,4.185-.548.556a1.6,1.6,0,0,0-.348,1.748l.007.022a1.6,1.6,0,0,0,1.489,1H26.7v2.963H20.776a5.925,5.925,0,1,0-11.851,0H3V23.888h.778a1.6,1.6,0,0,0,1.489-1l.007-.022a1.6,1.6,0,0,0-.348-1.748l-.548-.556,4.185-4.185.563.556a1.583,1.583,0,0,0,1.741.341.027.027,0,0,0,.022-.007,1.593,1.593,0,0,0,1-1.481Z" transform="translate(-3 -15)" fill="#fcd770"/></g><g transform="translate(29.627)"><path d="M48.407,1a7.4,7.4,0,0,0-4.444,13.325v5.933h8.888V14.325A7.4,7.4,0,0,0,48.407,1Z" transform="translate(-41 -1)" fill="#fcd770"/></g><g transform="translate(11.851 4.444)"><path d="M17,7h2.963v3.7H17Z" transform="translate(-17 -7)" fill="#ef7385"/></g><g transform="translate(23.702 2.963)"><path d="M33,5v8.147l2.963,1.481V5Z" transform="translate(-33 -5)" fill="#ef7385"/></g><g transform="translate(17.776)"><path d="M25,9.147l2.963,1.481V1H25Z" transform="translate(-25 -1)" fill="#ef7385"/></g><g transform="translate(5.925)"><path d="M9,10.629l2.963-1.481V1H9Z" transform="translate(-9 -1)" fill="#ef7385"/></g><g transform="translate(0 2.963)"><path d="M1,14.629l2.963-1.481V5H1Z" transform="translate(-1 -5)" fill="#ef7385"/></g></g><g transform="translate(0)"><circle cx="1" cy="1" r="1" transform="translate(13 13)"/><path d="M10.256,23a.741.741,0,1,0-.524-.217A.739.739,0,0,0,10.256,23Z" transform="translate(-2.467 -5.579)"/><path d="M27.226,23a.741.741,0,1,0-.524-.217A.739.739,0,0,0,27.226,23Z" transform="translate(-6.868 -5.579)"/><path d="M17.481,7.481h1.481v2.963h1.481V6H16v4.444h1.481Z" transform="translate(-4.149 -1.556)"/><path d="M33.481,5.481h1.481v8.888h1.481V4H32v8.888h1.481Z" transform="translate(-8.298 -1.037)"/><path d="M25.481,1.481h1.481v8.888h1.481V0H24V8.888h1.481Z" transform="translate(-6.224)"/><path d="M9.481,1.481h1.481V8.888h1.481V0H8V10.369H9.481Z" transform="translate(-2.075)"/><path d="M1.481,5.481H2.963v7.407H4.444V4H0V14.369H1.481Z" transform="translate(0 -1.037)"/><path d="M29.925,36H28.444a1.481,1.481,0,1,1-2.963,0H24a2.963,2.963,0,0,0,5.925,0Z" transform="translate(-6.224 -9.336)"/><path d="M44.441,26.664H42.959a1.483,1.483,0,0,0-1.481-1.481H41.4a5.165,5.165,0,0,0,1.564-3.7V14.422a8.073,8.073,0,0,0,2.963-6.275,8.147,8.147,0,0,0-16.295,0,8.073,8.073,0,0,0,2.963,6.275V21.48A5.167,5.167,0,0,0,34.278,25.3a3.227,3.227,0,0,0-.948.416,3.235,3.235,0,0,0-1.784-.531h-3.4V22.22H26.664V19.258H25.147a.888.888,0,0,1-.624-1.508l1.072-1.073-5.237-5.237-1.073,1.073a.88.88,0,0,1-.976.179.857.857,0,0,1-.532-.794V10.369H10.369V11.9a.888.888,0,0,1-1.5.622l-1.08-1.08L2.551,16.676,3.624,17.75A.888.888,0,0,1,3,19.258H1.481V22.22H0v3.923A15.526,15.526,0,0,0,6.927,39.085l.313.208a3.7,3.7,0,0,1,1.649,3.081v3.547h8.888V42.959h5.185a5.164,5.164,0,0,0,3.621-1.481H30.06l.217.217a4.317,4.317,0,0,0,6.105,0l.217-.217h7.841A1.483,1.483,0,0,0,45.922,40V28.146a1.483,1.483,0,0,0-1.481-1.481ZM34.831,23.7h5.888a3.666,3.666,0,0,1-5.888,0Zm.721-14.814h-.741a.741.741,0,1,1,.741-.741Zm2.963,10.369H37.034V10.369h1.481Zm2.963,1.481v.741a3.7,3.7,0,0,1-.075.741H34.146a3.7,3.7,0,0,1-.075-.741v-.741ZM31.108,8.147a6.666,6.666,0,1,1,10.665,5.324l-.3.221v5.565H40V10.369h.741a2.222,2.222,0,1,0-2.222-2.222v.741H37.034V8.147a2.222,2.222,0,1,0-2.222,2.222h.741v8.888H34.071V13.693l-.3-.222A6.612,6.612,0,0,1,31.108,8.147ZM40,8.888V8.147a.741.741,0,1,1,.741.741Zm1.481,17.776V37.034H34.071V27.009a1.771,1.771,0,0,1,1.047-.345Zm-9.931,0a1.76,1.76,0,0,1,1.043.346V37.034H28.146V35.552h2.963V34.071H28.146V32.59h2.963V31.108H29.193l.741-.741-.524-.524c-.07-.07-.133-.144-.2-.217h1.9V28.146H28.366a4.321,4.321,0,0,1-.22-1.354v-.127ZM2.963,20.739H3A2.37,2.37,0,0,0,4.672,16.7l-.026-.026,3.143-3.143.032.033A2.37,2.37,0,0,0,11.852,11.9v-.046H16.3V11.9a2.369,2.369,0,0,0,4.037,1.664l.026-.026L23.5,16.677l-.026.026a2.368,2.368,0,0,0,1.672,4.036l.024,1.481H20.7a6.663,6.663,0,0,0-13.245,0H2.963ZM17.7,22.22a3.7,3.7,0,0,0-7.257,0h-1.5a5.178,5.178,0,0,1,10.251,0H17.7Zm-1.543,0H11.988a2.209,2.209,0,0,1,4.171,0ZM1.481,26.143V23.7H11.851v2.983a3.334,3.334,0,0,0-.042,6.621,5.992,5.992,0,0,1-3.594,4.8l-.063.027c-.032-.022-.059-.048-.092-.07l-.313-.208a14.048,14.048,0,0,1-6.266-11.71Zm21.48,15.335H13.332v1.481h2.963v1.481H10.369V42.375a5.162,5.162,0,0,0-1.086-3.161,7.456,7.456,0,0,0,4.049-6.624v-.741H12.221a1.852,1.852,0,1,1,0-3.7h1.111V23.7H26.664v3.09a5.756,5.756,0,0,0,1.207,3.543l-1.207,1.207v4.01H23.7a1.483,1.483,0,0,1-1.481-1.481H20.739A2.966,2.966,0,0,0,23.7,37.034h2.963v.741A3.708,3.708,0,0,1,22.961,41.478ZM44.441,40H35.986l-.651.651a2.905,2.905,0,0,1-4.01,0L30.674,40H27.638a5.138,5.138,0,0,0,.448-1.481H41.478a1.483,1.483,0,0,0,1.481-1.481V28.146h1.481Z" transform="translate(0)"/><path d="M48,38h4.444v1.481H48Z" transform="translate(-12.448 -9.854)"/><path d="M48,42h4.444v1.481H48Z" transform="translate(-12.448 -10.892)"/><path d="M48,46h1.481v1.481H48Z" transform="translate(-12.448 -11.929)"/><path d="M52,46h1.481v1.481H52Z" transform="translate(-13.485 -11.929)"/></g></g></g></svg>