<svg xmlns="http://www.w3.org/2000/svg" width="105" height="105" viewBox="0 0 105 105"><g transform="translate(-751 -1217)"><circle cx="52.5" cy="52.5" r="52.5" transform="translate(751 1217)" fill="#adc46c"/><g transform="translate(710.25 1246)"><g transform="translate(77.549 0.697)"><g transform="translate(0 5.013)"><path d="M90,89.837,86.16,93.062a15.91,15.91,0,0,0,13.946,20.9h1.585V89.837Z" transform="translate(-85.345 -87.2)" fill="#7ce3ff"/><path d="M243.72,61.451H229.641V84.07h13.238a15.879,15.879,0,0,0,.841-22.619Z" transform="translate(-216.234 -61.451)" fill="#b9f0ff"/></g><g transform="translate(0.815)"><path d="M224.952,23.967H214.223v29.69h14.771v-4.2c0-1.5,0-2.4-1.093-3.445a3.472,3.472,0,0,0-2.4-.947h-5.168a2.255,2.255,0,0,1-1.534-.6,2.568,2.568,0,0,1-.744-1.452,1.691,1.691,0,0,0-1.59-1.115l1.857-1.857a1.05,1.05,0,0,0-.742-1.792,2.265,2.265,0,0,1,2.265-2.265h2.066a1.352,1.352,0,0,1,.956.4l1.344,1.344q.035.035.072.067a1.126,1.126,0,0,0,1.839-.879V34.844a1.556,1.556,0,0,1,1.556-1.556l.022,0a2.262,2.262,0,0,0,2.034-2.261V27.45A15.977,15.977,0,0,0,224.952,23.967Z" transform="translate(-203.064 -22.437)" fill="#30cd9c"/><path d="M106.9,23.407a15.931,15.931,0,0,1,9.1-14.377,15.9,15.9,0,0,0-21.888,9.345H95.41a2.32,2.32,0,0,1,2.32,2.32v3.158q0,.265.023.527c.151,1.737,2.569,1.956,3.284.19a1.208,1.208,0,0,1,2.3.244l.575,3.151a7.548,7.548,0,0,0,2.8,4.763h0V38.72h2.94l4.918-1.714A15.909,15.909,0,0,1,106.9,23.407Z" transform="translate(-94.121 -7.5)" fill="#0caf7b"/></g></g><g transform="translate(77.448 23.852)"><g transform="translate(1.165)"><path d="M125.626,278.305a3.4,3.4,0,0,0-4.8.36l-.034.04a10.239,10.239,0,0,1-7.754,3.521H109.8l-13,10.721,6.5,2.814,6.5-2.814a30.644,30.644,0,0,0,16.186-9.847A3.4,3.4,0,0,0,125.626,278.305Z" transform="translate(-96.797 -275.553)" fill="#ffd4bd"/><path d="M110.656,257.7a3.4,3.4,0,0,0-4.8.014c-7.414,7.414-5.667,5.666-7.37,7.373a5.766,5.766,0,0,0-1.693,4.077v4.949h6.126a9.191,9.191,0,0,1,2.692-6.535l4.186-4.186.822-.822A3.464,3.464,0,0,0,110.656,257.7Z" transform="translate(-96.798 -256.72)" fill="#ffbf9d"/></g><g transform="translate(0 17.394)"><path d="M109.747,443.934H96.8v5.627h13.009A3.923,3.923,0,0,0,109.747,443.934Z" transform="translate(-95.632 -443.934)" fill="#30cd9c"/><path d="M88.731,446.748a2.814,2.814,0,0,1,2.814-2.814H85.419a3.979,3.979,0,0,0,0,5.627h6.126A2.814,2.814,0,0,1,88.731,446.748Z" transform="translate(-84.253 -443.934)" fill="#0caf7b"/></g></g><g transform="translate(76.751)"><path d="M189.062,84.717v-.772a.7.7,0,1,0-1.394,0v.772a.7.7,0,1,0,1.394,0Z" transform="translate(-177.363 -75.513)"/><path d="M302.871,84.717v-.772a.7.7,0,1,0-1.394,0v.772a.7.7,0,1,0,1.394,0Z" transform="translate(-280.598 -75.513)"/><path d="M234.2,95.866a.7.7,0,0,0-1.051-.916,1.057,1.057,0,0,1-1.6,0,.7.7,0,1,0-1.051.916A2.451,2.451,0,0,0,234.2,95.866Z" transform="translate(-216.061 -85.912)"/><path d="M107.9,26.076a4.1,4.1,0,0,0-.545-.395,16.448,16.448,0,0,0,2.708-9.077A16.6,16.6,0,0,0,82.508,4.13a.7.7,0,0,0,.92,1.047,15.182,15.182,0,0,1,20.91.812v3.3a1.575,1.575,0,0,1-1.394,1.567,2.256,2.256,0,0,0-2.218,2.253v2.062a.427.427,0,0,1-.722.319L98.66,14.142a2.035,2.035,0,0,0-1.448-.6H95.146A2.965,2.965,0,0,0,92.184,16.5a.7.7,0,0,0,.7.7.352.352,0,0,1,.249.6l-1.857,1.857a.7.7,0,0,0,.493,1.19.988.988,0,0,1,.971.8,2.957,2.957,0,0,0,2.9,2.373H100.8a2.844,2.844,0,0,1,2.521,1.533,4.088,4.088,0,0,0-1.2.956l-.034.04a9.531,9.531,0,0,1-7.227,3.28h-1.6a4.1,4.1,0,0,0-3.683-6.639c-.669-1.347-.707-2.033-1.3-5.3a1.9,1.9,0,0,0-3.635-.381c-.444,1.1-1.857,1.007-1.944.011-.013-.154-.02-.311-.02-.467V13.892a3.02,3.02,0,0,0-3.016-3.016H79.36A15.223,15.223,0,0,1,81.588,7.1.7.7,0,0,0,80.5,6.229a16.575,16.575,0,0,0,1.983,22.825c-1.779,1.779-1.5,1.5-2.671,2.675a6.433,6.433,0,0,0-1.9,4.569v4.675a4.673,4.673,0,0,0,.2,6.394.7.7,0,0,0,.493.2H91.622a.7.7,0,0,0,.5-.211,4.617,4.617,0,0,0,.668-5.694,31.414,31.414,0,0,0,4.387-1.549.7.7,0,0,0-.561-1.276,30.008,30.008,0,0,1-5.083,1.709H79.31V36.3a5.048,5.048,0,0,1,1.49-3.585c1.157-1.16.776-.779,7.369-7.372a2.709,2.709,0,0,1,3.813-.011,2.768,2.768,0,0,1-.036,3.882L89.1,32.057a.7.7,0,1,0,.985.986l1.821-1.821h2.953a10.923,10.923,0,0,0,8.281-3.762l.035-.041a2.7,2.7,0,0,1,4.1,3.527,29.89,29.89,0,0,1-8.219,6.687.7.7,0,0,0,.675,1.22,31.278,31.278,0,0,0,8.6-7,4.1,4.1,0,0,0-.434-5.778Zm-16.584,20.1H78.918a3.281,3.281,0,0,1,0-4.234h12.35A3.216,3.216,0,0,1,91.313,46.177ZM87.184,24.355l-3.712,3.711a15.229,15.229,0,0,1-4.6-15.8h.784a1.625,1.625,0,0,1,1.623,1.623V17.05c0,.2.009.394.026.588.215,2.468,3.634,2.835,4.624.391a.487.487,0,0,1,.519-.307.5.5,0,0,1,.453.415l.575,3.151a9.6,9.6,0,0,0,.749,2.314,4.091,4.091,0,0,0-1.037.753Zm17.477.771a4.231,4.231,0,0,0-3.858-2.5H95.634a1.553,1.553,0,0,1-1.06-.416,1.519,1.519,0,0,1-.481-.885,2.361,2.361,0,0,0-1.03-1.484l1.053-1.053a1.748,1.748,0,0,0-.452-2.8,1.571,1.571,0,0,1,1.482-1.055h2.065a.65.65,0,0,1,.463.192l1.346,1.346a1.821,1.821,0,0,0,3.1-1.307V13.1a.861.861,0,0,1,.86-.86l.06,0,.027,0a2.943,2.943,0,0,0,2.665-2.955V7.634a15.174,15.174,0,0,1,.288,17.529,4.02,4.02,0,0,0-1.36-.038Z" transform="translate(-76.751)"/></g></g></g></svg>