<svg xmlns="http://www.w3.org/2000/svg" width="105" height="105" viewBox="0 0 105 105"><g transform="translate(6851 10569)"><circle cx="52.5" cy="52.5" r="52.5" transform="translate(-6851 -10569)" fill="#adc46c"/><g transform="translate(-6821 -10539)"><g transform="translate(0.751 0.751)"><circle cx="21.5" cy="21.5" r="21.5" transform="translate(0.25 0.291)" fill="#f44335"/><path d="M29.626,1q-.567,0-1.126.029a21.77,21.77,0,0,1,0,43.483q.56.029,1.126.029a21.77,21.77,0,1,0,0-43.54Z" transform="translate(-7.856 -1)" fill="#c81e1e"/><circle cx="17.5" cy="17.5" r="17.5" transform="translate(4.25 4.291)" fill="#f5f5f5"/><path d="M29.626,7c-.375,0-.751.017-1.126.041a17.262,17.262,0,0,1,0,34.45c.375.024.751.041,1.126.041A17.266,17.266,0,1,0,29.626,7Z" transform="translate(-7.856 -2.496)" fill="#cfd8dc"/><g transform="translate(18.767 9.008)"><circle cx="3" cy="3" r="3" transform="translate(0.482 19.282)" fill="#ffdf00"/><path d="M32.005,16c0,1.658-1.344,13.512-3,13.512S26,17.661,26,16a3,3,0,1,1,6.005,0Z" transform="translate(-26 -13)" fill="#ffdf00"/></g></g><path d="M22.521,0A22.521,22.521,0,1,0,45.041,22.521,22.521,22.521,0,0,0,22.521,0Zm0,43.54A21.019,21.019,0,1,1,43.54,22.521,21.019,21.019,0,0,1,22.521,43.54Z"/><path d="M24.016,6A18.016,18.016,0,1,0,42.033,24.016,18.016,18.016,0,0,0,24.016,6Zm0,34.531A16.515,16.515,0,1,1,40.531,24.016,16.515,16.515,0,0,1,24.016,40.531Z" transform="translate(-1.496 -1.496)"/><path d="M28.753,38a3.753,3.753,0,1,0,3.753,3.753A3.753,3.753,0,0,0,28.753,38Zm0,6.005a2.252,2.252,0,1,1,2.252-2.252A2.252,2.252,0,0,1,28.753,44.005Z" transform="translate(-6.233 -9.474)"/><path d="M28.753,12A3.758,3.758,0,0,0,25,15.753a66.567,66.567,0,0,0,.89,7.507c1.068,6.231,2.037,6.756,2.863,6.756s1.795-.525,2.863-6.756a66.566,66.566,0,0,0,.89-7.507A3.758,3.758,0,0,0,28.753,12Zm0,16.341C27.69,26.627,26.5,17.756,26.5,15.753a2.252,2.252,0,0,1,4.5,0C31.005,17.76,29.817,26.627,28.753,28.341Z" transform="translate(-6.233 -2.992)"/></g></g></svg>