<svg xmlns="http://www.w3.org/2000/svg" width="82" height="82" viewBox="0 0 82 82"><path d="M82,41A41,41,0,1,1,41,0,41,41,0,0,1,82,41Z" fill="#0540b7"/><path d="M69.966,163.98l-1.383,21.315q-.764.062-1.542.07A21.414,21.414,0,0,1,56.252,182.6l2.064-13.206.986-6.026h0l3.557.2Z" transform="translate(-47.243 -137.203)" fill="#ffc396"/><path d="M60.973,53.34c-2.1.021-1.94.542-1.931,1.432.027,2.649-5.632.3-5.6,3.269,1.445,2.821,3.5,1.952,3.207,3.27l-1.56,3.2v.005A2.391,2.391,0,0,1,53.8,65.647a8,8,0,0,1-3.323-.408c-6.208-1.833-12.726-6.885-14.718-8.831a0,0,0,0,0,0,0,18.4,18.4,0,0,1-1.67-1.911l0,0q-.385-.507-.729-1.04A14.867,14.867,0,0,1,31.1,42.5c.891-5.76,5.992-10.718,13.472-10.73.116,0,.232,0,.346,0,7.312.1,13.175,5.664,13.392,12.543.078,2.473-.132,1.61,3.757,7.715C62.406,52.642,61.832,53.331,60.973,53.34Z" transform="translate(-25.88 -26.682)" fill="#ffd7aa"/><path d="M59.234,159.447a2.391,2.391,0,0,1-1.288,1.129,8,8,0,0,1-3.323-.408c-5.685-1.565-12.55-6.713-14.718-8.831a0,0,0,0,0,0,0,18.323,18.323,0,0,1-1.67-1.911l0,0q-.383-.508-.729-1.04a15.9,15.9,0,0,1-1.752-3.581A47.913,47.913,0,0,0,59.234,159.447Z" transform="translate(-30.025 -121.611)" fill="#ffc396"/><path d="M52.2,30.192c-3.328.01-9.9-.411-12.8-.382-1.511.015-1.473,7.476-1.4,8.986.913,10.279.952,21.43-12.257,12.276-4.371-3.029-3.953-11.742-3.953-17.508,0-8.2,6.64-16.322,15.095-16.322,6.552,0,15.517,1.419,16.189,11.7A.932.932,0,0,1,52.2,30.192Z" transform="translate(-18.284 -14.48)" fill="#965028"/><path d="M52.12,297.547A41.04,41.04,0,0,1,23.2,274.466l3.751-15.608a1.555,1.555,0,0,1,1.672-1.185L41.584,259a1.556,1.556,0,0,1,1.387,1.374l.651,5.745,3.26,3.781a12.092,12.092,0,0,1,2.794,6.059Z" transform="translate(-19.484 -216.399)" fill="#ff5a5f"/><path d="M137.03,344.357H109.769a.7.7,0,0,1-.7-.7V325.391a.753.753,0,0,1,.753-.753h25.113a3.024,3.024,0,0,0,.725-.088l7.174-1.773a.291.291,0,0,1,.254.509l-4.239,3.458a3.023,3.023,0,0,0-1.112,2.342v14.568A.7.7,0,0,1,137.03,344.357Z" transform="translate(-91.598 -271.074)" fill="#cdf5ff"/><path d="M137.73,381.432v5.682a.7.7,0,0,1-.7.7h-27.26a.7.7,0,0,1-.7-.7v-12.6a19.763,19.763,0,0,0,3.127,2.724,20.277,20.277,0,0,0,2.954,1.722c4.986,2.384,10.926,2.9,17.3,2.9A32.135,32.135,0,0,0,137.73,381.432Z" transform="translate(-91.595 -314.536)" fill="#b4ebff"/><g transform="translate(20.551 61.295)"><circle cx="1.796" cy="1.796" r="1.796" transform="translate(18.154 0.001)" fill="#4bb9e1"/><circle cx="1.796" cy="1.796" r="1.796" transform="translate(9.077 0.001)" fill="#4bb9e1"/><path d="M131.913,384.516a1.8,1.8,0,1,1-3.592,0,1.719,1.719,0,0,1,.042-.386,1.8,1.8,0,0,1,3.55.386Z" transform="translate(-128.321 -382.719)" fill="#4bb9e1"/></g><path d="M266.011,27.232h26.134a.674.674,0,0,1,.674.674V45.414a.722.722,0,0,1-.722.722H267.909a1.966,1.966,0,0,0-.471.057l-6.493,1.6a.394.394,0,0,1-.343-.687l4.013-3.273a1.964,1.964,0,0,0,.723-1.522V27.906A.674.674,0,0,1,266.011,27.232Z" transform="translate(-218.741 -22.871)" fill="#cdf5ff"/><g transform="translate(50.274 12.409)"><circle cx="1.722" cy="1.722" r="1.722" fill="#4bb9e1"/><circle cx="1.722" cy="1.722" r="1.722" transform="translate(8.701)" fill="#4bb9e1"/><circle cx="1.722" cy="1.722" r="1.722" transform="translate(17.405)" fill="#4bb9e1"/></g><path d="M292.821,70.54V73.4a.722.722,0,0,1-.721.722H267.91a1.966,1.966,0,0,0-.471.057l-6.492,1.6a.394.394,0,0,1-.343-.687l4.014-3.273a1.964,1.964,0,0,0,.723-1.522V60.555a26.559,26.559,0,0,0,3.873,3.632,29.312,29.312,0,0,0,2.832,1.922,33.724,33.724,0,0,0,17.261,4.6Q291.089,70.71,292.821,70.54Z" transform="translate(-218.743 -50.857)" fill="#b4ebff"/><path d="M316.93,85.154a1.722,1.722,0,0,1-2.832-1.921A29.3,29.3,0,0,0,316.93,85.154Z" transform="translate(-263.628 -69.903)" fill="#46a5cd"/><path d="M410.365,322.757a41.182,41.182,0,0,1-8.722,10.493c-.292.013-.587.019-.882.019-.525,0-1.044-.017-1.559-.054l-1.616-21.522,7.173-.483,3.594-.246h0l1.058,6.079Z" transform="translate(-333.909 -261.162)" fill="#ffd7aa"/><path d="M402.966,334.529q-.648.61-1.323,1.189c-.292.013-.587.019-.882.019-.525,0-1.044-.017-1.559-.054l-1.616-21.522,3.83-.258Z" transform="translate(-333.909 -263.629)" fill="#ffc396"/><path d="M317.627,180.515c1.921.125,1.675,1.759,1.619,2.624-.167,2.578,5.146.569,4.958,3.462-1.477,2.676-3.312,1.728-3.116,3.026l1.257,3.2v0a2.233,2.233,0,0,0,1.12,1.164,6.932,6.932,0,0,0,3.068-.233c5.789-1.477,12.036-6.075,13.967-7.872a0,0,0,0,1,0,0,17.682,17.682,0,0,0,1.633-1.778h0q.38-.475.724-.976a15.2,15.2,0,0,0,2.664-10.556,12.185,12.185,0,0,0-11.77-11.117c-.106-.006-.213-.011-.318-.015-6.708-.26-12.307,3.729-12.878,10.417-.205,2.4.034,1.574-3.859,7.327C316.351,179.765,316.841,180.465,317.627,180.515Z" transform="translate(-265.882 -135.575)" fill="#ffd7aa"/><path d="M352.548,288.79a2.233,2.233,0,0,0,1.12,1.164,6.931,6.931,0,0,0,3.068-.233c5.295-1.243,11.865-5.916,13.967-7.872a0,0,0,0,1,0,0,17.628,17.628,0,0,0,1.633-1.778h0q.378-.475.724-.976a15.916,15.916,0,0,0,1.8-3.4A43.783,43.783,0,0,1,352.548,288.79Z" transform="translate(-296.085 -231.538)" fill="#ffc396"/><path d="M421.555,187.847c-1.7-.771.293-2.723-2.556-4.935a.865.865,0,0,1-.3-.922c.772-2.687.974-4.712-.557-5.922-1.627-1.285-3.069,2.029-3.572,2.249a.865.865,0,0,1-1.226-.723c-.057-.839-.06-6.038,0-6.909.228-3.506,2.053-4.995,3.809-7.488a13.33,13.33,0,0,1,10.945,11.99c.449,3.258-.313,10.631-4.714,12.635A2.211,2.211,0,0,1,421.555,187.847Z" transform="translate(-347.104 -137.061)" fill="#aa6432"/><path d="M366.873,139.981a.85.85,0,0,1-1.064.745l-19.182-5.075a9.17,9.17,0,0,1-6.125-11.43l.516-1.708a.85.85,0,0,1,1.06-.568l19.867,6c3.447,1.042,5.692,3.582,5.271,8.271Z" transform="translate(-285.637 -102.385)" fill="#965028"/><path d="M379.176,361A41.14,41.14,0,0,1,359.1,380.038l.9-5.369a16.666,16.666,0,0,1,1.473-4.585l2.546-5.188a3.067,3.067,0,0,1,1.691-1.522l11.777-4.323a1.063,1.063,0,0,1,1.4.749Z" transform="translate(-301.588 -301.491)" fill="#fa7c33"/><path d="M131.318,393.25a1.8,1.8,0,0,1-3-1.336,1.719,1.719,0,0,1,.042-.386A20.412,20.412,0,0,0,131.318,393.25Z" transform="translate(-107.77 -328.822)" fill="#46a5cd"/><g transform="translate(3.487 2.762)"><path d="M30.353,52.328a30.472,30.472,0,0,0,3.51,2.136c-1.885.1-4.51-.879-8.128-3.387-4.37-3.029-3.952-11.742-3.952-17.509,0-8.2,6.64-16.321,15.095-16.321,1.012,0,2.082.034,3.17.128-7.863,1.083-13.794,8.9-13.794,16.8C26.255,40.152,25.821,49.188,30.353,52.328Z" transform="translate(-21.772 -17.247)" fill="#80391b"/><path d="M367.04,138.149l-.167,1.834a.849.849,0,0,1-1.063.744l-19.183-5.076a9.168,9.168,0,0,1-6.125-11.428l.516-1.708a.849.849,0,0,1,1.06-.569l1,.3a9.169,9.169,0,0,0,6.192,11.2Z" transform="translate(-289.124 -105.149)" fill="#80391b"/></g><path d="M43.28,263.111l-11.533-1.183a2.045,2.045,0,0,0-2.2,1.557L25.768,279.22a41,41,0,0,1-2.57-4.753l3.751-15.608a1.555,1.555,0,0,1,1.672-1.185L41.583,259a1.556,1.556,0,0,1,1.387,1.373Z" transform="translate(-19.483 -216.399)" fill="#ff4046"/><path d="M379.176,361q-.283.562-.587,1.114l-10.342,3.8a3.067,3.067,0,0,0-1.691,1.522l-2.546,5.188a16.657,16.657,0,0,0-1.473,4.584l-.206,1.233q-1.574.866-3.231,1.6l.9-5.369a16.666,16.666,0,0,1,1.473-4.584l2.546-5.188a3.067,3.067,0,0,1,1.691-1.522l11.777-4.323a1.063,1.063,0,0,1,1.4.749Z" transform="translate(-301.589 -301.491)" fill="#d76e19"/><g transform="translate(27.964 19.276)"><circle cx="1.245" cy="1.245" r="1.245" fill="#ba6746"/><circle cx="1.245" cy="1.245" r="1.245" transform="translate(29.766 17.523)" fill="#ba6746"/></g></svg>