<svg xmlns="http://www.w3.org/2000/svg" width="82" height="82" viewBox="0 0 82 82"><g transform="translate(0.482 0.481)"><g transform="translate(-0.482 -0.482)"><circle cx="41" cy="41" r="41" transform="translate(0 0.001)" fill="#8afff1"/></g><g transform="translate(0.038 0.038)"><path d="M80.961,40.481a40.491,40.491,0,0,1-33.9,39.948s-4.341-3.186-6.581-3.186c-2.528,0-7.4,3.042-7.4,3.042A40.49,40.49,0,0,1,6.945,17.8s3.967-1.92,5.593-3.6,4.124-6.455,4.124-6.455a40.5,40.5,0,0,1,47.637,0,45.834,45.834,0,0,0,4.137,5.919,41.6,41.6,0,0,0,5.58,4.139,40.291,40.291,0,0,1,6.945,22.677Z" transform="translate(0 0)" fill="#adc46c"/></g><path d="M159.963,95.512s-2.806-1.78-4.559-3.208l-25.053,13.267,2.716,2.72-2.053,2.41-8.429-8.429-20.35.351-.145,10.52,15.537,15.537,1.844,12.393-2.45-2.45-.8,10.355,3.36,3.36,3.005,3.748a10.62,10.62,0,0,1,3.842-1.136c2.241,0,6.581,3.186,6.581,3.186a40.49,40.49,0,0,0,26.954-62.625Z" transform="translate(-85.909 -77.67)" fill="#80cab6"/><g transform="translate(6.983 7.783)"><g transform="translate(20.161 37.473)"><path d="M176.218,379.842a3.83,3.83,0,0,0-4.37-2.87l-.041.007a.469.469,0,0,0-.383.552c.278,1.45.88,4.756,1.43,7.807a6.519,6.519,0,0,0,7.488,5.272,2.25,2.25,0,0,0,1.845-2.6l-.107-.618c-.531-3.077-2.183-4.812-5.3-5.039Z" transform="translate(-171.416 -362.533)" fill="#ffc1a6"/><g transform="translate(4.809)"><g transform="translate(12.299 5.915)"><path d="M280.346,333.181l-.734-1.9.534-5.857a2.278,2.278,0,0,1,4.545.22V332.2Z" transform="translate(-279.612 -323.367)" fill="#f9a991"/></g><g transform="translate(3.461)"><path d="M223.717,301.418l.883-11.179v-1.95a2.212,2.212,0,0,1,2.172-2.331,2.172,2.172,0,0,1,2.172,2.172v2.6l.543,8.354-.543,2.335Z" transform="translate(-223.717 -285.958)" fill="#f9a991"/></g><path d="M219.208,311.934v8.9a4.7,4.7,0,0,1-2.231,4V332.4a40.614,40.614,0,0,1-6.456.533H210.4a40.651,40.651,0,0,1-7.4-.677v-7.9l-.873-2.323a4.552,4.552,0,0,1-.289-1.6V301.47a2.171,2.171,0,1,1,4.342,0v10.463Z" transform="translate(-201.83 -297.19)" fill="#ffdcc0"/><path d="M265.478,314.536v8.9a4.7,4.7,0,0,1-2.231,4V335a40.6,40.6,0,0,1-6.456.533V304.563a2.172,2.172,0,0,1,4.344,0v9.973Z" transform="translate(-248.099 -299.792)" fill="#ffc1a6"/></g></g><g transform="translate(36.711)"><path d="M395.834,134.038a3.83,3.83,0,0,0,1.06,5.12l.034.024a.469.469,0,0,0,.661-.12c.829-1.222,2.741-3.985,4.509-6.532a6.519,6.519,0,0,0-1.567-9.022,2.25,2.25,0,0,0-3.144.535l-.362.513c-1.8,2.551-1.859,4.946.182,7.309Z" transform="translate(-376.427 -111.371)" fill="#e29074"/><g transform="translate(0 12.187)"><path d="M285.151,128.428l-.824,1.863-4.519,3.764a2.278,2.278,0,0,1-3.058-3.37l4.632-4.632Z" transform="translate(-276.082 -126.053)" fill="#bc7464"/></g><g transform="translate(1.918 17.825)"><path d="M301.942,165.4l-8.529,7.28-1.379,1.379a2.212,2.212,0,0,1-3.184.112,2.172,2.172,0,0,1,0-3.072l1.837-1.837,5.524-6.291,2.035-1.267Z" transform="translate(-288.213 -161.705)" fill="#bc7464"/></g><path d="M310.086,59.038l-4.809,4.809-1.026,2.261a4.548,4.548,0,0,1-.923,1.333L289.915,80.854a2.171,2.171,0,1,1-3.071-3.071l7.4-7.4-3.074-3.074-7.052,7.052a2.173,2.173,0,0,1-3.072-3.072l7.052-7.052-3.071-3.071,6.29-6.29a4.694,4.694,0,0,1,4.405-1.249l4.647-4.647A40.679,40.679,0,0,1,310.086,59.038Z" transform="translate(-279.726 -48.98)" fill="#e29074"/></g><g transform="translate(0 0)"><path d="M73.641,134.038a3.83,3.83,0,0,1-1.06,5.12l-.034.024a.469.469,0,0,1-.661-.12c-.829-1.222-2.741-3.985-4.509-6.532a6.519,6.519,0,0,1,1.567-9.022,2.25,2.25,0,0,1,3.144.535l.362.513c1.8,2.551,1.859,4.946-.182,7.309Z" transform="translate(-62.687 -111.371)" fill="#ffc1a6"/><g transform="translate(21.292 12.187)"><path d="M178.568,128.428l.824,1.863,4.519,3.764a2.278,2.278,0,0,0,3.058-3.37l-4.632-4.632Z" transform="translate(-178.568 -126.053)" fill="#ffc1a6"/></g><g transform="translate(14.713 17.825)"><path d="M136.964,165.4l8.529,7.28,1.379,1.379a2.212,2.212,0,0,0,3.184.112,2.172,2.172,0,0,0,0-3.072l-1.837-1.837-5.524-6.291-2.035-1.267Z" transform="translate(-136.964 -161.705)" fill="#ffc1a6"/></g><path d="M73.6,72.827a2.17,2.17,0,0,1-3.706,1.535L62.837,67.31l-3.074,3.074,7.4,7.4a2.171,2.171,0,1,1-3.071,3.071L50.678,67.441a4.548,4.548,0,0,1-.923-1.333l-1.026-2.261L43.92,59.038A40.679,40.679,0,0,1,53.637,48.98l4.647,4.647a4.694,4.694,0,0,1,4.405,1.249l6.29,6.29-3.071,3.071,7.052,7.052a2.161,2.161,0,0,1,.634,1.537Z" transform="translate(-43.92 -48.98)" fill="#ffdcc0"/></g></g></g></svg>