<svg xmlns="http://www.w3.org/2000/svg" width="82" height="85.682" viewBox="0 0 82 85.682"><g transform="translate(-0.5 -0.001)"><path d="M82.5,63a41,41,0,1,1-41-41A41,41,0,0,1,82.5,63Zm0,0" transform="translate(0 -18.317)" fill="#91e0e8"/><path d="M156.856,229.693a3.541,3.541,0,0,1,.792.091l.152.035.046-.149a3.5,3.5,0,0,1,3.361-2.487,3.6,3.6,0,0,1,.366.021,9.477,9.477,0,0,0-1.177-1.428,9.617,9.617,0,0,0-8.222-2.664.684.684,0,0,0-.571.575,9.619,9.619,0,0,0,2.251,7.695A3.507,3.507,0,0,1,156.856,229.693Zm0,0" transform="translate(-125.732 -185.68)" fill="#37c47a"/><path d="M156.228,229.755a9.62,9.62,0,0,1-1.11-6.064.683.683,0,0,1,.363-.507,9.559,9.559,0,0,0-3.306-.067.683.683,0,0,0-.571.575,9.619,9.619,0,0,0,2.251,7.694A3.507,3.507,0,0,1,156.228,229.755Zm0,0" transform="translate(-125.732 -185.684)" fill="#2bb381"/><path d="M120.815,276.292l2.359,1.3c.054.01.108.022.161.035l.171.044.034-.173a3.519,3.519,0,0,1,2.246-2.611l-.875-.481a3.8,3.8,0,0,0-4.251.59,2.4,2.4,0,0,0-.61,1.013A3,3,0,0,1,120.815,276.292Zm0,0" transform="translate(-99.544 -228.147)" fill="#ffc987"/><path d="M97.04,288.552a3.241,3.241,0,0,1,1.4.3l.167.08A3.515,3.515,0,0,1,102.9,286.3l.171.044.016-.079-2.627-1.442a3.8,3.8,0,0,0-4.25.59,2.224,2.224,0,0,0-.008,3.234A3.878,3.878,0,0,1,97.04,288.552Zm0,0" transform="translate(-79.111 -236.823)" fill="#ffaf68"/><path d="M264.964,12.418a1.111,1.111,0,0,0-.932-.933,15.568,15.568,0,0,0-17.813,17.207L257.108,17.8a1.088,1.088,0,0,1,1.538,1.538L247.758,30.23a15.567,15.567,0,0,0,17.206-17.813Zm0,0" transform="translate(-204.513 -9.416)" fill="#37c47a"/><path d="M257.759,113.465l-1.825,1.824a15.54,15.54,0,0,0,1.922.1A15.486,15.486,0,0,1,257.759,113.465Zm0,0" transform="translate(-212.688 -94.476)" fill="#2bb381"/><path d="M250.025,24.886a15.53,15.53,0,0,1,15.013-11.9c-.022-.19-.045-.379-.074-.569a1.112,1.112,0,0,0-.933-.933,15.568,15.568,0,0,0-17.813,17.207Zm0,0" transform="translate(-204.513 -9.416)" fill="#2bb381"/><path d="M107.825,9.94A1.088,1.088,0,0,1,109.364,8.4l8.842,8.842A15.567,15.567,0,0,0,100.378.176a1.112,1.112,0,0,0-.933.933,15.643,15.643,0,0,0,4.382,13.36,15.646,15.646,0,0,0,12.962,4.437Zm0,0" transform="translate(-82.242)" fill="#37c47a"/><path d="M212.376,103s0,0,0-.008h-.009Zm0,0" transform="translate(-176.412 -85.753)" fill="#2bb381"/><path d="M114.694,16.817A15.531,15.531,0,0,1,102.8.01a15.453,15.453,0,0,0-2.419.173,1.113,1.113,0,0,0-.933.933,15.642,15.642,0,0,0,4.382,13.36,15.645,15.645,0,0,0,12.962,4.437Zm0,0" transform="translate(-82.242 -0.007)" fill="#2bb381"/><path d="M160.988,62.5V79.6a3.415,3.415,0,0,1,2.51.027V71.664l2.5-2.5a1.255,1.255,0,0,0-1.775-1.775l-.722.722V62.5l13.145-13.145a1.255,1.255,0,1,0-1.775-1.775L162.243,60.209,149.633,47.6a1.255,1.255,0,1,0-1.775,1.775Zm0,0" transform="translate(-122.392 -39.314)" fill="#0f9390"/><path d="M278.513,180.675a9.614,9.614,0,0,1-8.643-.049.685.685,0,0,1-.362-.726,9.571,9.571,0,0,1,13.8-6.885.684.684,0,0,1,.362.726A9.614,9.614,0,0,1,278.513,180.675Zm0,0" transform="translate(-223.983 -143.186)" fill="#37c47a"/><path d="M276.717,174.646a9.614,9.614,0,0,1,6.9-.633c.018-.091.04-.18.056-.272a.684.684,0,0,0-.362-.726,9.571,9.571,0,0,0-13.8,6.885.685.685,0,0,0,.362.726,9.5,9.5,0,0,0,1.743.682A9.611,9.611,0,0,1,276.717,174.646Zm0,0" transform="translate(-223.983 -143.187)" fill="#2bb381"/><path d="M122.354,254.993a17.8,17.8,0,0,0,5.171,1.424l13.886,1.218c.084.007.167.011.249.011a2.463,2.463,0,0,0,1.81-.756,2.516,2.516,0,0,0,.667-1.888,3.568,3.568,0,0,0-2.957-3.217l-7.439-1.024a3.22,3.22,0,0,1-2.668-2.9,2.21,2.21,0,0,1,.586-1.659,2.169,2.169,0,0,1,1.594-.664c.062,0,.125,0,.188.007l12.648.947a9.01,9.01,0,0,1,4.593,1.962l.1.09a3.682,3.682,0,0,0-3.649-3.2,3.727,3.727,0,0,0-.632.055,3.685,3.685,0,0,0-4.452-2.073,3.68,3.68,0,0,0-4.613-2.865l-1.879-1.449a3.44,3.44,0,0,0-3.976,0l-1.264.974a3.686,3.686,0,0,0-4.612,2.441,3.681,3.681,0,0,0-4.322,2.42c-.063,0-.126,0-.19,0a3.683,3.683,0,0,0-3.61,2.958,3.684,3.684,0,0,0-4.49,2.721Zm0,0" transform="translate(-93.752 -198.488)" fill="#bf7e52"/><path d="M118.191,252.984a3.684,3.684,0,0,1,4.586-3.405,3.682,3.682,0,0,1,3.61-2.958c.064,0,.127,0,.19.005a3.678,3.678,0,0,1,4.322-2.42,3.684,3.684,0,0,1,4.612-2.441l1.264-.975a2.851,2.851,0,0,1,.622-.359l-1.839-1.418a3.44,3.44,0,0,0-3.976,0l-1.264.975a3.684,3.684,0,0,0-4.612,2.44,3.681,3.681,0,0,0-4.322,2.42c-.063,0-.126,0-.19,0a3.683,3.683,0,0,0-3.61,2.958,3.684,3.684,0,0,0-4.49,2.721Zm0,0" transform="translate(-93.752 -198.488)" fill="#a8683d"/><path d="M135.015,290.265l-7.96-7.167a9.229,9.229,0,0,0-4.692-2l-12.647-.947a2.318,2.318,0,0,0-2.547,2.491,3.4,3.4,0,0,0,2.812,3.06l7.44,1.024a3.4,3.4,0,0,1,2.812,3.061,2.282,2.282,0,0,1-2.544,2.457L103.8,291.019a17.633,17.633,0,0,1-5.114-1.408l-9.271-4.475a3.8,3.8,0,0,0-4.214.812,2.242,2.242,0,0,0,.465,3.467l11.437,7.536A16.928,16.928,0,0,0,102,298.985L123.19,303.4Zm0,0" transform="translate(-70.013 -233.257)" fill="#ffc987"/><path d="M86.8,324.725a3.674,3.674,0,0,1,3.647,4.916l-4.712-3.105a2.313,2.313,0,0,1-1.071-1.7Zm0,0" transform="translate(-70.083 -270.378)" fill="#ffe2b8"/><path d="M222.99,282.582l-3.439-.243a2.309,2.309,0,0,1,2.546-2.193l4.477.335A3.674,3.674,0,0,1,222.99,282.582Zm0,0" transform="translate(-182.393 -233.257)" fill="#ffe2b8"/><path d="M323.464,337.1l-2.967-2.672a.84.84,0,0,0-1.182.062l-13.773,15.3a.84.84,0,0,0,.062,1.182l2.967,2.672Zm0,0" transform="translate(-253.816 -278.287)" fill="#fff"/><path d="M311.146,350.785l-1.664-1.5a.84.84,0,0,1-.062-1.182l11.758-13.06-.681-.613a.84.84,0,0,0-1.182.062l-13.773,15.3a.839.839,0,0,0,.062,1.181l2.967,2.672Zm0,0" transform="translate(-253.816 -278.287)" fill="#eef6ff"/><path d="M343.873,351.786l-6.493-5.847A.84.84,0,0,0,336.2,346l-15.831,17.583a.84.84,0,0,0,.062,1.182l5.174,4.658A41.17,41.17,0,0,0,343.873,351.786Zm0,0" transform="translate(-266.159 -287.868)" fill="#159e97"/><path d="M323.877,430.594a.824.824,0,0,1-.181-.239l-3.328,3.7a.839.839,0,0,0,.061,1.182l5.174,4.658a40.921,40.921,0,0,0,5.018-2.905Zm0,0" transform="translate(-266.161 -358.336)" fill="#0f9390"/><path d="M340.47,446.211a1.489,1.489,0,1,1-1.488-1.488A1.489,1.489,0,0,1,340.47,446.211Zm0,0" transform="translate(-280.598 -370.299)" fill="#ffaf10"/></g></svg>