<svg xmlns="http://www.w3.org/2000/svg" width="82" height="92.619" viewBox="0 0 82 92.619"><g transform="translate(-29.351 0)"><g transform="translate(35.252 5.887)"><g transform="translate(0)"><g transform="translate(42.075 51.607)"><path d="M294.565,330.716q4.035,1.939,8.072,3.872l9.658-10.792a3.583,3.583,0,0,0-5.131-4.992Z" transform="translate(-294.565 -317.824)" fill="#f89f8e"/></g><g transform="translate(34.464 49.432)"><path d="M252.491,318.694q4.035,1.939,8.072,3.872l9.658-10.792a3.583,3.583,0,0,0-5.131-4.992Z" transform="translate(-252.491 -305.802)" fill="#ea806f"/></g><g transform="translate(47.944 55.146)"><path d="M327.007,349.568q3.94,2.125,7.882,4.245l10.151-10.329a3.583,3.583,0,0,0-4.892-5.227Z" transform="translate(-327.007 -337.39)" fill="#fdb0a0"/></g><path d="M124.625,82.244v0a31.641,31.641,0,1,1-25.984-49.7,32.069,32.069,0,0,1,3.482.19l20.329,19.949Z" transform="translate(-66.09 -32.548)" fill="#64b9fc"/><path d="M233.334,34.886A31.384,31.384,0,0,0,224.51,32.7q1.552-.155,3.148-.156a32.2,32.2,0,0,1,3.49.19.011.011,0,0,1-.007,0Z" transform="translate(-195.107 -32.54)" fill="#31a7fb"/><path d="M253.642,246.638v0a31.6,31.6,0,0,1-25.984,13.584q-1.593,0-3.148-.154a31.656,31.656,0,0,0,28.148-26.82Z" transform="translate(-195.107 -196.942)" fill="#31a7fb"/><path d="M188.291,65.049a31.487,31.487,0,0,1-5.655,18.057l-9.254-3.082a1.875,1.875,0,0,0-2.169.764l-1.988,3.09a1.874,1.874,0,0,1-.784.685l-5.377,2.508a1.875,1.875,0,0,1-1.871-.165l-6.627-4.658a1.875,1.875,0,0,1-.64-2.285l.988-2.26a1.875,1.875,0,0,1,1.262-1.067l7.21-1.81a1.875,1.875,0,0,0,1.212-.964l2.439-4.76a1.875,1.875,0,0,0-.069-1.833l-2.623-4.291a1.875,1.875,0,0,0-1.6-.9h-2.081a1.875,1.875,0,0,0-1.578.862L155.449,68.6a1.876,1.876,0,0,1-2.122.781l-2.939-.891a1.875,1.875,0,0,0-1.882.481l-1.654,1.685a1.875,1.875,0,0,1-2.373.25l-3.666-2.426a1.876,1.876,0,0,1-.7-.855l-2.15-5.264a1.875,1.875,0,0,1,.126-1.669l3.3-5.526a1.875,1.875,0,0,1,2.2-.82l5.574,1.837a1.875,1.875,0,0,0,1.446-.114l8.762-4.513a1.875,1.875,0,0,0,1.012-1.794l-.265-3.9a1.875,1.875,0,0,0-.881-1.465l-1.905-1.184a1.875,1.875,0,0,1-.7-2.413l3.507-7.2a31.644,31.644,0,0,1,28.156,31.449Z" transform="translate(-124.102 -33.408)" fill="#99d53b"/><path d="M286.734,65.05a31.487,31.487,0,0,1-5.655,18.057L275.9,81.382a31.656,31.656,0,0,0-17.894-46.609l.57-1.172A31.644,31.644,0,0,1,286.734,65.05Z" transform="translate(-222.546 -33.409)" fill="#8dc637"/><path d="M370.36,155.381a31.6,31.6,0,0,1-1.824,10.613c-3.26-.852-9.414-4.131-8.3-11.806a12.366,12.366,0,0,1,7.653-10.238.938.938,0,0,1,.317-.069A31.529,31.529,0,0,1,370.36,155.381Z" transform="translate(-306.171 -123.739)" fill="#8dc637"/><path d="M98.824,279.963a4.063,4.063,0,0,0-4.088,1.028c-.948.893-1.89,2.141-3.13,3.143A31.721,31.721,0,0,1,82.558,272.5a9.854,9.854,0,0,1,7.143-1.447,12.358,12.358,0,0,1,10.238,7.655A.936.936,0,0,1,98.824,279.963Z" transform="translate(-78.834 -227.798)" fill="#31a7fb"/><path d="M106.055,59.506a12.378,12.378,0,0,1-11.928-2.744,31.743,31.743,0,0,1,15.382-12.611q.718.087,1.477.2a3.334,3.334,0,0,1,.762.2,3.272,3.272,0,0,1,2.021,2.5C114.3,50.267,113.791,57.556,106.055,59.506Z" transform="translate(-88.31 -42.051)" fill="#31a7fb"/><path d="M137.476,351.827a3.651,3.651,0,0,0-4.526-1.262l-12.086,5.359a4.774,4.774,0,0,0-4.72-4.057h-10.3a18.785,18.785,0,0,1-5.964-.972L91.2,347.987a7.779,7.779,0,0,0-4.644-.092l-5.642,1.642a7.781,7.781,0,0,0-4.729,3.882,15.891,15.891,0,0,1-5.462,6.009l-7.89,5.109a1.875,1.875,0,0,0-.307,2.9l9.342,9.342a1.875,1.875,0,0,0,2.465.164l11.367-8.69,24.439,1.643a7.383,7.383,0,0,0,4.04-.89l22.033-12.059A3.583,3.583,0,0,0,137.476,351.827Z" transform="translate(-61.972 -290.594)" fill="#ffcec0"/><g transform="translate(7.223 59.671)"><path d="M168.913,369.079l-22.033,12.059a7.39,7.39,0,0,1-4.039.891L118.4,380.386l-11.367,8.69a1.875,1.875,0,0,1-2.465-.164l-2.668-2.668,13.229-10.112a1.318,1.318,0,0,1,.888-.268l23.945,1.61a7.394,7.394,0,0,0,4.041-.89l22.033-12.059a3.565,3.565,0,0,0,1.716-2.127,3.582,3.582,0,0,1,1.16,6.68Z" transform="translate(-101.9 -362.399)" fill="#fdb0a0"/><path d="M284.6,389.166a6.188,6.188,0,0,1-6.18,6.18H266.011a25.46,25.46,0,0,0-5.954.705,1.407,1.407,0,1,1-.656-2.736,28.331,28.331,0,0,1,6.61-.782h12.406a3.372,3.372,0,0,0,3.368-3.368,3.259,3.259,0,0,0-.079-.72l2.6-1.153a6.062,6.062,0,0,1,.293,1.873Z" transform="translate(-230.026 -382.79)" fill="#fdb0a0"/></g></g></g><g transform="translate(29.351 45.201)"><g transform="translate(3.349)"><path d="M48.865,261.661a3.275,3.275,0,0,1-.916-3.085c.734-3.173,3.978-9.719,11.874-8.576a12.36,12.36,0,0,1,10.237,7.654.936.936,0,0,1-1.115,1.256,4.066,4.066,0,0,0-4.088,1.028c-2.732,2.574-5.408,8.1-15.366,2.2A3.353,3.353,0,0,1,48.865,261.661Z" transform="translate(-47.866 -249.867)" fill="#99d53b"/><path d="M68.95,277.891a4.068,4.068,0,0,0-4.088,1.027c-2.731,2.575-5.407,8.1-15.365,2.2a3.29,3.29,0,0,1-1.6-3.207c9.448,5.3,12.067-.04,14.743-2.561a4.062,4.062,0,0,1,4.088-1.027.936.936,0,0,0,1.114-1.256c0-.009-.008-.018-.011-.027a12.462,12.462,0,0,1,2.238,3.594.935.935,0,0,1-1.114,1.256Z" transform="translate(-47.87 -268.849)" fill="#8dc637"/></g><path d="M29.972,283.469a1.4,1.4,0,0,1-.333-2.014A20.7,20.7,0,0,1,45.871,273.3H45.9a1.406,1.406,0,0,1,1.405,1.439,1.442,1.442,0,0,1-1.425,1.374,17.941,17.941,0,0,0-14,7.041,1.411,1.411,0,0,1-1.908.312Z" transform="translate(-29.351 -269.064)" fill="#79a72d"/></g><g transform="translate(39.356 0)"><g transform="translate(0 3.381)"><path d="M103,19.175a3.275,3.275,0,0,1,2.021,2.5c.53,3.213.023,10.5-7.714,12.452a12.36,12.36,0,0,1-12.381-3.179.936.936,0,0,1,.552-1.586,4.065,4.065,0,0,0,3.389-2.507c1.546-3.42,1.917-9.548,13.37-7.886A3.345,3.345,0,0,1,103,19.175Z" transform="translate(-84.658 -18.692)" fill="#a3e440"/><path d="M106.279,34.453A12.477,12.477,0,0,1,95.61,32.727a13.644,13.644,0,0,0,6.407-.176c7.736-1.95,8.244-9.239,7.713-12.452a3.3,3.3,0,0,0-.345-1.012c.574.047,1.182.115,1.826.208a3.456,3.456,0,0,1,.762.2A3.275,3.275,0,0,1,113.992,22C114.524,25.216,114.017,32.5,106.279,34.453Z" transform="translate(-93.629 -19.016)" fill="#8dc637"/></g><path d="M141.676.03a1.4,1.4,0,0,1,1.075,1.736,20.693,20.693,0,0,1-11.905,13.719,1.405,1.405,0,0,1-1.882-.8,1.44,1.44,0,0,1,.8-1.793A17.94,17.94,0,0,0,140.031,1.046,1.411,1.411,0,0,1,141.676.03Z" transform="translate(-120.881 0)" fill="#79a72d"/></g><g transform="translate(91.994 22.4)"><path d="M387.436,145.09a3.275,3.275,0,0,1-3.085.916c-3.173-.734-9.719-3.978-8.576-11.874a12.36,12.36,0,0,1,7.654-10.237.936.936,0,0,1,1.256,1.115,4.066,4.066,0,0,0,1.028,4.088c2.574,2.732,8.1,5.408,2.2,15.366A3.362,3.362,0,0,1,387.436,145.09Z" transform="translate(-375.642 -123.823)" fill="#a3e440"/><path d="M403.666,125.01a4.068,4.068,0,0,0,1.027,4.088c2.575,2.731,8.1,5.407,2.2,15.365a3.29,3.29,0,0,1-3.207,1.6c5.3-9.448-.04-12.067-2.561-14.743a4.062,4.062,0,0,1-1.027-4.088.936.936,0,0,0-1.256-1.114l-.027.011a12.462,12.462,0,0,1,3.594-2.238.935.935,0,0,1,1.256,1.114Z" transform="translate(-394.624 -123.824)" fill="#99d53b"/><path d="M409.228,183.527a1.376,1.376,0,0,1-1.975.326,20.694,20.694,0,0,1-8.175-16.25,1.406,1.406,0,1,1,2.812-.058,17.944,17.944,0,0,0,7.059,14.062,1.385,1.385,0,0,1,.309,1.874Z" transform="translate(-394.839 -158.508)" fill="#79a72d"/></g></g></svg>