<svg xmlns="http://www.w3.org/2000/svg" width="82" height="82" viewBox="0 0 82 82"><path d="M82,41a40.822,40.822,0,0,1-8.238,24.654q-.572.759-1.177,1.489a41.065,41.065,0,0,1-18.24,12.635q-1.8.62-3.676,1.075A41.04,41.04,0,1,1,82,41Z" transform="translate(0 0)" fill="#78c795"/><path d="M161.618,27.382a32.853,32.853,0,0,1-62.7-19.611,41.013,41.013,0,0,1,62.7,19.611Z" transform="translate(-81.935 0)" fill="#9acdae"/><g transform="translate(30.237 30.921)"><g transform="translate(5.266 30.871)"><path d="M231.414,402.073c-6.453-.141-8.122-8.018-9.739-14.89l5.912-1.356a52.763,52.763,0,0,0,2.23,7.849c.868,2.072,1.5,2.32,1.507,2.321.025,0,2.265.195,8.388-8.173l4.895,3.582C239.214,398.776,235.172,402.073,231.414,402.073Z" transform="translate(-221.675 -385.827)" fill="#2d2667"/></g><g transform="translate(0 29.088)"><path d="M200.424,377.155a2.461,2.461,0,0,1-2.461,2.461H191.28a2.461,2.461,0,1,1,0-4.922h6.683A2.464,2.464,0,0,1,200.424,377.155Z" transform="translate(-188.815 -374.694)" fill="#eab39b"/><path d="M199.3,376.051a2.461,2.461,0,0,1-2.461,2.461h-6.683a2.441,2.441,0,0,1-1.1-.257,2.469,2.469,0,0,1,2.2-3.562h6.683a1.073,1.073,0,0,1,1.358,1.358Z" transform="translate(-188.796 -374.693)" fill="#ffe9d7"/></g><g transform="translate(20.432 28.21)"><path d="M338.286,377.224q.605-.73,1.177-1.489a12.251,12.251,0,0,0-23.093,5.711v9.488A41.075,41.075,0,0,0,338.286,377.224Z" transform="translate(-316.37 -369.211)" fill="#2d2667"/><path d="M339.268,390.479c.026-1.136-.083-8.995.091-9.915a12.164,12.164,0,0,1,1.491-4.523,12.312,12.312,0,0,1,7.907-5.911c.3-.07.611-.133.923-.179.373.056.742.13,1.1.218a12.278,12.278,0,0,1,7.9,6.187,41.074,41.074,0,0,1-19.417,14.124Z" transform="translate(-335.592 -369.832)" fill="#6c53a2"/><path d="M339.268,391.419c.026-1.136-.083-8.995.091-9.915a12.171,12.171,0,0,1,1.331-4.231,12.318,12.318,0,0,1,7.563-6.075c.168-.048.337-.087.506-.128a12.294,12.294,0,0,1,8.749,7.715A41.065,41.065,0,0,1,339.268,391.419Z" transform="translate(-335.592 -370.772)" fill="#57409b"/></g><g transform="translate(18.221)"><g transform="translate(0 15.791)"><path d="M310.524,294.461a2.825,2.825,0,0,1-2.793,3.087h-2.36c-3.737-.1-3.737-5.782,0-5.88h2.36A2.793,2.793,0,0,1,310.524,294.461Z" transform="translate(-302.567 -291.668)" fill="#f9d6bf"/><path d="M441.372,294.461a2.825,2.825,0,0,1-2.793,3.087h-2.36c-3.737-.1-3.737-5.782,0-5.88h2.36A2.793,2.793,0,0,1,441.372,294.461Z" transform="translate(-412.459 -291.668)" fill="#f9d6bf"/><g transform="translate(2.209 1.769)"><path d="M323.1,303.882a1.171,1.171,0,0,1-1.171,1.171h-4.394a1.171,1.171,0,0,1,0-2.343h4.394A1.171,1.171,0,0,1,323.1,303.882Z" transform="translate(-316.362 -302.711)" fill="#eab39b"/><path d="M434.032,303.882a1.171,1.171,0,0,1-1.171,1.171h-4.394a1.171,1.171,0,0,1,0-2.343h4.394A1.171,1.171,0,0,1,434.032,303.882Z" transform="translate(-409.528 -302.711)" fill="#eab39b"/></g></g><g transform="translate(11.521 23.31)"><path d="M380.384,341.56v2.924a2.94,2.94,0,1,1-5.88,0V341.56a2.94,2.94,0,1,1,5.88,0Z" transform="translate(-374.504 -338.616)" fill="#eab39b"/><path d="M388.1,342.068v2.924a2.277,2.277,0,1,1-4.409,0v-2.924a2.277,2.277,0,1,1,4.409,0Z" transform="translate(-382.216 -339.124)" fill="#f9d6bf"/><path d="M380.384,341.56v2.693a9.683,9.683,0,0,1-2.141.239,16.043,16.043,0,0,1-3.739-.239V341.56a2.94,2.94,0,1,1,5.88,0Z" transform="translate(-374.504 -338.616)" fill="#eab39b"/></g><g transform="translate(3.984 1.735)"><path d="M348.4,213.582v6.624a9.688,9.688,0,0,1-9.679,9.677h-1.6a9.677,9.677,0,0,1-9.677-9.677v-6.624a9.677,9.677,0,0,1,9.677-9.679h1.6A9.689,9.689,0,0,1,348.4,213.582Z" transform="translate(-327.442 -203.903)" fill="#f9d6bf"/><path d="M364.781,213.737v6.624a8.943,8.943,0,1,1-17.831,0v-6.624a8.943,8.943,0,1,1,17.831,0Z" transform="translate(-343.827 -204.058)" fill="#ffe9d7"/></g><g transform="translate(11.547 21.525)"><path d="M377.579,328.961a3.967,3.967,0,0,1-2.827-.955.32.32,0,0,1,.471-.435c.87.987,3.843.987,4.713,0a.32.32,0,0,1,.471.435,3.967,3.967,0,0,1-2.827.955Z" transform="translate(-374.664 -327.467)" fill="#eab39b"/></g><g transform="translate(12.533 19.057)"><path d="M384.364,312.7H381.14a.32.32,0,0,1,0-.641h3.224A.32.32,0,0,1,384.364,312.7Z" transform="translate(-380.825 -312.061)" fill="#f3c3aa"/></g><g transform="translate(9 14.681)"><path d="M361.633,286.175a1.439,1.439,0,1,0-1.439,1.439A1.439,1.439,0,0,0,361.633,286.175Z" transform="translate(-358.764 -284.736)" fill="#eab39b"/><path d="M411.964,286.175a1.439,1.439,0,1,0-1.439,1.439A1.439,1.439,0,0,0,411.964,286.175Z" transform="translate(-401.034 -284.736)" fill="#eab39b"/><path d="M362.051,290.043a1.34,1.34,0,1,0-1.34,1.34A1.34,1.34,0,0,0,362.051,290.043Z" transform="translate(-359.28 -288.068)" fill="#122894"/><path d="M367.418,291.113a.683.683,0,0,0-.965-.965A.683.683,0,0,0,367.418,291.113Z" transform="translate(-365.05 -289.11)" fill="#e8f3fc"/><path d="M412.383,290.043a1.34,1.34,0,1,0-1.34,1.34A1.34,1.34,0,0,0,412.383,290.043Z" transform="translate(-401.551 -288.068)" fill="#122894"/><path d="M417.749,291.113a.683.683,0,0,0-.965-.965A.683.683,0,0,0,417.749,291.113Z" transform="translate(-407.321 -289.11)" fill="#e8f3fc"/></g><g transform="translate(2.245)"><path d="M340.926,204.316V208.9a14.273,14.273,0,0,0-1.647-.042s0-4.377,0-4.378a88.55,88.55,0,0,1-17.4-2.873c-.937-.261-1.878-.548-2.812-.858a9.63,9.63,0,0,0-.746,3.733v4.376a11.991,11.991,0,0,0-1.739.057v-4.6a11.25,11.25,0,0,1,8.782-10.969,18.746,18.746,0,0,1,4.318-.274,11.232,11.232,0,0,1,11.241,11.243Z" transform="translate(-316.585 -193.069)" fill="#dd5e26"/><path d="M368.7,213.416V218a14.269,14.269,0,0,0-1.647-.042v-4.376a88.926,88.926,0,0,1-17.4-2.875,9.681,9.681,0,0,1,9.243-6.8h1.6a9.642,9.642,0,0,1,4.319,1.015,11.188,11.188,0,0,1,3.882,8.5Z" transform="translate(-344.363 -202.169)" fill="#ea792e"/></g></g></g><g transform="translate(4.582 28.768)"><path d="M134.231,342.563c0-1.931-1.565-2.485-3.5-2.485s-3.5.554-3.5,2.485A3.5,3.5,0,0,0,134.231,342.563Z" transform="translate(-111.443 -314.381)" fill="#e9465e"/><path d="M134.231,334.852c0-1.931-1.565-2.485-3.5-2.485s-3.5.554-3.5,2.485A3.5,3.5,0,0,0,134.231,334.852Z" transform="translate(-111.443 -307.905)" fill="#c0405c"/><path d="M67.193,182.3v22.827a2.68,2.68,0,0,1-2.678,2.678H31.284a2.678,2.678,0,0,1-2.677-2.678V182.3a2.675,2.675,0,0,1,2.677-2.678H64.515A2.68,2.68,0,0,1,67.193,182.3Z" transform="translate(-28.607 -179.627)" fill="#e9465e"/><path d="M30.962,184.708v22.827a2.68,2.68,0,0,1-1.177,2.22,2.677,2.677,0,0,1-1.178-2.22V184.708a2.678,2.678,0,0,1,1.178-2.22A2.68,2.68,0,0,1,30.962,184.708Z" transform="translate(-28.607 -182.03)" fill="#c0405c"/><path d="M258.963,185.377V208.2a2.669,2.669,0,0,1-1.008,2.092,2.666,2.666,0,0,1-1.008-2.092V185.377a2.667,2.667,0,0,1,1.008-2.092A2.669,2.669,0,0,1,258.963,185.377Z" transform="translate(-220.378 -182.699)" fill="#ee6781"/><path d="M80.242,215.23H53.39a2.259,2.259,0,0,1-2.259-2.259V192.8a2.259,2.259,0,0,1,2.259-2.259H80.242A2.259,2.259,0,0,1,82.5,192.8v20.168A2.259,2.259,0,0,1,80.242,215.23Z" transform="translate(-47.524 -188.796)" fill="#c0405c"/><path d="M82.5,181.888v20.168a2.259,2.259,0,0,1-2.26,2.258H53.387a2.26,2.26,0,0,1-2.26-2.258V181.888a2.259,2.259,0,0,1,2.26-2.26H80.238A2.259,2.259,0,0,1,82.5,181.888Z" transform="translate(-47.52 -179.628)" fill="#ebd9ea"/><path d="M164.755,181.888v20.168a2.259,2.259,0,0,1-2.26,2.258H149.07V179.628H162.5A2.259,2.259,0,0,1,164.755,181.888Z" transform="translate(-129.777 -179.628)" fill="#fff"/><path d="M84.379,323.244a2.258,2.258,0,0,1-1.816.915H55.71a1.139,1.139,0,1,1,0-1.832H82.562A2.254,2.254,0,0,1,84.379,323.244Z" transform="translate(-49.844 -299.474)" fill="#c1b7d3"/><g transform="translate(8.103 4.588)"><path d="M90.389,210.107H80.115a.916.916,0,1,1,0-1.832H90.389v1.832Z" transform="translate(-79.199 -208.275)" fill="#6c53a2"/><path d="M90.389,244.993H80.115a.916.916,0,1,1,0-1.832H90.389v1.832Z" transform="translate(-79.199 -237.574)" fill="#6c53a2"/><path d="M90.389,279.879H80.115a.916.916,0,1,1,0-1.832H90.389v1.832Z" transform="translate(-79.199 -266.873)" fill="#6c53a2"/></g><path d="M149.066,278.047H159.34a.916.916,0,1,1,0,1.832H149.066Z" transform="translate(-129.774 -262.284)" fill="#9175a7"/><path d="M149.066,243.161H159.34a.916.916,0,1,1,0,1.832H149.066Z" transform="translate(-129.774 -232.986)" fill="#9175a7"/><path d="M149.066,208.276H159.34a.916.916,0,1,1,0,1.832H149.066Z" transform="translate(-129.774 -203.688)" fill="#9175a7"/></g><g transform="translate(41.853 4.885)"><path d="M274.557,37.113c.016,1.963-1.168,3.372-2.018,4.974-.4.763-1.467,3.993-1.488,4.119h-6.216A33.545,33.545,0,0,0,263.09,41.6a8.551,8.551,0,0,1-1.762-4.483,6.614,6.614,0,0,1,13.229,0Z" transform="translate(-261.328 -30.499)" fill="#daab42"/><path d="M263.909,51.224a6.579,6.579,0,0,1-1.222,3.831,7.316,7.316,0,0,1-1.358-3.831A6.573,6.573,0,0,1,262.62,47.3a6.583,6.583,0,0,1,1.289,3.924Z" transform="translate(-261.329 -44.609)" fill="#c4983d"/><path d="M292.572,38.282c.016,1.963-1.168,3.372-2.018,4.974-.208.444-.436,1.028-.65,1.618A6.618,6.618,0,0,1,287.66,31.89,6.609,6.609,0,0,1,292.572,38.282Z" transform="translate(-279.343 -31.667)" fill="#f9c744"/><path d="M321.585,46.277c.016,1.962-1.168,3.372-2.018,4.974a6.636,6.636,0,0,1-.117-9.842,6.6,6.6,0,0,1,2.135,4.867Z" transform="translate(-308.356 -39.663)" fill="#f8d07a"/><path d="M309.026,48.656a2.714,2.714,0,1,0-2.714,2.714A2.714,2.714,0,0,0,309.026,48.656Z" transform="translate(-296.84 -43.469)" fill="#fbd9a3"/><path d="M274.557,37.113c.016,1.963-1.168,3.372-2.018,4.974-.4.763-1.467,3.993-1.488,4.119h-6.216A33.545,33.545,0,0,0,263.09,41.6a8.551,8.551,0,0,1-1.762-4.483,6.614,6.614,0,0,1,13.229,0Z" transform="translate(-261.328 -30.499)" fill="none"/><g transform="translate(4.273 21.226)"><path d="M292.691,163.03v.94a2.342,2.342,0,1,1-4.685,0v-.94Z" transform="translate(-288.006 -163.03)" fill="#2e3140"/><path d="M302.1,163.03v.94a1.565,1.565,0,1,1-2.891,0v-.94Z" transform="translate(-297.415 -163.03)" fill="#3e4e60"/><path d="M292.691,163.03v.94a2.342,2.342,0,1,1-4.685,0v-.94Z" transform="translate(-288.006 -163.03)" fill="none"/></g><g transform="translate(5.577 11.125)"><path d="M296.151,99.965h2.076v4.583h-2.076Z" transform="translate(-296.151 -99.965)" fill="#bf5e39"/><path d="M302.633,99.965h1.038v4.583h-1.038Z" transform="translate(-301.595 -99.965)" fill="#dd5e26"/></g><g transform="translate(3.557 8.538)"><path d="M289.664,85.1A1.3,1.3,0,0,1,288.37,86.4h-3.547a1.294,1.294,0,0,1,0-2.588h3.547A1.3,1.3,0,0,1,289.664,85.1Z" transform="translate(-283.539 -83.81)" fill="#bf5e39"/><path d="M297.093,85.1a1.255,1.255,0,0,1-.053.367h-3.36a1.3,1.3,0,0,1-1.241-1.661h3.36A1.3,1.3,0,0,1,297.093,85.1Z" transform="translate(-290.968 -83.81)" fill="#dd5e26"/><path d="M308.033,84.19a1.3,1.3,0,0,1,.327,1.281h-1.2a1.3,1.3,0,0,1-1.24-1.661h1.2A1.29,1.29,0,0,1,308.033,84.19Z" transform="translate(-302.287 -83.81)" fill="#ea792e"/><path d="M289.664,85.1A1.3,1.3,0,0,1,288.37,86.4h-3.547a1.294,1.294,0,0,1,0-2.588h3.547A1.3,1.3,0,0,1,289.664,85.1Z" transform="translate(-283.539 -83.81)" fill="none"/></g><g transform="translate(1.694 15.708)"><path d="M281.75,130.311c.005.942-1,1.115-1.73,1.73-.144.123-.123.745-.123.745a3.068,3.068,0,1,1-6.136,0s.021-.621-.123-.745c-.729-.618-1.73-.775-1.73-1.73a1.73,1.73,0,0,1,1.73-1.731h6.382A1.73,1.73,0,0,1,281.75,130.311Z" transform="translate(-271.908 -128.58)" fill="#c1b7d3"/><path d="M281.746,139.39c.015.941-1,1.115-1.727,1.73-.144.123-.123.745-.123.745a3.068,3.068,0,1,1-6.136,0s.021-.621-.123-.745c-.729-.618-1.73-.775-1.73-1.73Z" transform="translate(-271.908 -137.659)" fill="#aea7b9"/><path d="M277.867,139.39s-.514,3.7-3.813,3.785a3.061,3.061,0,0,1-.293-1.31s.021-.621-.123-.745c-.729-.618-1.73-.775-1.73-1.73Z" transform="translate(-271.908 -137.659)" fill="#9f90ae"/><path d="M276.373,129.445a.866.866,0,0,1-.865.866h-3.6a1.73,1.73,0,0,1,1.73-1.731h1.871a.865.865,0,0,1,.865.865Z" transform="translate(-271.908 -128.58)" fill="#aea7b9"/><path d="M288.667,158.787a.637.637,0,0,1-.637.636h-3.722a3.041,3.041,0,0,1-.54-1.273h4.262A.637.637,0,0,1,288.667,158.787Z" transform="translate(-281.869 -153.414)" fill="#c1b7d3"/><g transform="translate(4.485)"><path d="M300.954,159.427h-.406a.636.636,0,0,1,0-1.273h.406A.636.636,0,0,1,300.954,159.427Z" transform="translate(-299.911 -153.418)" fill="#ebd9ea"/><path d="M307.112,129.853H305.18a.636.636,0,0,1,0-1.273h1.932A.636.636,0,0,1,307.112,129.853Z" transform="translate(-303.806 -128.58)" fill="#ebd9ea"/></g></g></g></svg>